<svg width="50" height="50" viewBox="0 0 50 50" fill="none" xmlns="http://www.w3.org/2000/svg">
<path d="M50 22.0187C48.479 9.61304 37.9168 0 25.0973 0C11.2375 0 0 11.2375 0 25.0973C0 37.9168 9.61304 48.479 22.0187 50L50 22.0187Z" fill="#3D7258"/>
<path fill-rule="evenodd" clip-rule="evenodd" d="M13.586 45.3395L14.4926 43.7515L13.3062 43.0275C12.9107 42.7902 12.5578 42.4799 12.1806 42.2122L11.0793 43.6663C11.487 43.9584 11.8703 44.2869 12.3023 44.5486L13.5921 45.3334L13.586 45.3395Z" fill="white"/>
<path fill-rule="evenodd" clip-rule="evenodd" d="M18.5568 47.4568L19.0679 45.7046C18.6116 45.6133 18.1917 45.4064 17.7537 45.2604C17.3217 45.09 16.8715 44.9744 16.4577 44.7554L15.7216 46.4225C16.1657 46.6537 16.6585 46.7875 17.127 46.9761C17.6016 47.1343 18.064 47.3534 18.5568 47.4568Z" fill="white"/>
<path fill-rule="evenodd" clip-rule="evenodd" d="M23.8683 48.3451L23.9657 46.5198C23.5033 46.4833 23.0348 46.5077 22.5785 46.4164L21.2034 46.2035L20.8749 47.9983L22.3655 48.2295C22.8583 48.3268 23.3694 48.3025 23.8683 48.3451Z" fill="white"/>
<path fill-rule="evenodd" clip-rule="evenodd" d="M3.27336 33.2076L4.98302 32.5688C4.83092 32.1307 4.64231 31.7048 4.52671 31.2546L4.17991 29.91L2.40332 30.3176L2.78054 31.7778C2.90831 32.2645 3.11517 32.7269 3.27336 33.2015V33.2076Z" fill="white"/>
<path fill-rule="evenodd" clip-rule="evenodd" d="M5.71315 38.0202L7.22811 37.0041C6.76571 36.201 6.21813 35.4466 5.85308 34.5887L4.21643 35.3979C4.6119 36.3227 5.20207 37.1502 5.71315 38.0202Z" fill="white"/>
<path fill-rule="evenodd" clip-rule="evenodd" d="M9.21764 42.1088L10.4649 40.7763L9.94774 40.3079C9.78347 40.1436 9.63745 39.9672 9.47926 39.7968L8.54229 38.7686L7.13684 39.9306L8.1529 41.0501C8.32326 41.2327 8.48753 41.4274 8.66398 41.6038L9.22372 42.1088H9.21764Z" fill="white"/>
<path fill-rule="evenodd" clip-rule="evenodd" d="M3.1638 17.2791L4.87955 17.8936C5.04382 17.4617 5.18376 17.0175 5.37237 16.5916L5.9747 15.3383L4.35022 14.5047L3.69313 15.8615C3.48626 16.3178 3.33416 16.8046 3.15771 17.2731L3.1638 17.2791Z" fill="white"/>
<path fill-rule="evenodd" clip-rule="evenodd" d="M1.93481 22.542L3.74791 22.7428L3.96086 21.3677C3.99736 21.1365 4.0217 20.9053 4.07645 20.6802L4.2529 20.0049L2.48239 19.5729L2.29378 20.303C2.23294 20.5464 2.2086 20.8019 2.16601 21.0453L1.9409 22.5359L1.93481 22.542Z" fill="white"/>
<path fill-rule="evenodd" clip-rule="evenodd" d="M1.97739 27.9204L3.79048 27.7014C3.69922 27.2451 3.71139 26.7766 3.68097 26.3142C3.6688 25.8518 3.61404 25.3894 3.62621 24.927L1.80095 24.9148C1.78878 25.4198 1.84354 25.9187 1.8557 26.4237C1.89221 26.9226 1.88004 27.4337 1.97739 27.9265V27.9204Z" fill="white"/>
<path fill-rule="evenodd" clip-rule="evenodd" d="M13.3243 5.01339L14.2491 6.58919L14.8454 6.22414L15.4721 5.91993L16.7193 5.3176L16.0075 3.63227L14.6446 4.28937L13.9693 4.624L13.3243 5.01339Z" fill="white"/>
<path fill-rule="evenodd" clip-rule="evenodd" d="M9.01681 8.26843L10.2762 9.58871L11.3045 8.65174C11.6513 8.34753 12.0407 8.09199 12.4057 7.80603L11.3227 6.33366C10.9272 6.64395 10.5074 6.92382 10.1241 7.25237L9.00464 8.26843H9.01681Z" fill="white"/>
<path fill-rule="evenodd" clip-rule="evenodd" d="M5.5731 12.4057L7.10024 13.4035C7.31927 12.9959 7.64173 12.6491 7.90335 12.2718C8.19539 11.9068 8.43268 11.5052 8.76122 11.1767L7.37403 9.99026C7.02114 10.3492 6.75344 10.7812 6.44314 11.1767C6.1511 11.5904 5.81038 11.9615 5.56702 12.4057H5.5731Z" fill="white"/>
<path fill-rule="evenodd" clip-rule="evenodd" d="M28.9912 2.14164L28.687 3.94256L29.3745 4.046C29.5996 4.09467 29.8248 4.1616 30.0499 4.21635L31.3945 4.56315L31.9299 2.81699L30.4697 2.43977C30.2263 2.37892 29.9829 2.312 29.7396 2.25724L28.9912 2.14164Z" fill="white"/>
<path fill-rule="evenodd" clip-rule="evenodd" d="M23.5945 1.86177L23.7162 3.68703L25.1034 3.61402L26.4906 3.68703L26.6123 1.86177L25.1034 1.78876L23.5945 1.86177Z" fill="white"/>
<path fill-rule="evenodd" clip-rule="evenodd" d="M18.2952 2.80482L18.8306 4.55099L20.1752 4.20419C20.4003 4.14943 20.6193 4.0825 20.8505 4.03992L21.538 3.93648L21.2338 2.13556L20.4855 2.25116C20.236 2.29983 19.9987 2.37284 19.7554 2.4276L18.2952 2.80482Z" fill="white"/>
<path fill-rule="evenodd" clip-rule="evenodd" d="M42.8328 10.0146L41.4456 11.201C41.7741 11.5296 42.0114 11.9311 42.3034 12.2962C42.5711 12.6734 42.8875 13.0202 43.1065 13.4278L44.6337 12.43C44.3903 11.9859 44.0557 11.6087 43.7636 11.201C43.4533 10.8055 43.1856 10.3736 42.8328 10.0146Z" fill="white"/>
<path fill-rule="evenodd" clip-rule="evenodd" d="M38.878 6.33974L37.795 7.81212C38.1601 8.09808 38.5495 8.35362 38.8963 8.65783L39.9245 9.59479L41.1839 8.27452L40.0645 7.25846C39.6872 6.92383 39.2674 6.64395 38.8719 6.33974H38.878Z" fill="white"/>
<path fill-rule="evenodd" clip-rule="evenodd" d="M34.2176 3.65053L33.4996 5.32977L34.753 5.9321C34.9598 6.03554 35.1728 6.1268 35.3797 6.23632L35.9759 6.60137L36.9007 5.03164L36.2558 4.64225C36.0367 4.52057 35.8055 4.42322 35.5804 4.30762L34.2176 3.65053Z" fill="white"/>
<path fill-rule="evenodd" clip-rule="evenodd" d="M47.7184 19.5851L45.9479 20.017L46.1243 20.6924C46.1791 20.9175 46.1973 21.1487 46.2399 21.3799L46.4529 22.7549L48.266 22.5541L48.0408 21.0635C47.9983 20.8141 47.9739 20.5646 47.9192 20.3212L47.7305 19.5911L47.7184 19.5851Z" fill="white"/>
<path fill-rule="evenodd" clip-rule="evenodd" d="M45.8506 14.5352L44.2261 15.3626L44.8284 16.616C45.0109 17.0419 45.1509 17.486 45.3212 17.918L47.0431 17.3035C46.8666 16.835 46.7084 16.3543 46.5077 15.8919L45.8506 14.5352Z" fill="white"/>
<path d="M27.0565 15.3079H31.3398V10.4405H27.0565C24.1604 10.4405 21.8058 12.7951 21.8058 15.6912V18.9584H18.6603V23.8257H21.8058V36.2984H26.6732V23.8257H30.0195L31.3398 18.9584H26.6732V15.6912C26.6732 15.4782 26.8435 15.3079 27.0565 15.3079Z" fill="white"/>
<g style="mix-blend-mode:multiply">
<path fill-rule="evenodd" clip-rule="evenodd" d="M46.605 21.5077C31.4067 20.1752 20.1752 31.4067 21.5077 46.605C21.6111 47.7488 21.7876 48.8805 22.0188 50L34.4853 37.5335L50 22.0187C48.8805 21.7875 47.7489 21.6111 46.605 21.5077Z" fill="#BABCBE"/>
</g>
<path fill-rule="evenodd" clip-rule="evenodd" d="M46.9214 21.824C33.0616 21.824 21.8241 33.0616 21.8241 46.9214C21.8241 47.9618 21.8971 48.99 22.0188 50L34.4853 37.5335L50.0001 22.0187C48.9901 21.8971 47.9679 21.824 46.9214 21.824Z" fill="#3D7258"/>
<path fill-rule="evenodd" clip-rule="evenodd" d="M23.0409 46.9214C23.0409 33.7552 33.7552 23.0409 46.9214 23.0409C47.0309 23.0409 47.1404 23.0409 47.256 23.0409L23.047 47.2499C23.047 47.1404 23.047 47.0309 23.047 46.9153L23.0409 46.9214Z" fill="white"/>
</svg>
