<svg width="50" height="50" viewBox="0 0 50 50" fill="none" xmlns="http://www.w3.org/2000/svg">
<path d="M50 22.0187C48.4789 9.61304 37.9168 0 25.0973 0C11.2375 0 0 11.2375 0 25.0973C0 37.9168 9.61304 48.4789 22.0187 50L50 22.0187Z" fill="#3D7258"/>
<path fill-rule="evenodd" clip-rule="evenodd" d="M13.5859 45.3395L14.4925 43.7515L13.306 43.0275C12.9106 42.7902 12.5577 42.4799 12.1805 42.2122L11.0792 43.6663C11.4869 43.9584 11.8702 44.2869 12.3021 44.5485L13.592 45.3334L13.5859 45.3395Z" fill="white"/>
<path fill-rule="evenodd" clip-rule="evenodd" d="M18.5567 47.4568L19.0677 45.7045C18.6114 45.6133 18.1916 45.4064 17.7536 45.2604C17.3216 45.09 16.8713 44.9744 16.4576 44.7554L15.7214 46.4225C16.1656 46.6537 16.6584 46.7875 17.1269 46.9761C17.6015 47.1343 18.0639 47.3534 18.5567 47.4568Z" fill="white"/>
<path fill-rule="evenodd" clip-rule="evenodd" d="M23.8683 48.3451L23.9657 46.5198C23.5033 46.4833 23.0348 46.5077 22.5785 46.4164L21.2034 46.2035L20.8749 47.9983L22.3655 48.2295C22.8583 48.3268 23.3694 48.3025 23.8683 48.3451Z" fill="white"/>
<path fill-rule="evenodd" clip-rule="evenodd" d="M3.27336 33.2076L4.98302 32.5688C4.83092 32.1307 4.64231 31.7048 4.52671 31.2546L4.17991 29.91L2.40332 30.3176L2.78054 31.7778C2.90831 32.2645 3.11517 32.7269 3.27336 33.2015V33.2076Z" fill="white"/>
<path fill-rule="evenodd" clip-rule="evenodd" d="M5.71302 38.0202L7.22799 37.0041C6.76559 36.201 6.21801 35.4466 5.85296 34.5887L4.21631 35.3979C4.61178 36.3227 5.20195 37.1502 5.71302 38.0202Z" fill="white"/>
<path fill-rule="evenodd" clip-rule="evenodd" d="M9.21764 42.1088L10.4649 40.7763L9.94774 40.3079C9.78347 40.1436 9.63745 39.9671 9.47926 39.7968L8.54229 38.7686L7.13684 39.9306L8.1529 41.0501C8.32326 41.2327 8.48753 41.4274 8.66398 41.6038L9.22372 42.1088H9.21764Z" fill="white"/>
<path fill-rule="evenodd" clip-rule="evenodd" d="M3.1638 17.2791L4.87955 17.8936C5.04382 17.4617 5.18376 17.0175 5.37237 16.5916L5.9747 15.3383L4.35022 14.5047L3.69312 15.8676C3.48626 16.3239 3.33416 16.8107 3.15771 17.2791H3.1638Z" fill="white"/>
<path fill-rule="evenodd" clip-rule="evenodd" d="M1.93469 22.542L3.74779 22.7428L3.96073 21.3677C3.99724 21.1365 4.02157 20.9053 4.07633 20.6802L4.25277 20.0049L2.48227 19.5729L2.29366 20.303C2.23282 20.5464 2.20848 20.8019 2.16589 21.0453L1.94078 22.5359L1.93469 22.542Z" fill="white"/>
<path fill-rule="evenodd" clip-rule="evenodd" d="M1.97739 27.9204L3.79048 27.7014C3.69922 27.2451 3.71139 26.7766 3.68097 26.3142C3.6688 25.8518 3.61404 25.3894 3.62621 24.927L1.80095 24.9148C1.78878 25.4198 1.84354 25.9187 1.8557 26.4237C1.89221 26.9226 1.88004 27.4337 1.97739 27.9265V27.9204Z" fill="white"/>
<path fill-rule="evenodd" clip-rule="evenodd" d="M13.3245 5.01339L14.2493 6.58919L14.8455 6.22414L15.4722 5.91993L16.7194 5.3176L16.0076 3.63227L14.6447 4.28936L13.9694 4.624L13.3245 5.01339Z" fill="white"/>
<path fill-rule="evenodd" clip-rule="evenodd" d="M9.01681 8.26844L10.2762 9.58871L11.3045 8.65174C11.6513 8.34753 12.0407 8.09199 12.4057 7.80604L11.3227 6.33366C10.9272 6.64395 10.5074 6.92383 10.1241 7.25237L9.00464 8.26844H9.01681Z" fill="white"/>
<path fill-rule="evenodd" clip-rule="evenodd" d="M5.5731 12.4057L7.10024 13.4035C7.31927 12.9959 7.64173 12.6491 7.90335 12.2718C8.19539 11.9068 8.43268 11.5052 8.76122 11.1767L7.37403 9.99027C7.02114 10.3492 6.75344 10.7812 6.44314 11.1767C6.1511 11.5904 5.81038 11.9615 5.56702 12.4057H5.5731Z" fill="white"/>
<path fill-rule="evenodd" clip-rule="evenodd" d="M28.9912 2.14164L28.687 3.94257L29.3745 4.046C29.5996 4.09467 29.8248 4.1616 30.0499 4.21635L31.3945 4.56315L31.9299 2.81699L30.4697 2.43977C30.2263 2.37892 29.9829 2.312 29.7396 2.25724L28.9912 2.14164Z" fill="white"/>
<path fill-rule="evenodd" clip-rule="evenodd" d="M23.5945 1.86177L23.7162 3.68703L25.1034 3.61402L26.4906 3.68703L26.6123 1.86177L25.1034 1.78876L23.5945 1.86177Z" fill="white"/>
<path fill-rule="evenodd" clip-rule="evenodd" d="M18.2952 2.80482L18.8306 4.55099L20.1752 4.20419C20.4003 4.14943 20.6193 4.0825 20.8505 4.03991L21.538 3.93648L21.2338 2.13556L20.4855 2.25116C20.236 2.29983 19.9987 2.37284 19.7554 2.4276L18.2952 2.80482Z" fill="white"/>
<path fill-rule="evenodd" clip-rule="evenodd" d="M42.8329 10.0146L41.4457 11.201C41.7742 11.5296 42.0115 11.9311 42.3035 12.2962C42.5713 12.6734 42.8876 13.0202 43.1067 13.4278L44.6338 12.43C44.3904 11.9859 44.0558 11.6087 43.7638 11.201C43.4535 10.8055 43.1858 10.3736 42.8329 10.0146Z" fill="white"/>
<path fill-rule="evenodd" clip-rule="evenodd" d="M38.8782 6.33974L37.7952 7.81212C38.1602 8.09808 38.5496 8.35361 38.8964 8.65782L39.9246 9.59479L41.1841 8.27452L40.0646 7.25846C39.6874 6.92383 39.2675 6.64395 38.8721 6.33974H38.8782Z" fill="white"/>
<path fill-rule="evenodd" clip-rule="evenodd" d="M34.2176 3.65052L33.4996 5.32976L34.753 5.9321C34.9598 6.03553 35.1728 6.12679 35.3797 6.23631L35.9759 6.60136L36.9007 5.03164L36.2558 4.64225C36.0367 4.52056 35.8055 4.42322 35.5804 4.30762L34.2176 3.65052Z" fill="white"/>
<path fill-rule="evenodd" clip-rule="evenodd" d="M47.7184 19.5851L45.9479 20.017L46.1243 20.6924C46.1791 20.9175 46.1973 21.1487 46.2399 21.3799L46.4529 22.7549L48.266 22.5541L48.0408 21.0635C47.9983 20.8141 47.9739 20.5646 47.9192 20.3212L47.7305 19.5911L47.7184 19.5851Z" fill="white"/>
<path fill-rule="evenodd" clip-rule="evenodd" d="M45.8506 14.5352L44.2261 15.3626L44.8284 16.616C45.0109 17.0419 45.1509 17.486 45.3212 17.918L47.0431 17.3035C46.8666 16.835 46.7084 16.3543 46.5077 15.8919L45.8506 14.5352Z" fill="white"/>
<path d="M27.1234 22.183H19.944V25.1704H24.6593C23.8805 27.0078 22.0613 28.2976 19.944 28.2976C17.1209 28.2976 14.8272 26.0039 14.8272 23.1808C14.8272 20.3578 17.1209 18.064 19.944 18.064C21.313 18.064 22.5602 18.6116 23.4789 19.4877L25.8883 17.6929C24.4098 16.0866 22.2925 15.0767 19.944 15.0767C15.4782 15.0767 11.8398 18.7089 11.8398 23.1808C11.8398 27.6527 15.4721 31.285 19.944 31.285C24.4159 31.285 28.0482 27.6527 28.0482 23.1808C28.0482 22.8462 28.0238 22.5116 27.9812 22.183H27.1234Z" fill="white"/>
<path d="M35.4528 21.9153V19.2078H33.3476V21.9153H30.6462V24.0204H33.3476V26.7218H35.4528V24.0204H38.1602V21.9153H35.4528Z" fill="white"/>
<g style="mix-blend-mode:multiply">
<path fill-rule="evenodd" clip-rule="evenodd" d="M46.6049 21.5077C31.4066 20.1752 20.1751 31.4067 21.5076 46.605C21.611 47.7488 21.7874 48.8805 22.0186 50L34.4852 37.5335L49.9999 22.0187C48.8804 21.7875 47.7487 21.6111 46.6049 21.5077Z" fill="#BABCBE"/>
</g>
<path fill-rule="evenodd" clip-rule="evenodd" d="M46.9213 21.824C33.0615 21.824 21.824 33.0616 21.824 46.9214C21.824 47.9618 21.897 48.99 22.0187 50L34.4852 37.5335L49.9999 22.0187C48.99 21.8971 47.9678 21.824 46.9213 21.824Z" fill="#3D7258"/>
<path fill-rule="evenodd" clip-rule="evenodd" d="M23.0409 46.9214C23.0409 33.7552 33.7552 23.0409 46.9214 23.0409C47.0309 23.0409 47.1404 23.0409 47.256 23.0409L23.047 47.2499C23.047 47.1404 23.047 47.0309 23.047 46.9153L23.0409 46.9214Z" fill="white"/>
</svg>
