<svg width="916" height="555" viewBox="0 0 916 555" fill="none" xmlns="http://www.w3.org/2000/svg">
<g style="mix-blend-mode:multiply">
<path d="M773.249 121.689C774.19 98.1507 758.759 78.422 738.783 77.6232C718.807 76.8243 701.85 95.2579 700.909 118.796C699.967 142.334 715.398 162.062 735.374 162.861C755.351 163.66 772.308 145.226 773.249 121.689Z" fill="#EBEBEB"/>
<path d="M762.258 121.421C761.233 142.869 746.931 159.914 729.286 162C731.153 162.45 733.066 162.738 735.026 162.841C754.998 163.867 772.1 145.612 773.23 122.09C774.359 98.5563 759.089 78.6646 739.117 77.6389C737.353 77.5467 735.602 77.6159 733.885 77.8118C750.953 81.9492 763.272 100.216 762.247 121.421H762.258Z" fill="#E0E0E0"/>
<path d="M479.635 538.681C503.073 536.387 521.172 525.309 520.059 513.939C518.946 502.568 499.043 495.21 475.605 497.504C452.167 499.798 434.069 510.875 435.182 522.246C436.295 533.617 456.197 540.975 479.635 538.681Z" fill="#EBEBEB"/>
<path d="M477.991 532.486C456.601 534.169 438.784 527.853 435.649 518.045C435.315 519.152 435.142 520.27 435.165 521.399C435.361 532.855 454.538 540.634 478.002 538.79C501.467 536.946 520.332 526.159 520.137 514.703C520.125 513.689 519.952 512.709 519.641 511.753C516.564 521.883 499.139 530.815 477.991 532.486Z" fill="#E0E0E0"/>
<path d="M177.769 475.846C189.699 465.853 189.828 446.36 178.058 432.307C166.287 418.255 147.074 414.964 135.144 424.956C123.214 434.949 123.084 454.442 134.855 468.495C146.626 482.547 165.839 485.838 177.769 475.846Z" fill="#EBEBEB"/>
<path d="M141.528 463.084C152.361 475.807 169.279 479.507 181.138 472.396C180.205 473.56 179.156 474.643 178.003 475.646C166.191 485.776 146.979 482.664 135.086 468.708C123.204 454.752 123.146 435.229 134.959 425.098C136.008 424.199 137.114 423.416 138.266 422.724C129.715 433.385 130.821 450.499 141.528 463.084Z" fill="#E0E0E0"/>
<path d="M137.061 306.974C137.237 295.022 130.754 285.236 122.583 285.116C114.411 284.996 107.644 294.588 107.469 306.54C107.294 318.492 113.776 328.278 121.948 328.398C130.12 328.518 136.886 318.926 137.061 306.974Z" fill="#EBEBEB"/>
<path d="M111.979 306.417C111.748 317.307 117.049 326.481 124.183 328.21C123.411 328.371 122.616 328.44 121.821 328.417C113.65 328.175 107.242 318.287 107.495 306.336C107.749 294.385 114.583 284.888 122.754 285.13C123.48 285.153 124.183 285.246 124.875 285.418C117.787 286.871 112.209 295.641 111.979 306.417Z" fill="#E0E0E0"/>
<path d="M816.39 403.824C810.189 415.521 813.232 429.236 823.166 434.468C833.112 439.7 846.193 434.457 852.393 422.759C858.593 411.061 855.551 397.347 845.605 392.115C835.659 386.882 822.578 392.126 816.378 403.824H816.39Z" fill="#EBEBEB"/>
<path d="M846.907 419.935C852.554 409.275 850.526 396.932 842.597 390.881C843.623 391.193 844.637 391.607 845.616 392.126C855.562 397.358 858.593 411.073 852.404 422.77C846.204 434.468 833.124 439.7 823.178 434.48C822.302 434.019 821.472 433.488 820.7 432.901C830.139 435.793 841.318 430.492 846.907 419.958V419.935Z" fill="#E0E0E0"/>
<path d="M296.955 119.798C303.023 102.5 296.037 84.3018 281.352 79.1505C266.667 73.9993 249.844 83.8459 243.776 101.144C237.709 118.441 244.694 136.64 259.379 141.791C274.064 146.942 290.887 137.096 296.955 119.798Z" fill="#EBEBEB"/>
<path d="M249.71 103.039C244.305 118.851 249.768 135.286 261.938 141.855C260.463 141.647 258.987 141.302 257.547 140.818C242.807 135.827 235.662 117.722 241.597 100.377C247.52 83.0324 264.277 73.0059 279.017 77.9961C280.32 78.434 281.564 78.9872 282.751 79.6211C269.221 77.7195 255.069 87.4003 249.722 103.039H249.71Z" fill="#E0E0E0"/>
<path d="M654.929 108.952L659.769 111.833C660.392 112.202 660.346 113.135 659.677 113.469L654.537 116.039C654.376 116.12 654.237 116.247 654.145 116.397L651.137 121.295C650.745 121.928 649.824 121.905 649.501 121.248L647.046 116.178C646.965 116.016 646.85 115.889 646.7 115.797L641.86 112.916C641.238 112.547 641.284 111.614 641.952 111.28L647.092 108.71C647.254 108.629 647.392 108.502 647.484 108.352L650.492 103.454C650.884 102.82 651.806 102.843 652.128 103.5L654.583 108.571C654.664 108.733 654.779 108.859 654.929 108.952Z" fill="#E0E0E0"/>
<path d="M186.002 526.009L190.842 528.89C191.476 529.259 191.418 530.193 190.75 530.527L185.61 533.097C185.448 533.177 185.31 533.304 185.218 533.454L182.21 538.352C181.818 538.986 180.896 538.963 180.573 538.306L178.119 533.235C178.038 533.074 177.923 532.947 177.773 532.855L172.933 529.974C172.299 529.605 172.356 528.671 173.025 528.337L178.165 525.767C178.326 525.686 178.464 525.56 178.557 525.41L181.565 520.512C181.956 519.878 182.878 519.901 183.201 520.558L185.656 525.629C185.737 525.79 185.852 525.917 186.002 526.009Z" fill="#E0E0E0"/>
<path d="M613.728 522.598L618.569 525.479C619.191 525.848 619.145 526.781 618.477 527.115L613.337 529.685C613.175 529.766 613.037 529.893 612.945 530.043L609.937 534.941C609.545 535.575 608.623 535.552 608.3 534.895L605.846 529.824C605.765 529.662 605.65 529.536 605.5 529.443L600.659 526.562C600.037 526.193 600.083 525.26 600.752 524.926L605.892 522.356C606.053 522.275 606.191 522.148 606.283 521.998L609.291 517.1C609.683 516.467 610.605 516.49 610.928 517.146L613.383 522.217C613.463 522.379 613.579 522.505 613.728 522.598Z" fill="#E0E0E0"/>
<path d="M824.814 518.437L829.655 521.318C830.277 521.687 830.231 522.621 829.562 522.955L824.422 525.525C824.261 525.606 824.123 525.732 824.03 525.882L821.023 530.78C820.631 531.414 819.709 531.391 819.386 530.734L816.931 525.663C816.851 525.502 816.735 525.375 816.586 525.283L811.745 522.402C811.123 522.033 811.169 521.099 811.837 520.765L816.977 518.195C817.139 518.115 817.277 517.988 817.369 517.838L820.377 512.94C820.769 512.306 821.691 512.329 822.014 512.986L824.468 518.057C824.549 518.218 824.664 518.345 824.814 518.437Z" fill="#E0E0E0"/>
<path d="M307.691 164.789L312.531 167.67C313.165 168.039 313.107 168.972 312.439 169.307L307.299 171.877C307.137 171.957 306.999 172.084 306.907 172.234L303.899 177.132C303.507 177.766 302.585 177.743 302.263 177.086L299.808 172.015C299.727 171.854 299.612 171.727 299.462 171.635L294.622 168.753C293.999 168.385 294.045 167.451 294.714 167.117L299.854 164.547C300.015 164.466 300.154 164.339 300.246 164.19L303.254 159.292C303.646 158.658 304.567 158.681 304.89 159.338L307.345 164.409C307.426 164.57 307.541 164.697 307.691 164.789Z" fill="#E0E0E0"/>
<path d="M338.634 67.474L343.475 70.3552C344.097 70.724 344.051 71.6575 343.383 71.9917L338.243 74.5617C338.081 74.6424 337.943 74.7692 337.851 74.919L334.843 79.817C334.451 80.4509 333.529 80.4278 333.206 79.7709L330.752 74.7C330.671 74.5387 330.556 74.4119 330.406 74.3197L325.565 71.4385C324.943 71.0697 324.989 70.1362 325.658 69.802L330.798 67.232C330.959 67.1513 331.097 67.0246 331.189 66.8747L334.197 61.9767C334.589 61.3429 335.511 61.3659 335.834 62.0228L338.289 67.0937C338.369 67.2551 338.485 67.3818 338.634 67.474Z" fill="#E0E0E0"/>
<path d="M181.691 109.874L184.146 111.337C184.469 111.522 184.434 111.994 184.1 112.167L181.496 113.469C181.415 113.515 181.346 113.573 181.3 113.654L179.778 116.143C179.582 116.466 179.11 116.454 178.949 116.12L177.704 113.55C177.669 113.469 177.6 113.4 177.531 113.354L175.076 111.89C174.754 111.706 174.788 111.234 175.122 111.061L177.727 109.758C177.808 109.712 177.877 109.655 177.923 109.574L179.444 107.085C179.64 106.762 180.113 106.773 180.274 107.108L181.519 109.678C181.553 109.758 181.622 109.827 181.691 109.874Z" fill="#E0E0E0"/>
<path d="M455.76 95.675L458.214 97.1387C458.537 97.3231 458.503 97.7956 458.168 97.9685L455.564 99.2708C455.483 99.3169 455.414 99.3745 455.368 99.4552L453.847 101.944C453.651 102.267 453.178 102.256 453.017 101.921L451.772 99.3514C451.738 99.2708 451.668 99.2016 451.599 99.1555L449.145 97.6919C448.822 97.5075 448.856 97.035 449.191 96.8621L451.795 95.5598C451.876 95.5137 451.945 95.4561 451.991 95.3754L453.512 92.886C453.708 92.5634 454.181 92.5749 454.342 92.9091L455.587 95.4791C455.621 95.5598 455.691 95.6289 455.76 95.675Z" fill="#E0E0E0"/>
<path d="M683.741 79.4712L686.196 80.9349C686.518 81.1193 686.484 81.5918 686.149 81.7647L683.545 83.067C683.464 83.1131 683.395 83.1707 683.349 83.2514L681.828 85.7407C681.632 86.0634 681.159 86.0519 680.998 85.7177L679.753 83.1476C679.719 83.067 679.65 82.9978 679.58 82.9517L677.126 81.4881C676.803 81.3037 676.837 80.8312 677.172 80.6583L679.776 79.356C679.857 79.3099 679.926 79.2523 679.972 79.1716L681.493 76.6823C681.689 76.3596 682.162 76.3711 682.323 76.7053L683.568 79.2753C683.602 79.356 683.672 79.4251 683.741 79.4712Z" fill="#E0E0E0"/>
<path d="M841.191 87.4925L843.646 88.9561C843.968 89.1405 843.934 89.613 843.6 89.7859L840.995 91.0882C840.914 91.1343 840.845 91.1919 840.799 91.2726L839.278 93.7619C839.082 94.0846 838.609 94.0731 838.448 93.7389L837.203 91.1689C837.169 91.0882 837.1 91.0191 837.03 90.973L834.576 89.5093C834.253 89.3249 834.288 88.8524 834.622 88.6795L837.226 87.3772C837.307 87.3311 837.376 87.2735 837.422 87.1928L838.943 84.7035C839.139 84.3808 839.612 84.3923 839.773 84.7265L841.018 87.2966C841.053 87.3772 841.122 87.4464 841.191 87.4925Z" fill="#E0E0E0"/>
<path d="M559.758 547.249L562.64 548.932C563.008 549.151 562.985 549.704 562.594 549.9L559.563 551.456C559.47 551.502 559.39 551.582 559.332 551.675L557.58 554.59C557.35 554.971 556.797 554.959 556.612 554.567L555.126 551.571C555.079 551.479 555.01 551.398 554.918 551.352L552.037 549.669C551.668 549.45 551.691 548.897 552.083 548.701L555.114 547.145C555.206 547.099 555.287 547.019 555.345 546.926L557.096 544.011C557.327 543.63 557.88 543.642 558.064 544.034L559.551 547.03C559.597 547.122 559.666 547.203 559.758 547.249Z" fill="#E0E0E0"/>
<path d="M861.129 338.34L864.01 340.023C864.379 340.242 864.355 340.795 863.964 340.991L860.933 342.547C860.84 342.593 860.76 342.673 860.702 342.766L858.95 345.681C858.72 346.062 858.167 346.05 857.982 345.658L856.496 342.662C856.45 342.57 856.38 342.489 856.288 342.443L853.407 340.76C853.038 340.541 853.061 339.988 853.453 339.792L856.484 338.236C856.576 338.19 856.657 338.11 856.715 338.017L858.466 335.102C858.697 334.721 859.25 334.733 859.434 335.125L860.921 338.121C860.967 338.213 861.036 338.294 861.129 338.34Z" fill="#E0E0E0"/>
<path d="M117.349 363.983L119.666 365.366C119.965 365.55 119.942 365.988 119.62 366.149L117.153 367.383C117.073 367.417 117.015 367.486 116.969 367.555L115.528 369.906C115.344 370.206 114.894 370.195 114.745 369.883L113.569 367.452C113.535 367.371 113.477 367.313 113.396 367.267L111.08 365.884C110.78 365.7 110.803 365.262 111.126 365.101L113.592 363.867C113.673 363.833 113.73 363.764 113.777 363.695L115.217 361.344C115.402 361.044 115.851 361.055 116.001 361.367L117.176 363.798C117.211 363.879 117.269 363.937 117.349 363.983Z" fill="#E0E0E0"/>
<path d="M362.41 535.367L364.726 536.75C365.026 536.934 365.003 537.372 364.68 537.534L362.214 538.767C362.133 538.802 362.076 538.871 362.029 538.94L360.589 541.291C360.405 541.59 359.955 541.579 359.805 541.268L358.63 538.836C358.595 538.755 358.537 538.698 358.457 538.652L356.14 537.269C355.841 537.084 355.864 536.646 356.186 536.485L358.653 535.252C358.733 535.217 358.791 535.148 358.837 535.079L360.278 532.728C360.462 532.428 360.912 532.44 361.061 532.751L362.237 535.183C362.271 535.263 362.329 535.321 362.41 535.367Z" fill="#E0E0E0"/>
<path d="M804.254 478.988L806.571 480.371C806.871 480.555 806.847 480.993 806.525 481.155L804.059 482.388C803.978 482.422 803.92 482.492 803.874 482.561L802.433 484.912C802.249 485.211 801.8 485.2 801.65 484.889L800.474 482.457C800.44 482.376 800.382 482.319 800.301 482.273L797.985 480.89C797.685 480.705 797.708 480.267 798.031 480.106L800.497 478.873C800.578 478.838 800.636 478.769 800.682 478.7L802.122 476.349C802.307 476.049 802.756 476.061 802.906 476.372L804.082 478.804C804.116 478.884 804.174 478.942 804.254 478.988Z" fill="#E0E0E0"/>
<path d="M755.228 533.731L757.545 535.114C757.844 535.298 757.821 535.736 757.499 535.897L755.032 537.13C754.952 537.165 754.894 537.234 754.848 537.303L753.407 539.654C753.223 539.954 752.774 539.942 752.624 539.631L751.448 537.2C751.414 537.119 751.356 537.061 751.275 537.015L748.959 535.632C748.659 535.448 748.682 535.01 749.005 534.849L751.471 533.615C751.552 533.581 751.609 533.512 751.656 533.443L753.096 531.091C753.281 530.792 753.73 530.803 753.88 531.115L755.055 533.546C755.09 533.627 755.148 533.685 755.228 533.731Z" fill="#E0E0E0"/>
<path d="M804.796 181.143L807.308 182.641C807.631 182.837 807.608 183.321 807.262 183.494L804.588 184.83C804.508 184.877 804.439 184.934 804.381 185.015L802.825 187.562C802.618 187.896 802.145 187.873 801.972 187.539L800.693 184.911C800.659 184.83 800.589 184.761 800.509 184.715L797.996 183.217C797.674 183.021 797.697 182.537 798.042 182.364L800.716 181.027C800.797 180.981 800.866 180.924 800.924 180.843L802.479 178.296C802.687 177.962 803.159 177.985 803.332 178.319L804.612 180.947C804.646 181.027 804.715 181.096 804.796 181.143Z" fill="#E0E0E0"/>
</g>
<path d="M724.365 224.994L725.564 225.732C725.714 225.824 725.714 226.055 725.564 226.135L724.331 226.723C724.331 226.723 724.262 226.769 724.239 226.804L723.547 227.979C723.455 228.129 723.236 228.117 723.144 227.956L722.51 226.7C722.51 226.7 722.464 226.631 722.418 226.608L721.219 225.87C721.069 225.778 721.069 225.547 721.219 225.467L722.452 224.879C722.452 224.879 722.521 224.833 722.544 224.798L723.236 223.623C723.328 223.473 723.547 223.485 723.639 223.646L724.273 224.902C724.273 224.902 724.319 224.971 724.365 224.994Z" fill="#00CB6A"/>
<path d="M725.31 399.202L726.509 399.94C726.659 400.032 726.659 400.263 726.509 400.343L725.276 400.931C725.276 400.931 725.207 400.977 725.184 401.012L724.492 402.187C724.4 402.337 724.181 402.326 724.089 402.164L723.455 400.908C723.455 400.908 723.409 400.839 723.363 400.816L722.164 400.078C722.014 399.986 722.014 399.755 722.164 399.675L723.397 399.087C723.397 399.087 723.466 399.041 723.489 399.006L724.181 397.831C724.273 397.681 724.492 397.693 724.584 397.854L725.218 399.11C725.218 399.11 725.264 399.179 725.31 399.202Z" fill="#00CB6A"/>
<path d="M773.172 319.37L775.489 320.753C775.788 320.938 775.765 321.376 775.442 321.537L772.976 322.77C772.896 322.805 772.838 322.874 772.792 322.943L771.351 325.294C771.167 325.594 770.717 325.582 770.568 325.271L769.392 322.839C769.357 322.759 769.3 322.701 769.219 322.655L766.903 321.272C766.603 321.088 766.626 320.65 766.949 320.488L769.415 319.255C769.496 319.221 769.553 319.151 769.599 319.082L771.04 316.731C771.224 316.432 771.674 316.443 771.824 316.754L772.999 319.186C773.034 319.267 773.091 319.324 773.172 319.37Z" fill="#00CB6A"/>
<path d="M711.504 238.029L713.832 239.469C714.131 239.654 714.12 240.092 713.82 240.241L711.435 241.382C711.354 241.417 711.296 241.475 711.25 241.544L709.902 243.826C709.729 244.125 709.291 244.091 709.13 243.78L707.897 241.336C707.862 241.256 707.793 241.198 707.724 241.152L705.396 239.711C705.096 239.527 705.108 239.089 705.419 238.939L707.804 237.798C707.874 237.764 707.943 237.706 707.989 237.637L709.337 235.355C709.51 235.055 709.948 235.09 710.109 235.401L711.342 237.844C711.377 237.925 711.446 237.983 711.515 238.029H711.504Z" fill="#00CB6A"/>
<path d="M163.989 305.817L165.753 306.935C165.983 307.085 165.972 307.419 165.73 307.523L163.897 308.364C163.897 308.364 163.794 308.433 163.759 308.491L162.71 310.22C162.572 310.439 162.238 310.416 162.122 310.174L161.2 308.295C161.177 308.237 161.131 308.191 161.074 308.157L159.31 307.039C159.08 306.889 159.091 306.555 159.333 306.451L161.166 305.61C161.166 305.61 161.27 305.541 161.304 305.483L162.353 303.754C162.491 303.535 162.825 303.558 162.941 303.8L163.863 305.679C163.886 305.737 163.932 305.783 163.989 305.817Z" fill="#00CB6A"/>
<path d="M202.159 345.704L203.865 346.684C204.084 346.811 204.084 347.122 203.865 347.237L202.182 348.113C202.182 348.113 202.09 348.182 202.055 348.24L201.145 349.911C201.03 350.13 200.707 350.118 200.592 349.899L199.647 348.182C199.647 348.182 199.578 348.078 199.52 348.055L197.814 347.076C197.595 346.949 197.595 346.638 197.814 346.523L199.497 345.647C199.497 345.647 199.589 345.578 199.624 345.52L200.534 343.849C200.649 343.63 200.972 343.641 201.087 343.86L202.032 345.578C202.032 345.578 202.102 345.681 202.159 345.704Z" fill="#00CB6A"/>
<path d="M253.214 213.585L254.919 214.564C255.138 214.691 255.138 215.002 254.919 215.117L253.237 215.993C253.237 215.993 253.144 216.063 253.11 216.12L252.199 217.791C252.084 218.01 251.761 217.999 251.646 217.78L250.701 216.062C250.701 216.062 250.632 215.959 250.574 215.936L248.869 214.956C248.65 214.829 248.65 214.518 248.869 214.403L250.551 213.527C250.551 213.527 250.643 213.458 250.678 213.4L251.589 211.729C251.704 211.51 252.026 211.522 252.142 211.741L253.087 213.458C253.087 213.458 253.156 213.562 253.214 213.585Z" fill="#00CB6A"/>
<path d="M385.678 185.58L387.384 186.559C387.603 186.686 387.603 186.997 387.384 187.112L385.701 187.988C385.701 187.988 385.609 188.057 385.574 188.115L384.664 189.786C384.549 190.005 384.226 189.994 384.111 189.775L383.166 188.057C383.166 188.057 383.097 187.954 383.039 187.931L381.333 186.951C381.114 186.824 381.114 186.513 381.333 186.398L383.016 185.522C383.016 185.522 383.108 185.453 383.143 185.395L384.053 183.724C384.168 183.505 384.491 183.517 384.606 183.736L385.551 185.453C385.551 185.453 385.62 185.557 385.678 185.58Z" fill="#00CB6A"/>
<path d="M189.712 352.124L193.089 354.06C193.527 354.313 193.539 354.936 193.101 355.166L189.759 356.906C189.655 356.964 189.563 357.045 189.517 357.148L187.719 360.456C187.488 360.883 186.854 360.871 186.612 360.422L184.734 357.01C184.676 356.906 184.584 356.814 184.48 356.757L181.104 354.821C180.666 354.567 180.654 353.945 181.092 353.714L184.434 351.974C184.538 351.916 184.619 351.836 184.676 351.732L186.474 348.424C186.705 347.998 187.338 348.009 187.58 348.459L189.459 351.87C189.517 351.974 189.609 352.066 189.712 352.124Z" fill="#00CB6A"/>
<path d="M409.569 167.878L412.945 169.814C413.383 170.067 413.395 170.69 412.957 170.92L409.615 172.66C409.511 172.718 409.419 172.799 409.373 172.902L407.575 176.21C407.344 176.636 406.711 176.625 406.469 176.175L404.59 172.764C404.532 172.66 404.44 172.568 404.336 172.511L400.96 170.574C400.522 170.321 400.51 169.699 400.948 169.468L404.29 167.728C404.394 167.67 404.475 167.589 404.532 167.486L406.33 164.178C406.561 163.752 407.195 163.763 407.437 164.213L409.315 167.624C409.373 167.728 409.465 167.82 409.569 167.878Z" fill="#00CB6A"/>
<path d="M361.246 496.725L364.623 498.661C365.06 498.914 365.072 499.537 364.634 499.767L361.292 501.507C361.188 501.565 361.096 501.646 361.05 501.749L359.252 505.057C359.022 505.483 358.388 505.472 358.146 505.022L356.267 501.611C356.21 501.507 356.117 501.415 356.014 501.358L352.637 499.421C352.199 499.168 352.187 498.545 352.625 498.315L355.968 496.575C356.071 496.517 356.152 496.436 356.21 496.333L358.007 493.025C358.238 492.599 358.872 492.61 359.114 493.06L360.992 496.471C361.05 496.575 361.142 496.667 361.246 496.725Z" fill="#00CB6A"/>
<path d="M675.858 436.646L679.235 438.582C679.673 438.836 679.684 439.458 679.246 439.689L675.904 441.429C675.8 441.487 675.708 441.567 675.662 441.671L673.864 444.979C673.634 445.405 673 445.394 672.758 444.944L670.879 441.533C670.822 441.429 670.73 441.337 670.626 441.279L667.249 439.343C666.811 439.089 666.8 438.467 667.238 438.237L670.58 436.496C670.683 436.439 670.776 436.358 670.822 436.254L672.62 432.947C672.85 432.52 673.484 432.532 673.726 432.981L675.604 436.393C675.662 436.496 675.754 436.589 675.858 436.646Z" fill="#00CB6A"/>
<path d="M629.356 186.363L631.557 187.619C631.845 187.781 631.845 188.196 631.557 188.334L629.379 189.463C629.31 189.498 629.252 189.556 629.218 189.625L628.042 191.78C627.892 192.056 627.477 192.045 627.328 191.757L626.106 189.533C626.071 189.463 626.014 189.406 625.945 189.36L623.743 188.103C623.455 187.942 623.455 187.527 623.743 187.389L625.922 186.26C625.991 186.225 626.048 186.167 626.083 186.098L627.258 183.943C627.408 183.666 627.823 183.678 627.973 183.966L629.195 186.19C629.229 186.26 629.287 186.317 629.356 186.363Z" fill="#00CB6A"/>
<path d="M385.549 133.298C399.362 129.017 408.79 119.84 406.608 112.799C404.426 105.759 391.46 103.522 377.647 107.804C363.834 112.085 354.406 121.262 356.588 128.303C358.77 135.343 371.736 137.58 385.549 133.298Z" fill="#263238"/>
<path d="M378.36 111.833C390.899 107.776 402.965 109.078 406.918 114.599C406.884 113.884 406.757 113.17 406.503 112.49C403.979 105.552 390.784 103.547 377.023 108.007C363.274 112.467 354.17 121.698 356.694 128.624C356.913 129.235 357.224 129.811 357.616 130.353C357.339 123.761 365.959 115.855 378.36 111.844V111.833Z" fill="#455A64"/>
<path d="M731.253 510.651C751.178 492.045 757.642 466.587 745.691 453.79C733.741 440.992 707.901 445.701 687.976 464.307C668.052 482.912 661.588 508.37 673.539 521.168C685.489 533.965 711.329 529.257 731.253 510.651Z" fill="#263238"/>
<path d="M724.815 503.478C706.675 520.454 683.591 525.905 670.568 517.077C671.398 518.564 672.389 519.936 673.576 521.192C685.562 533.961 711.411 529.201 731.315 510.577C751.218 491.953 757.625 466.495 745.64 453.737C744.579 452.608 743.404 451.617 742.136 450.764C749.719 464.352 742.747 486.687 724.803 503.49L724.815 503.478Z" fill="#455A64"/>
<path d="M600.607 180.974C602.745 167.116 575.141 151.356 538.952 145.772C502.763 140.189 471.693 146.898 469.555 160.756C467.417 174.614 495.021 190.374 531.21 195.957C567.399 201.54 598.47 194.832 600.607 180.974Z" fill="#263238"/>
<path d="M539.486 153.656C572.366 159.257 597.121 173.064 598.504 185.775C599.392 184.588 600.025 183.321 600.383 181.984C604.001 168.362 577.702 152.342 541.63 146.188C505.558 140.045 473.381 146.096 469.751 159.718C469.428 160.928 469.347 162.15 469.485 163.383C477.599 152.481 506.952 148.101 539.486 153.645V153.656Z" fill="#455A64"/>
<path d="M532.272 168.696C540.535 173.018 546.09 181.177 553.742 186.49C558.813 190.005 564.956 192.437 568.379 197.577C568.045 194.569 565.982 192.068 563.93 189.855C558.145 183.609 551.645 178.019 544.603 173.225C540.985 170.759 536.974 168.442 532.606 168.465" fill="#455A64"/>
<g opacity="0.2">
<path d="M532.272 168.696C540.535 173.018 546.09 181.177 553.742 186.49C558.813 190.005 564.956 192.437 568.379 197.577C568.045 194.569 565.982 192.068 563.93 189.855C558.145 183.609 551.645 178.019 544.603 173.225C540.985 170.759 536.974 168.442 532.606 168.465" fill="black"/>
</g>
<path d="M571.594 57.1594C571.444 55.8225 571.202 54.3934 570.292 53.4023C569.047 52.0424 566.961 51.9041 565.117 52.0424C557.257 52.6302 547.254 64.2817 542.448 70.5281L543.255 105.206C564.783 93.9233 573.438 73.8126 571.594 57.1594Z" fill="#455A64"/>
<g opacity="0.2">
<path d="M571.594 57.1594C571.444 55.8225 571.202 54.3934 570.292 53.4023C569.047 52.0424 566.961 51.9041 565.117 52.0424C557.257 52.6302 547.254 64.2817 542.448 70.5281L543.255 105.206C564.783 93.9233 573.438 73.8126 571.594 57.1594Z" fill="black"/>
</g>
<path d="M537.55 128.371C541.665 126.999 545.79 125.743 549.882 125.075C553.973 124.406 558.099 122.689 562.132 121.744C567.365 120.511 572.263 118.148 577.287 116.224C582.312 114.299 587.671 112.778 593.018 113.366C589.065 111.372 584.571 110.646 580.145 110.657C575.72 110.657 571.329 111.36 566.961 112.052C560.899 113.02 554.722 114.022 549.225 116.765C543.727 119.508 538.68 122.332 537.539 128.371" fill="#455A64"/>
<g opacity="0.2">
<path d="M537.55 128.371C541.665 126.999 545.79 125.743 549.882 125.075C553.973 124.406 558.099 122.689 562.132 121.744C567.365 120.511 572.263 118.148 577.287 116.224C582.312 114.299 587.671 112.778 593.018 113.366C589.065 111.372 584.571 110.646 580.145 110.657C575.72 110.657 571.329 111.36 566.961 112.052C560.899 113.02 554.722 114.022 549.225 116.765C543.727 119.508 538.68 122.332 537.539 128.371" fill="black"/>
</g>
<path d="M509.626 129.558C504.302 121.767 493.653 119.485 484.491 117.215C496.672 127.714 509.257 140.99 518.661 154.025C520.782 147.686 516.345 139.4 509.614 129.546L509.626 129.558Z" fill="#455A64"/>
<g opacity="0.2">
<path d="M509.626 129.558C504.302 121.767 493.653 119.485 484.491 117.215C496.672 127.714 509.257 140.99 518.661 154.025C520.782 147.686 516.345 139.4 509.614 129.546L509.626 129.558Z" fill="black"/>
</g>
<path d="M516.495 177.95C505.535 174.781 496.499 162.265 485.701 158.727C498.171 158.139 513.763 165.619 516.495 177.95Z" fill="#455A64"/>
<g opacity="0.2">
<path d="M516.495 177.95C505.535 174.781 496.499 162.265 485.701 158.727C498.171 158.139 513.763 165.619 516.495 177.95Z" fill="black"/>
</g>
<path d="M527.409 152.653C533.54 152.158 539.705 153.725 545.329 156.238C550.953 158.75 556.105 162.161 561.233 165.573C561.706 161.597 559.389 157.886 557.177 154.555C555.506 152.054 553.835 149.53 551.726 147.375C549.617 145.231 547.024 143.457 544.085 142.8C540.547 141.993 536.72 142.903 533.701 144.92C530.682 146.949 528.734 149.277 527.397 152.653" fill="#455A64"/>
<path d="M517.324 193.036C517.324 193.036 522.764 155.869 528.791 135.378C534.819 114.887 540.662 91.5722 540.662 91.5722L543.036 92.2176C543.036 92.2176 530.313 132.692 525.357 157.851C520.402 182.986 522.05 194.281 522.05 194.281L517.324 193.048" fill="#455A64"/>
<path d="M569.381 54.5547C569.381 54.5547 569.301 54.693 569.128 54.9351C568.92 55.2117 568.667 55.5574 568.344 55.9723C567.653 56.8712 566.673 58.1735 565.475 59.81C563.077 63.0715 559.908 67.6814 556.75 72.9943C553.604 78.3072 551.069 83.2975 549.34 86.9623C548.476 88.7948 547.796 90.2815 547.346 91.3187C547.127 91.8027 546.943 92.1946 546.805 92.5057C546.678 92.7708 546.609 92.9091 546.586 92.9091C546.563 92.9091 546.62 92.7593 546.724 92.4712C546.851 92.1485 547 91.7451 547.196 91.2495C547.611 90.1893 548.245 88.6795 549.075 86.8356C550.734 83.1361 553.235 78.1113 556.393 72.7869C559.562 67.4625 562.778 62.8641 565.233 59.6487C566.454 58.0352 567.48 56.7444 568.206 55.8801C568.552 55.4767 568.828 55.1425 569.047 54.889C569.243 54.6585 569.347 54.5547 569.358 54.5547H569.381Z" fill="#455A64"/>
<path d="M536.674 110.427C529.587 102.578 527.558 91.7105 530.509 81.5688C532.572 74.4695 537.066 68.3614 541.757 62.6451C542.16 62.1496 542.621 61.6194 543.255 61.5042C544.131 61.3428 544.926 62.0228 545.514 62.6912C550.631 68.4997 552.106 76.7284 551.737 84.45C551.495 89.59 550.504 94.7646 548.211 99.3745C545.917 103.984 541.353 108.283 536.674 110.427Z" fill="#455A64"/>
<path d="M536.674 110.427C536.674 110.427 536.697 110.277 536.79 109.989C536.893 109.666 537.02 109.263 537.182 108.779C537.539 107.73 538.023 106.197 538.576 104.296C539.694 100.492 540.973 95.168 541.953 89.2097C542.921 83.2398 543.474 77.7886 543.866 73.8472C544.05 71.911 544.2 70.3321 544.315 69.1681C544.373 68.6495 544.419 68.2346 544.454 67.9004C544.488 67.6123 544.511 67.4625 544.523 67.4625C544.534 67.4625 544.534 67.6123 544.523 67.9119C544.511 68.2461 544.488 68.6726 544.465 69.1912C544.407 70.2976 544.304 71.8995 544.142 73.8817C543.831 77.8347 543.313 83.2975 542.345 89.2788C541.365 95.2601 540.04 100.596 538.841 104.388C538.242 106.278 537.723 107.799 537.32 108.836C537.135 109.32 536.974 109.712 536.859 110.023C536.744 110.288 536.686 110.438 536.674 110.427Z" fill="#263238"/>
<g opacity="0.2">
<path d="M527.409 152.653C533.54 152.158 539.705 153.725 545.329 156.238C550.953 158.75 556.105 162.161 561.233 165.573C561.706 161.597 559.389 157.886 557.177 154.555C555.506 152.054 553.835 149.53 551.726 147.375C549.617 145.231 547.024 143.457 544.085 142.8C540.547 141.993 536.72 142.903 533.701 144.92C530.682 146.949 528.734 149.277 527.397 152.653" fill="black"/>
</g>
<path d="M554.284 182.917C554.284 182.917 554.169 182.848 553.973 182.675C553.754 182.468 553.477 182.214 553.143 181.915C552.44 181.246 551.426 180.267 550.124 179.114C549.49 178.526 548.775 177.893 548.003 177.224C547.242 176.544 546.401 175.853 545.502 175.138C543.704 173.721 541.688 172.199 539.371 170.932C537.066 169.652 534.646 168.857 532.364 168.834C531.223 168.8 530.14 168.788 529.126 168.915C528.123 169.03 527.201 169.249 526.371 169.503C524.723 170.01 523.479 170.678 522.66 171.185C521.842 171.692 521.416 172.026 521.393 172.003C521.393 172.003 521.485 171.9 521.681 171.738C521.877 171.566 522.176 171.335 522.58 171.058C523.386 170.505 524.619 169.779 526.291 169.238C527.12 168.961 528.065 168.73 529.091 168.592C530.117 168.442 531.223 168.454 532.376 168.477C534.715 168.477 537.239 169.295 539.567 170.586C541.918 171.865 543.946 173.409 545.744 174.85C546.643 175.576 547.473 176.279 548.234 176.971C549.006 177.651 549.709 178.296 550.331 178.895C551.599 180.082 552.59 181.096 553.258 181.799C553.569 182.122 553.823 182.387 554.03 182.618C554.203 182.802 554.296 182.906 554.284 182.917Z" fill="#455A64"/>
<path d="M509.764 170.263C509.764 170.263 510.006 170.378 510.398 170.655C510.79 170.92 511.343 171.358 511.977 171.923C513.256 173.052 514.87 174.827 516.218 177.074C517.566 179.333 518.373 181.58 518.765 183.252C518.961 184.081 519.088 184.761 519.134 185.245C519.191 185.718 519.203 185.983 519.18 185.983C519.111 185.983 518.949 184.946 518.488 183.321C518.027 181.696 517.186 179.495 515.872 177.282C514.547 175.069 513.003 173.294 511.781 172.13C510.559 170.955 509.718 170.321 509.764 170.263Z" fill="#455A64"/>
<path d="M495.324 125.893C495.324 125.893 495.485 125.974 495.75 126.158C496.061 126.377 496.453 126.642 496.949 126.988C497.479 127.368 498.101 127.806 498.827 128.325C499.553 128.843 500.314 129.535 501.19 130.238C504.659 133.107 509.119 137.568 513.037 143.261C514.95 146.13 516.621 148.965 517.935 151.651C519.238 154.336 520.286 156.825 521.047 158.946C521.819 161.066 522.372 162.807 522.741 164.017C522.914 164.582 523.064 165.043 523.179 165.4C523.271 165.722 523.317 165.884 523.306 165.895C523.294 165.895 523.225 165.746 523.098 165.434C522.972 165.123 522.799 164.662 522.591 164.074C522.165 162.887 521.577 161.159 520.77 159.061C519.975 156.952 518.903 154.497 517.59 151.835C516.264 149.173 514.605 146.349 512.692 143.503C508.796 137.856 504.405 133.396 500.994 130.468C500.13 129.742 499.392 129.051 498.678 128.509C497.975 127.979 497.364 127.518 496.845 127.126C496.373 126.757 495.992 126.469 495.704 126.239C495.439 126.031 495.312 125.916 495.324 125.904V125.893Z" fill="#455A64"/>
<path d="M545.594 150.959C545.594 150.959 545.283 150.856 544.753 150.613C544.465 150.475 544.142 150.325 543.797 150.153C543.428 149.968 542.967 149.841 542.483 149.657C540.547 148.977 537.619 148.355 534.519 149.092C532.963 149.415 531.569 150.037 530.382 150.706C529.183 151.374 528.204 152.146 527.432 152.838C525.864 154.232 525.196 155.362 525.138 155.316C525.115 155.316 525.265 155.016 525.599 154.52C525.945 154.048 526.463 153.356 527.247 152.63C528.008 151.893 528.987 151.086 530.209 150.383C531.419 149.668 532.848 149.023 534.439 148.689C537.642 147.928 540.65 148.62 542.598 149.38C543.082 149.588 543.543 149.738 543.912 149.945C544.258 150.141 544.569 150.314 544.845 150.475C545.352 150.775 545.629 150.948 545.618 150.971L545.594 150.959Z" fill="#455A64"/>
<path d="M567.491 114.841C567.491 114.841 567.33 114.898 567.007 114.979C566.638 115.06 566.177 115.175 565.601 115.313C564.38 115.601 562.616 116.028 560.45 116.627C558.295 117.238 555.725 118.01 552.947 119.047C550.17 120.084 547.15 121.352 544.211 123.081C542.759 123.957 541.376 124.913 540.282 126.054C539.187 127.241 538.138 128.394 537.147 129.5C535.176 131.724 533.494 133.799 532.203 135.631C530.9 137.464 529.978 139.02 529.379 140.126C528.78 141.232 528.492 141.866 528.457 141.843C528.446 141.843 528.503 141.67 528.63 141.371C528.757 141.059 528.953 140.61 529.229 140.057C529.783 138.927 530.682 137.325 531.949 135.47C533.228 133.615 534.888 131.494 536.847 129.258C537.827 128.14 538.876 126.976 539.97 125.789C541.111 124.591 542.517 123.623 543.992 122.735C546.966 120.983 550.008 119.727 552.809 118.701C555.609 117.687 558.191 116.938 560.369 116.362C562.547 115.809 564.334 115.417 565.567 115.175C566.154 115.071 566.627 114.979 566.996 114.921C567.318 114.864 567.491 114.841 567.503 114.864L567.491 114.841Z" fill="#455A64"/>
<path d="M527.086 146.937C527.086 146.937 527.051 146.58 527.051 145.946C527.051 145.231 527.074 144.332 527.086 143.261C527.097 141.002 527.051 137.867 526.671 134.444C526.291 131.021 525.611 127.967 525.104 125.755C524.861 124.717 524.654 123.841 524.493 123.138C524.354 122.516 524.285 122.17 524.32 122.17C524.354 122.17 524.458 122.493 524.654 123.104C524.838 123.715 525.092 124.591 525.392 125.685C525.968 127.875 526.705 130.941 527.086 134.398C527.478 137.844 527.478 141.002 527.385 143.261C527.339 144.39 527.282 145.312 527.224 145.946C527.166 146.58 527.12 146.926 527.097 146.926L527.086 146.937Z" fill="#455A64"/>
<path d="M531.408 121.341C531.984 117.065 531.431 112.674 530.209 108.537C526.855 97.1848 518.2 87.5155 507.275 82.9517C513.095 97.058 518.926 111.153 524.746 125.259L526.636 132.566C529.564 129.396 530.843 125.628 531.408 121.352V121.341Z" fill="#455A64"/>
<g opacity="0.2">
<path d="M531.408 121.341C531.984 117.065 531.431 112.674 530.209 108.537C526.855 97.1848 518.2 87.5155 507.275 82.9517C513.095 97.058 518.926 111.153 524.746 125.259L526.636 132.566C529.564 129.396 530.843 125.628 531.408 121.352V121.341Z" fill="black"/>
</g>
<path d="M313.961 523.144C327.04 510.101 321.182 483.021 300.877 462.658C280.571 442.296 253.507 436.362 240.428 449.405C227.349 462.448 233.207 489.528 253.513 509.89C273.818 530.253 300.882 536.187 313.961 523.144Z" fill="#263238"/>
<path d="M260.831 502.844C242.3 484.313 235.754 460.168 244.616 446.131C243.083 447.053 241.666 448.159 240.375 449.439C227.329 462.519 233.241 489.614 253.571 509.944C273.9 530.285 300.949 536.162 313.995 523.082C315.147 521.918 316.15 520.65 317.014 519.29C302.954 527.761 279.156 521.18 260.831 502.844Z" fill="#455A64"/>
<path d="M281.564 477.859L297.987 460.376L299.946 462.323C299.946 462.323 286.059 478.458 285.828 482.307L281.564 477.847V477.859Z" fill="#455A64"/>
<path d="M254.804 467.786L232.319 501.358L266.386 535.436L300.246 509.598L254.804 467.786Z" fill="#00CB6A"/>
<path d="M266.605 535.24C263.528 538.26 253.49 533.005 244.178 523.508C234.866 514.012 229.818 503.87 232.895 500.85C235.973 497.831 246.011 503.086 255.322 512.583C264.634 522.079 269.682 532.221 266.605 535.24Z" fill="#00CB6A"/>
<path d="M301.26 512.168C298.448 514.726 284.215 512.548 268.68 498.258C253.144 483.967 244.339 473.214 252.268 464.836C258.78 457.955 271.78 463.188 287.315 477.478C302.85 491.769 310.503 503.766 301.26 512.168Z" fill="#00CB6A"/>
<path d="M266.386 535.436C266.386 535.436 266.559 535.263 266.928 534.952C267.331 534.63 267.873 534.192 268.564 533.627C270.04 532.451 272.137 530.78 274.788 528.671C280.193 524.419 287.834 518.414 296.915 511.28L296.881 511.315C297.584 510.531 297.584 509.287 297.365 508.157C297.146 507.005 296.708 505.864 296.189 504.757C295.14 502.533 293.769 500.367 292.225 498.258C289.136 494.039 285.402 489.983 281.288 486.122C276.805 481.927 272.091 478.216 267.274 475.254C264.865 473.791 262.422 472.488 259.944 471.566C258.711 471.117 257.455 470.736 256.21 470.587C254.988 470.437 253.651 470.517 252.868 471.313L252.891 471.278C246.771 480.267 241.654 487.793 238.036 493.106C236.238 495.711 234.82 497.773 233.829 499.214C233.357 499.894 232.976 500.424 232.7 500.816C232.446 501.173 232.296 501.358 232.285 501.346C232.273 501.335 232.388 501.139 232.63 500.77C232.896 500.367 233.241 499.825 233.691 499.122C234.659 497.658 236.042 495.572 237.782 492.933C241.355 487.597 246.414 480.025 252.453 470.99L252.464 470.955C252.948 470.437 253.617 470.172 254.262 470.056C254.919 469.941 255.588 469.953 256.245 470.033C257.558 470.183 258.838 470.575 260.117 471.025C262.652 471.958 265.119 473.26 267.55 474.736C272.414 477.709 277.15 481.443 281.668 485.661C285.805 489.545 289.562 493.613 292.674 497.889C294.218 500.021 295.613 502.211 296.673 504.492C297.203 505.633 297.641 506.809 297.872 508.031C298.091 509.218 298.137 510.624 297.238 511.649H297.226L297.203 511.684C288.076 518.749 280.389 524.695 274.949 528.902C272.264 530.965 270.12 532.59 268.634 533.731C267.919 534.261 267.366 534.687 266.951 534.987C266.571 535.263 266.363 535.413 266.352 535.402L266.386 535.436Z" fill="#263238"/>
<path d="M370.846 464.674V470.264H350.332V444.713H370.373V450.303H357.489V454.613H368.841V460.018H357.489V464.686H370.846V464.674Z" fill="#263238"/>
<path d="M386.035 463.464H382.094V470.252H374.868V444.702H386.554C393.527 444.702 397.906 448.321 397.906 454.152C397.906 457.909 396.085 460.687 392.904 462.22L398.413 470.252H390.668L386.035 463.464ZM386.105 450.395H382.094V457.875H386.105C389.101 457.875 390.599 456.492 390.599 454.152C390.599 451.813 389.101 450.395 386.105 450.395Z" fill="#263238"/>
<path d="M413.038 463.464H409.096V470.252H401.87V444.702H413.556C420.529 444.702 424.908 448.321 424.908 454.152C424.908 457.909 423.087 460.687 419.906 462.22L425.415 470.252H417.671L413.038 463.464ZM413.107 450.395H409.096V457.875H413.107C416.103 457.875 417.602 456.492 417.602 454.152C417.602 451.813 416.103 450.395 413.107 450.395Z" fill="#263238"/>
<path d="M427.57 457.483C427.57 449.819 433.598 444.195 441.769 444.195C449.94 444.195 455.967 449.819 455.967 457.483C455.967 465.147 449.94 470.771 441.769 470.771C433.598 470.771 427.57 465.147 427.57 457.483ZM448.672 457.483C448.672 453.069 445.641 450.176 441.769 450.176C437.896 450.176 434.865 453.057 434.865 457.483C434.865 461.908 437.896 464.778 441.769 464.778C445.641 464.778 448.672 461.897 448.672 457.483Z" fill="#263238"/>
<path d="M470.938 463.464H466.996V470.252H459.77V444.702H471.456C478.429 444.702 482.808 448.321 482.808 454.152C482.808 457.909 480.987 460.687 477.806 462.22L483.315 470.252H475.571L470.938 463.464ZM471.007 450.395H466.996V457.875H471.007C474.003 457.875 475.501 456.492 475.501 454.152C475.501 451.813 474.003 450.395 471.007 450.395Z" fill="#263238"/>
<path d="M531.062 454.152C531.062 459.961 526.683 463.568 519.71 463.568H515.262V470.252H508.036V444.702H519.722C526.694 444.702 531.073 448.321 531.073 454.152H531.062ZM523.767 454.152C523.767 451.778 522.269 450.395 519.272 450.395H515.262V457.875H519.272C522.269 457.875 523.767 456.492 523.767 454.152Z" fill="#263238"/>
<path d="M550.412 465.297H539.602L537.596 470.264H530.221L541.503 444.713H548.625L559.943 470.264H552.417L550.412 465.297ZM548.291 459.972L545.007 451.79L541.722 459.972H548.291Z" fill="#263238"/>
<path d="M578.739 456.93H585.124V467.521C582.162 469.641 578.117 470.771 574.395 470.771C566.258 470.771 560.3 465.262 560.3 457.483C560.3 449.704 566.247 444.195 574.533 444.195C579.316 444.195 583.188 445.831 585.7 448.862L581.102 453.023C579.35 451.087 577.345 450.176 574.902 450.176C570.522 450.176 567.595 453.057 567.595 457.483C567.595 461.908 570.511 464.778 574.821 464.778C576.169 464.778 577.449 464.524 578.728 463.937V456.93H578.739Z" fill="#263238"/>
<path d="M610.236 464.674V470.264H589.723V444.713H609.764V450.303H596.879V454.613H608.231V460.018H596.879V464.686H610.236V464.674Z" fill="#263238"/>
<path d="M443.313 413.343C434.854 404.043 430.636 390.904 430.636 373.917V262.3C430.636 245.312 434.865 232.174 443.313 222.874C451.761 213.573 463.954 208.917 479.881 208.917C495.808 208.917 507.989 213.573 516.449 222.874C524.896 232.174 529.126 245.312 529.126 262.3V373.917C529.126 390.904 524.896 404.043 516.449 413.343C507.989 422.644 495.808 427.3 479.881 427.3C463.954 427.3 451.761 422.655 443.313 413.343ZM496.684 376.038V260.179C496.684 246.223 491.083 239.25 479.881 239.25C468.679 239.25 463.078 246.223 463.078 260.179V376.038C463.078 389.994 468.679 396.966 479.881 396.966C491.083 396.966 496.684 389.994 496.684 376.038Z" fill="#00CB6A"/>
<path d="M369.613 385.741H307.691V355.408L366.674 211.948H402.066V355.408H417.405V385.741H402.066V424.257H369.624V385.741H369.613ZM369.613 355.408V272.603H369.025L337.182 355.408H369.624H369.613Z" fill="#00CB6A"/>
<g opacity="0.3">
<path d="M266.305 534.952C263.228 537.972 253.19 532.716 243.878 523.22C234.567 513.724 229.519 503.582 232.596 500.562C235.673 497.543 245.711 502.798 255.023 512.295C264.335 521.791 269.383 531.933 266.305 534.952Z" fill="black"/>
</g>
<path d="M601.558 385.741H539.625V355.408L598.608 211.948H634V355.408H649.34V385.741H634V424.257H601.558V385.741ZM601.558 355.408V272.603H600.971L569.116 355.408H601.558Z" fill="#00CB6A"/>
<g opacity="0.3">
<path d="M369.313 385.453H307.391V355.12L366.363 211.66H401.755V355.12H417.094V385.453H401.755V423.969H369.313V385.453ZM369.313 355.12V272.326H368.725L336.883 355.132H369.325H369.313V355.12Z" fill="black"/>
</g>
<g opacity="0.3">
<path d="M516.137 222.586C507.678 213.285 495.497 208.629 479.57 208.629C463.643 208.629 451.449 213.285 443.002 222.586C434.543 231.886 430.325 245.024 430.325 262.012V373.629C430.325 390.616 434.554 403.755 443.002 413.055C451.449 422.355 463.643 427.011 479.57 427.011C495.497 427.011 507.678 422.367 516.137 413.055C524.585 403.755 528.815 390.616 528.815 373.629V262.012C528.815 245.024 524.585 231.886 516.137 222.586ZM496.384 375.749C496.384 389.706 490.783 396.678 479.581 396.678C468.379 396.678 462.778 387.92 462.778 375.749V259.891C462.778 247.237 468.379 238.962 479.581 238.962C490.783 238.962 496.384 245.935 496.384 259.891V375.749Z" fill="black"/>
</g>
<g opacity="0.3">
<path d="M601.259 385.453H539.325V355.12L598.308 211.66H633.701V355.12H649.04V385.453H633.701V423.969H601.259V385.453ZM601.259 355.12V272.326H600.671L568.817 355.132H601.259V355.12Z" fill="black"/>
</g>
<path d="M354.85 385.741H292.927V355.408L351.911 211.948H387.303V355.408H402.642V385.741H387.303V424.257H354.861V385.741H354.85ZM354.85 355.408V272.603H354.262L322.419 355.408H354.861H354.85Z" fill="#00CB6A"/>
<path d="M428.55 413.343C420.091 404.043 415.873 390.904 415.873 373.917V262.3C415.873 245.312 420.102 232.174 428.55 222.874C436.997 213.573 449.19 208.917 465.118 208.917C481.045 208.917 493.226 213.573 501.685 222.874C510.133 232.174 514.363 245.312 514.363 262.3V373.917C514.363 390.904 510.133 404.043 501.685 413.343C493.226 422.644 481.045 427.3 465.118 427.3C449.19 427.3 436.997 422.655 428.55 413.343ZM481.921 376.038V260.179C481.921 246.223 476.32 239.25 465.118 239.25C453.916 239.25 448.315 246.223 448.315 260.179V376.038C448.315 389.994 453.916 396.966 465.118 396.966C476.32 396.966 481.921 389.994 481.921 376.038Z" fill="#00CB6A"/>
<path d="M586.795 385.741H524.862V355.408L583.845 211.948H619.237V355.408H634.576V385.741H619.237V424.257H586.795V385.741ZM586.795 355.408V272.603H586.207L554.353 355.408H586.795Z" fill="#00CB6A"/>
<path d="M704.718 390.27C719.935 387.199 724.47 346.058 714.848 298.378C705.225 250.699 685.089 214.536 669.872 217.607C654.654 220.678 650.119 261.82 659.741 309.5C669.364 357.179 689.5 393.341 704.718 390.27Z" fill="#263238"/>
<path d="M706.525 300.32C697.755 256.86 680.26 222.977 665.704 219.647C666.995 218.633 668.378 217.964 669.876 217.665C685.089 214.599 705.223 250.752 714.846 298.441C724.469 346.119 719.928 387.263 704.716 390.328C703.367 390.605 701.984 390.559 700.567 390.236C712.356 380.993 715.203 343.319 706.525 300.331V300.32Z" fill="#455A64"/>
<path d="M858.593 218.137L874.9 194.338C874.9 194.338 904.565 202.913 907.999 198.81L862.995 165.538L836.074 201.564L858.593 218.114V218.137Z" fill="#263238"/>
<path d="M859.538 186.006C858.847 185.119 858.962 183.701 859.815 182.975C860.667 182.249 862.12 182.353 862.823 183.229C863.537 184.093 863.433 185.81 862.511 186.444C861.578 187.078 859.884 186.847 859.411 185.833" fill="#E0E0E0"/>
<path d="M862.995 165.55L860.425 169.284L904.53 199.778C904.53 199.778 907.181 200.389 907.999 198.81L862.995 165.538V165.55Z" fill="#455A64"/>
<path d="M875.454 195.111C875.603 194.88 874.589 193.97 874.025 192.471C873.425 190.985 873.575 189.613 873.31 189.556C873.08 189.452 872.434 191.008 873.137 192.817C873.829 194.638 875.35 195.353 875.454 195.122V195.111Z" fill="white"/>
<path d="M881.619 196.655C881.827 196.482 881.147 195.399 881.089 193.924C880.985 192.448 881.539 191.296 881.32 191.146C881.135 190.962 880.04 192.137 880.144 193.97C880.236 195.814 881.458 196.862 881.619 196.655Z" fill="white"/>
<path d="M888.476 192.978C888.315 192.783 887.197 193.658 886.863 195.272C886.529 196.885 887.209 198.13 887.439 198.015C887.693 197.923 887.508 196.793 887.796 195.456C888.05 194.119 888.672 193.151 888.476 192.967V192.978Z" fill="white"/>
<path d="M871.132 200.124C871.189 199.859 869.956 199.409 868.781 198.407C867.582 197.427 866.925 196.298 866.672 196.401C866.43 196.471 866.764 197.98 868.17 199.144C869.564 200.32 871.109 200.377 871.132 200.124Z" fill="white"/>
<path d="M842.954 314.853L859.4 291.158C859.4 291.158 889.007 299.917 892.476 295.825L847.668 262.3L820.539 298.176L842.954 314.864V314.853Z" fill="#263238"/>
<path d="M844.095 282.722C843.404 281.834 843.53 280.417 844.395 279.691C845.248 278.965 846.7 279.08 847.403 279.956C848.106 280.832 848.002 282.537 847.068 283.171C846.135 283.793 844.441 283.563 843.968 282.549" fill="#E0E0E0"/>
<path d="M847.668 262.288L845.075 266.011L888.995 296.77C888.995 296.77 891.634 297.393 892.464 295.825L847.656 262.3L847.668 262.288Z" fill="#455A64"/>
<path d="M859.953 291.93C860.114 291.711 859.089 290.789 858.535 289.279C857.948 287.781 858.097 286.421 857.832 286.352C857.602 286.248 856.945 287.793 857.648 289.613C858.328 291.434 859.849 292.16 859.953 291.93Z" fill="white"/>
<path d="M866.107 293.497C866.315 293.324 865.646 292.241 865.6 290.754C865.508 289.279 866.073 288.138 865.842 287.977C865.658 287.793 864.551 288.957 864.655 290.801C864.736 292.644 865.957 293.693 866.119 293.486L866.107 293.497Z" fill="white"/>
<path d="M872.987 289.867C872.826 289.671 871.697 290.535 871.362 292.16C871.017 293.774 871.697 295.019 871.927 294.903C872.181 294.811 872.008 293.682 872.296 292.356C872.561 291.031 873.183 290.051 872.987 289.867Z" fill="white"/>
<path d="M855.608 296.909C855.666 296.644 854.433 296.194 853.257 295.18C852.059 294.189 851.413 293.059 851.16 293.163C850.918 293.232 851.252 294.742 852.646 295.906C854.041 297.082 855.585 297.162 855.608 296.909Z" fill="white"/>
<path d="M673.23 332.025C674.763 332.025 811.423 292.656 820.919 284.105C830.427 275.553 869.242 207.834 869.242 207.834L841.675 185.349L793.755 247.79L709.602 255.385C709.602 255.385 674.129 252.965 667.94 265.654L667.353 284.646L673.219 332.025H673.23Z" fill="#263238"/>
<path d="M673.23 332.025C675.247 332.082 736.293 400.009 755.424 403.87C774.544 407.731 784.167 394.546 790.701 386.64C799.022 376.568 855.677 304.273 855.677 304.273L827.257 280.763L764.943 347.064L727.477 295.468L694.816 292.403L674.959 309.989L673.242 332.025H673.23Z" fill="#263238"/>
<path d="M759.4 353.403C759.4 353.403 759.469 353.299 759.619 353.126C759.792 352.919 760.022 352.665 760.299 352.343C760.933 351.628 761.82 350.637 762.95 349.381C765.301 346.799 768.654 343.111 772.78 338.571C776.952 334.018 781.919 328.602 787.417 322.597C790.183 319.601 793.075 316.455 796.083 313.193C799.137 309.978 802.295 306.636 805.522 303.224C813.324 295.007 820.688 287.262 827.061 280.555L827.246 280.371L827.442 280.532C835.855 287.551 842.931 293.451 847.933 297.635C850.376 299.698 852.324 301.334 853.684 302.487C854.317 303.028 854.813 303.466 855.193 303.789C855.527 304.089 855.7 304.25 855.689 304.261C855.689 304.273 855.493 304.135 855.136 303.858C854.755 303.558 854.237 303.144 853.58 302.625C852.197 301.495 850.215 299.905 847.725 297.888C842.689 293.751 835.567 287.919 827.085 280.97L827.465 280.947C821.115 287.666 813.774 295.422 805.983 303.662C802.744 307.073 799.587 310.404 796.533 313.619C793.513 316.869 790.609 320.004 787.831 323.001C782.288 328.97 777.298 334.353 773.103 338.882C768.919 343.365 765.52 346.995 763.134 349.554C761.97 350.775 761.06 351.743 760.403 352.435C760.103 352.734 759.873 352.976 759.677 353.172C759.515 353.334 759.423 353.414 759.412 353.414L759.4 353.403Z" fill="#455A64"/>
<path d="M758.616 306.762C758.616 306.762 757.994 307.027 756.842 307.396C755.585 307.788 753.949 308.307 751.955 308.929C747.829 310.208 742.113 311.925 735.844 313.954C734.276 314.472 732.755 314.991 731.28 315.487C729.805 315.971 728.387 316.432 727.12 317.031C724.573 318.218 722.855 320.246 721.968 322.159C721.069 324.084 720.746 325.824 720.504 327C720.285 328.187 720.182 328.844 720.136 328.844C720.113 328.844 720.113 328.671 720.136 328.36C720.147 328.037 720.193 327.576 720.274 326.965C720.447 325.767 720.7 324.003 721.576 321.987C722.441 319.981 724.215 317.803 726.866 316.535C728.18 315.89 729.609 315.417 731.084 314.933C732.559 314.438 734.08 313.919 735.648 313.389C741.929 311.349 747.668 309.701 751.817 308.526C753.903 307.938 755.585 307.488 756.761 307.177C757.936 306.878 758.582 306.728 758.593 306.774L758.616 306.762Z" fill="#455A64"/>
<path d="M654.825 273.571C654.825 273.571 654.906 273.375 655.102 273.029C655.217 272.833 655.344 272.626 655.482 272.384C655.667 272.142 655.874 271.865 656.093 271.566C657.038 270.356 658.628 268.777 660.887 267.221C665.37 264.052 672.4 261.044 680.422 258.819C688.454 256.607 695.945 255.5 701.397 255.143C704.116 254.959 706.329 254.97 707.862 255.062C708.622 255.108 709.21 255.166 709.614 255.224C710.017 255.281 710.224 255.316 710.213 255.339C710.213 255.397 709.372 255.304 707.85 255.304C706.329 255.293 704.139 255.339 701.431 255.581C696.026 256.042 688.581 257.206 680.583 259.407C672.608 261.608 665.612 264.536 661.129 267.578C658.87 269.076 657.269 270.575 656.277 271.727C656.047 272.004 655.828 272.269 655.632 272.499C655.471 272.718 655.332 272.926 655.206 273.099C654.975 273.421 654.837 273.594 654.825 273.583V273.571Z" fill="#455A64"/>
<path d="M711.4 369.906C711.4 369.906 711.227 369.814 710.927 369.595C710.582 369.33 710.155 368.996 709.637 368.593C708.45 367.659 706.859 366.403 704.923 364.882C700.947 361.747 695.288 357.644 689.008 353.138C682.715 348.62 677.287 344.172 673.541 340.76C671.674 339.055 670.176 337.649 669.174 336.646C668.713 336.185 668.332 335.805 668.021 335.493C667.768 335.228 667.629 335.079 667.652 335.056C667.664 335.044 667.825 335.159 668.113 335.401C668.447 335.689 668.851 336.047 669.346 336.473C670.395 337.418 671.939 338.778 673.841 340.438C677.656 343.768 683.107 348.148 689.388 352.654C695.669 357.16 701.304 361.332 705.223 364.559C707.182 366.161 708.761 367.475 709.821 368.42C710.305 368.858 710.708 369.215 711.043 369.503C711.319 369.757 711.458 369.895 711.446 369.918L711.4 369.906Z" fill="#455A64"/>
<path d="M289.103 322.113C307.041 274.186 309.183 230.692 293.887 224.967C278.591 219.242 251.649 253.453 233.711 301.381C215.773 349.308 213.631 392.801 228.927 398.526C244.223 404.252 271.165 370.04 289.103 322.113Z" fill="#263238"/>
<path d="M242.046 304.734C258.4 261.055 282.233 228.763 297.906 227.726C296.742 226.458 295.405 225.524 293.896 224.971C278.602 219.243 251.658 253.46 233.714 301.38C215.77 349.312 213.626 392.806 228.931 398.534C230.291 399.041 231.732 399.225 233.253 399.133C222.535 387.562 225.865 347.963 242.046 304.745V304.734Z" fill="#455A64"/>
<path d="M81.9107 196.862C81.9107 196.862 77.831 186.455 76.0677 182.687C74.3044 178.918 74.6848 167.417 75.8603 165.331C77.0358 163.245 75.9525 161.654 75.9525 161.654C75.9525 161.654 69.9366 150.441 72.7486 147.675L74.3851 147.49C74.3851 147.49 80.4125 159.522 80.6084 159.764C80.8159 160.006 82.1297 160.064 82.5446 157.966C82.9595 155.869 81.9453 149.645 81.9453 149.645C81.9453 149.645 79.6634 145.681 79.5021 142.961C79.4444 141.935 80.3549 140.495 81.1731 139.872L81.9914 139.25C81.9914 139.25 87.0507 148.401 87.3273 150.637C87.6039 152.872 88.5374 157.724 88.5374 157.724L89.2404 157.16L89.298 145.934C89.298 145.934 86.7626 136.438 88.6872 134.364C90.6119 132.289 90.7962 134.029 90.7962 134.029C90.7962 134.029 94.4035 143.722 94.6801 146.188C94.7953 147.191 94.899 156.825 94.899 156.825L96.4549 156.18L96.9965 147.168C96.9965 147.168 95.1756 138.224 97.907 137.314L100.097 137.245C100.097 137.245 102.171 149.012 102.402 149.565C102.632 150.118 100.811 163.544 100.811 163.544L101.364 164.812L102.943 162.668C102.943 162.668 103.646 160.605 106.792 158.888C109.927 157.16 111.31 158.416 111.31 158.416L107.369 165.423C107.369 165.423 103.785 173.617 102.309 175.495C100.834 177.374 95.8325 181.811 95.0373 182.237C94.2421 182.675 95.1295 186.306 95.1295 186.306L96.3742 188.841L81.9107 196.851V196.862Z" fill="#FFBF9D"/>
<path d="M97.688 169.433C97.688 169.549 96.4203 169.526 94.4611 169.998C92.5249 170.459 89.8858 171.542 87.65 173.605C85.4142 175.68 84.1235 178.215 83.5127 180.105C82.8903 182.018 82.8212 183.286 82.6944 183.275C82.6253 183.275 82.5215 181.984 83.0517 179.967C83.5588 177.973 84.838 175.276 87.189 173.098C90.4275 170.517 93.0666 169.526 94.3574 169.526C96.3972 169.157 97.688 169.364 97.6765 169.433H97.688Z" fill="#FF9A6C"/>
<path d="M98.2296 156.572C98.2296 156.802 93.493 156.03 87.9266 157.494C82.3371 158.888 78.557 161.839 78.4418 161.643C78.3957 161.585 79.26 160.767 80.885 159.753C82.4984 158.738 84.9186 157.574 87.7537 156.837C90.6003 156.111 93.274 155.972 95.1756 156.088C97.0887 156.203 98.2411 156.503 98.2296 156.572Z" fill="#FF9A6C"/>
<path d="M81.9107 196.862C82.3025 197.807 102.148 257.874 110.722 264.328C119.308 270.782 175.975 287.435 175.975 287.435L184.884 257.24L129.45 239.85L95.0373 182.26L81.9107 196.874V196.862Z" fill="#FFBF9D"/>
<path d="M188.549 248.943L145.746 241.636L136.595 278.861L186.117 290.19L188.549 248.943Z" fill="#00CB6A"/>
<path d="M215.436 251.905L212.923 186.237C212.831 169.883 203.231 156.307 186.889 156.848L185.379 156.987C170.213 158.381 158.642 171.185 158.815 186.421C158.976 200.596 159.333 216.258 160.117 223.796C161.742 239.4 177.6 240.403 177.6 240.403C177.635 240.403 182.452 259.834 182.452 259.834L187.984 261.666L215.424 251.893L215.436 251.905Z" fill="#FFBF9D"/>
<path d="M177.6 240.403C177.6 240.403 187.5 240.08 197.388 232.52C197.388 232.52 194.507 245.093 178.787 245.128L177.588 240.414L177.6 240.403Z" fill="#FF9A6C"/>
<path d="M166.698 199.144C166.767 200.331 167.816 201.242 169.06 201.196C170.293 201.15 171.238 200.158 171.181 198.971C171.112 197.784 170.063 196.874 168.83 196.92C167.597 196.966 166.64 197.969 166.709 199.144H166.698Z" fill="#263238"/>
<path d="M162.768 193.025C163.067 193.29 164.646 191.884 167.043 191.665C169.441 191.411 171.319 192.494 171.55 192.172C171.665 192.033 171.331 191.526 170.512 191.042C169.706 190.558 168.369 190.132 166.871 190.282C165.372 190.432 164.162 191.088 163.494 191.722C162.802 192.356 162.606 192.909 162.756 193.025H162.768Z" fill="#263238"/>
<path d="M185.679 198.718C185.978 198.983 187.557 197.577 189.966 197.358C192.363 197.104 194.242 198.188 194.472 197.865C194.587 197.727 194.265 197.22 193.435 196.736C192.628 196.252 191.291 195.825 189.793 195.975C188.295 196.125 187.085 196.793 186.416 197.416C185.736 198.049 185.529 198.603 185.679 198.718Z" fill="#263238"/>
<path d="M179.444 210.657C179.444 210.519 177.923 210.404 175.479 210.312C174.857 210.312 174.269 210.231 174.131 209.828C173.947 209.401 174.131 208.71 174.373 207.972C174.811 206.439 175.272 204.826 175.756 203.132C177.658 196.252 178.983 190.616 178.706 190.547C178.43 190.478 176.655 195.986 174.753 202.867C174.292 204.561 173.866 206.174 173.451 207.719C173.278 208.433 172.955 209.263 173.359 210.15C173.566 210.588 174.05 210.888 174.454 210.957C174.857 211.038 175.203 211.015 175.514 211.003C177.957 210.911 179.467 210.784 179.467 210.646L179.444 210.657Z" fill="#263238"/>
<path d="M183.674 192.391C184.054 192.978 186.324 192.114 189.159 191.791C191.983 191.411 194.391 191.688 194.622 191.031C194.714 190.72 194.196 190.213 193.147 189.809C192.11 189.406 190.554 189.152 188.86 189.36C187.166 189.567 185.713 190.189 184.803 190.835C183.892 191.48 183.501 192.103 183.674 192.379V192.391Z" fill="#263238"/>
<path d="M162.203 186.928C162.745 187.435 164.658 186.721 167.009 186.513C169.348 186.237 171.388 186.548 171.803 185.937C171.988 185.649 171.63 185.119 170.72 184.669C169.821 184.22 168.357 183.909 166.744 184.07C165.13 184.243 163.77 184.842 162.987 185.464C162.203 186.087 161.973 186.674 162.215 186.928H162.203Z" fill="#263238"/>
<path d="M212.704 197.934C212.958 197.796 223.146 193.774 223.791 204.48C224.436 215.198 213.546 213.631 213.511 213.32C213.476 213.008 212.716 197.923 212.716 197.923L212.704 197.934Z" fill="#FFBF9D"/>
<path d="M216.542 209.067C216.542 209.067 216.738 209.182 217.061 209.309C217.372 209.436 217.913 209.493 218.455 209.251C219.561 208.767 220.403 206.912 220.345 204.976C220.31 203.996 220.057 203.086 219.665 202.337C219.296 201.576 218.755 201.057 218.178 200.988C217.602 200.896 217.222 201.253 217.107 201.564C216.98 201.876 217.061 202.083 217.003 202.106C216.98 202.129 216.761 201.945 216.819 201.495C216.853 201.276 216.957 201.023 217.199 200.804C217.441 200.585 217.81 200.447 218.213 200.47C219.043 200.47 219.826 201.196 220.264 202.014C220.737 202.832 221.06 203.869 221.094 204.964C221.152 207.131 220.172 209.217 218.651 209.759C217.913 210.001 217.268 209.816 216.922 209.574C216.576 209.332 216.507 209.09 216.542 209.067Z" fill="#FF9A6C"/>
<path d="M187.085 211.775C186.716 211.775 186.82 214.23 184.791 216.074C182.763 217.93 180.135 217.768 180.124 218.114C180.101 218.275 180.735 218.563 181.841 218.54C182.924 218.529 184.503 218.102 185.736 216.973C186.97 215.844 187.465 214.391 187.5 213.377C187.546 212.34 187.246 211.741 187.073 211.764L187.085 211.775Z" fill="#263238"/>
<path d="M136.468 173.421C136.595 172.776 137.022 172.234 137.563 171.865C138.75 171.07 140.168 171.07 141.528 170.966C144.928 170.701 148.247 169.618 151.174 167.901C150.079 167.428 149.053 166.84 148.166 166.057C146.322 164.432 145.17 161.85 145.815 159.488C145.942 159.05 146.161 158.577 146.587 158.416C147.267 158.162 147.924 158.808 148.443 159.315C150.148 160.997 151.67 161.677 154.032 161.285C155.496 161.043 156.913 160.628 158.031 159.833C158.077 159.787 158.112 159.73 158.158 159.672C158.677 159.061 159.195 158.485 159.691 157.92C163.471 153.679 166.767 150.694 170.247 149.035C175.353 146.603 184.042 145.208 189.586 146.303C195.129 147.398 200.304 151.524 201.398 157.056C204.291 154.278 208.89 154.013 212.704 155.281L212.796 155.235C217.037 156.457 219.665 160.698 221.152 164.847C221.232 165.077 221.302 165.308 221.382 165.538C222.927 167.67 224.943 169.456 227.306 170.643C227.721 170.851 228.193 171.104 228.274 171.565C228.355 172.015 227.986 172.418 227.629 172.718C226.684 173.49 225.554 174.032 224.356 174.32C224.794 175.299 225.301 176.256 225.911 177.155C226.43 177.916 227.041 178.838 226.684 179.69C226.407 180.347 225.612 180.658 224.897 180.601C224.183 180.543 223.537 180.186 222.915 179.852C223.445 180.935 223.975 182.007 224.505 183.09C223.019 183.447 221.463 183.424 219.976 183.067C219.342 187.078 219.135 194.442 218.282 197.185C215.447 197.415 214.733 197.139 213.327 197.704C211.506 198.43 212.416 201.68 209.95 200.896C208.694 200.493 206.515 195.952 206.031 194.73C202.793 186.594 201.329 177.743 201.779 168.995C199.946 167.267 197.78 165.907 195.44 164.985L195.636 165.146C191.165 163.902 186.117 162.703 182.083 165.019C178.96 166.817 177.266 170.275 175.03 173.098C170.777 178.446 165.776 181.465 158.976 182.18C158.653 186.951 158.953 194.696 158.988 199.121L154.677 190.524V190.558C154.343 190.063 154.055 189.556 153.779 189.049L153.686 188.899V188.876C153.248 188.057 152.834 187.239 152.292 186.444C152.28 186.455 152.269 186.467 152.257 186.49C149.998 188.749 146.276 185.741 148.005 183.056C148.35 182.526 148.765 182.041 149.249 181.638C148.224 182.733 146.622 183.321 145.158 182.975C143.694 182.618 142.496 181.246 142.53 179.737C142.554 178.711 143.222 177.754 144.121 177.293C142.196 177.558 140.202 177.259 138.451 176.406C137.31 175.841 136.157 174.873 136.445 173.467L136.468 173.421Z" fill="#263238"/>
<path d="M196.604 159.153C196.604 159.153 197.284 159.522 198.264 160.49C199.232 161.458 200.361 163.164 200.995 165.55C201.318 166.737 201.548 168.062 201.641 169.514C201.733 170.955 201.721 172.51 201.71 174.147C201.71 175.784 201.698 177.512 201.906 179.299C202.009 180.186 202.182 181.096 202.424 181.984C202.678 182.86 202.966 183.816 203.692 184.542C204.268 185.13 205.179 185.361 205.951 185.153C206.723 184.969 207.391 184.508 207.875 183.908C208.809 182.664 208.97 181.166 209.143 179.829L208.82 179.886C209.431 181.039 210.054 182.168 210.929 183.056C211.794 183.943 212.946 184.496 214.087 184.531C214.652 184.542 215.217 184.416 215.689 184.15C216.173 183.874 216.507 183.447 216.726 182.998C216.934 182.549 217.026 182.053 216.968 181.592C216.911 181.131 216.703 180.693 216.392 180.405L216.231 180.566C217.522 181.869 218.847 182.525 219.757 182.883C220.218 183.056 220.576 183.159 220.829 183.229C221.071 183.286 221.209 183.309 221.209 183.298C221.209 183.298 221.083 183.24 220.852 183.171C220.61 183.09 220.253 182.975 219.815 182.779C218.928 182.399 217.648 181.707 216.404 180.416L216.242 180.578C216.807 181.108 216.899 182.088 216.496 182.906C216.288 183.309 215.989 183.69 215.562 183.92C215.147 184.162 214.629 184.266 214.11 184.254C213.061 184.22 211.99 183.701 211.183 182.848C210.353 182.007 209.754 180.901 209.143 179.748L208.89 179.264L208.82 179.817C208.648 181.143 208.475 182.595 207.622 183.713C207.195 184.254 206.585 184.669 205.905 184.83C205.225 185.003 204.487 184.83 203.98 184.312C203.346 183.689 203.047 182.779 202.805 181.915C202.563 181.039 202.401 180.151 202.286 179.276C202.067 177.524 202.067 175.807 202.067 174.17C202.067 172.534 202.067 170.978 201.963 169.514C201.859 168.05 201.606 166.702 201.26 165.503C200.592 163.095 199.405 161.366 198.379 160.421C197.353 159.464 196.616 159.176 196.616 159.176L196.604 159.153Z" fill="#455A64"/>
<path d="M149.042 177.409C149.042 177.409 149.088 177.443 149.169 177.512C149.284 177.581 149.411 177.674 149.584 177.777C149.768 177.893 149.987 178.031 150.275 178.158C150.552 178.296 150.874 178.469 151.255 178.596C152.753 179.195 155.127 179.737 158.043 179.391C160.924 179.045 164.335 177.812 167.285 175.311C170.282 172.868 172.817 169.376 174.834 165.434C175.86 163.464 176.666 161.458 177.577 159.603C178.487 157.736 179.502 156.007 180.781 154.613C182.049 153.207 183.547 152.135 185.126 151.593C185.909 151.305 186.716 151.201 187.488 151.167C188.26 151.167 189.009 151.27 189.701 151.455C191.084 151.824 192.213 152.504 193.089 153.218C193.965 153.944 194.576 154.728 195.002 155.408C195.809 156.802 195.901 157.724 195.959 157.713C195.959 157.713 195.959 157.655 195.936 157.551C195.913 157.425 195.878 157.263 195.832 157.079C195.728 156.664 195.509 156.065 195.129 155.35C194.714 154.647 194.115 153.829 193.227 153.08C192.34 152.331 191.188 151.616 189.77 151.224C189.067 151.028 188.295 150.913 187.488 150.913C186.693 150.936 185.84 151.04 185.022 151.328C183.374 151.881 181.818 152.976 180.527 154.405C179.213 155.834 178.165 157.586 177.243 159.465C176.321 161.343 175.503 163.337 174.488 165.285C172.495 169.191 169.982 172.637 167.055 175.069C164.151 177.547 160.832 178.78 157.997 179.149C155.138 179.529 152.787 179.034 151.289 178.48C149.779 177.916 149.042 177.374 149.019 177.42L149.042 177.409Z" fill="#455A64"/>
<path d="M147.186 170.609C147.186 170.609 147.382 170.759 147.774 170.966C148.154 171.185 148.742 171.439 149.491 171.704C150.229 171.98 151.151 172.222 152.177 172.407C153.214 172.58 154.366 172.672 155.576 172.649C156.786 172.603 157.927 172.441 158.953 172.211C159.967 171.969 160.866 171.669 161.592 171.346C162.318 171.035 162.895 170.736 163.263 170.505C163.644 170.275 163.84 170.136 163.828 170.113C163.793 170.056 162.952 170.551 161.5 171.104C160.774 171.393 159.887 171.658 158.884 171.877C157.881 172.084 156.752 172.234 155.565 172.28C154.378 172.303 153.248 172.222 152.234 172.073C151.22 171.911 150.31 171.692 149.572 171.462C148.085 170.989 147.221 170.551 147.186 170.609Z" fill="#455A64"/>
<path d="M264.093 372.085L265.176 366.898C252.13 361.124 240.283 352.942 230.256 342.8L172.575 284.439L174.074 267.693L202.47 241.106C202.47 241.106 216.012 232.128 233.564 239.077C253.502 246.983 261.938 258.174 285.217 285.303C294.437 296.056 289.263 287.078 298.275 292.898C298.275 292.898 292.616 323.634 281.921 342.685C274.085 356.63 264.093 372.085 264.093 372.085Z" fill="#00CB6A"/>
<path d="M178.545 290.639C178.476 290.685 177.635 289.567 176.413 287.677C175.191 285.776 173.624 283.079 172.114 279.99C170.605 276.89 169.441 273.997 168.692 271.877C167.942 269.745 167.585 268.396 167.654 268.373C167.746 268.339 168.242 269.641 169.095 271.716C169.948 273.79 171.169 276.637 172.668 279.714C174.166 282.791 175.664 285.499 176.782 287.447C177.9 289.394 178.614 290.593 178.534 290.639H178.545Z" fill="#263238"/>
<g opacity="0.3">
<path d="M278.983 329.166C278.983 329.166 280.677 319.693 277.058 310.277C273.439 300.862 264.093 287.608 264.093 287.608L260.877 290.639L278.983 329.166Z" fill="black"/>
</g>
<path d="M229.069 387.124L249.848 332.785L238.9 319.105L218.248 293.728C218.248 293.728 203.508 286.075 196.443 274.781C194.242 271.255 193.815 265.296 196.12 260.94C202.574 248.735 215.931 243.906 229.242 247.548L240.951 255.224C240.951 255.224 279.593 315.786 278.971 327.461C278.533 335.701 245.941 391.504 245.941 391.504L229.069 387.113V387.124Z" fill="#FFBF9D"/>
<path d="M230.533 384.808L207.472 386.79C205.04 386.998 202.851 388.334 201.548 390.386L191.234 406.67C191.234 406.67 195.348 408.572 198.068 405.529C200.868 402.395 205.19 396.091 205.19 396.091L203.231 414.231C203.231 414.231 208.544 414.749 209.443 410.704C210.468 406.059 210.549 399.974 210.549 399.974L215.735 417.215C215.735 417.215 221.371 415.36 219.561 408.837C218.42 404.723 217.187 400.481 217.187 400.481L223.514 411.707C223.514 411.707 228.113 411.303 226.914 407.131C226.119 404.354 223.676 398.845 223.676 398.845C223.676 398.845 236.952 399.848 239.591 398.891C243.187 397.589 246.863 389.959 246.863 389.959L230.521 384.785L230.533 384.808Z" fill="#FFBF9D"/>
<path d="M210.088 244.39C210.088 244.39 190.738 254.797 192.859 269.341C194.979 283.886 211.621 291.469 211.621 291.469L233.253 314.657L267.251 285.119L236.318 246.684" fill="#00CB6A"/>
<path d="M236.307 246.684C236.307 246.684 236.364 246.73 236.468 246.845C236.583 246.983 236.733 247.145 236.906 247.364C237.309 247.848 237.874 248.528 238.6 249.404C240.087 251.225 242.242 253.852 244.962 257.183C250.425 263.925 258.181 273.502 267.446 284.946L267.608 285.153L267.412 285.326C257.489 293.958 245.918 304.031 233.61 314.737L233.437 314.887L233.207 315.083L232.999 314.864C225.37 306.682 218.063 298.833 211.379 291.665L211.471 291.734C207.357 289.683 203.75 287.09 200.719 284.151C197.722 281.2 195.279 277.881 193.919 274.309C193.631 273.398 193.262 272.534 193.066 271.635C192.893 270.724 192.651 269.849 192.559 268.961C192.352 267.175 192.467 265.423 192.813 263.798C193.516 260.525 195.095 257.805 196.731 255.592C200.096 251.178 203.68 248.528 206.112 246.799C207.345 245.946 208.336 245.347 209.005 244.955C209.328 244.782 209.581 244.632 209.777 244.529C209.95 244.436 210.042 244.402 210.054 244.402C210.054 244.402 209.973 244.46 209.8 244.575C209.604 244.69 209.362 244.851 209.051 245.047C208.394 245.462 207.426 246.085 206.216 246.96C203.83 248.724 200.292 251.409 197.008 255.811C195.406 258.013 193.884 260.698 193.216 263.89C192.882 265.481 192.79 267.186 192.997 268.915C193.089 269.779 193.343 270.644 193.516 271.531C193.712 272.419 194.08 273.26 194.368 274.147C197.169 281.108 203.692 287.193 211.702 291.227L211.759 291.262L211.794 291.296C218.478 298.465 225.808 306.301 233.437 314.472L233.011 314.449L233.184 314.3C245.503 303.616 257.097 293.555 267.032 284.946L266.997 285.326C257.8 273.825 250.102 264.201 244.685 257.425C242.011 254.06 239.902 251.397 238.45 249.553C237.747 248.655 237.206 247.963 236.825 247.468C236.653 247.249 236.526 247.064 236.411 246.926C236.318 246.799 236.272 246.741 236.284 246.73L236.307 246.684Z" fill="#263238"/>
<path d="M212.508 389.268C212.508 389.372 211.748 389.349 210.618 389.671C209.5 389.982 207.991 390.72 206.85 392.08C205.72 393.44 205.259 395.065 205.167 396.217C205.052 397.393 205.213 398.13 205.11 398.142C205.052 398.165 204.741 397.439 204.741 396.194C204.741 394.961 205.156 393.186 206.389 391.688C207.633 390.201 209.304 389.475 210.515 389.256C211.748 389.026 212.508 389.199 212.497 389.268H212.508Z" fill="#FF9A6C"/>
<path d="M214.629 391.976C214.663 392.057 214.168 392.391 213.396 392.956C213.015 393.244 212.554 393.578 212.082 393.993C211.632 394.419 211.125 394.88 210.918 395.503C210.48 396.817 210.572 398.177 210.641 399.11C210.734 400.055 210.883 400.631 210.803 400.666C210.734 400.7 210.434 400.147 210.226 399.179C210.042 398.223 209.858 396.817 210.353 395.295C210.63 394.5 211.241 393.982 211.725 393.567C212.243 393.152 212.739 392.841 213.154 392.599C214.007 392.115 214.583 391.907 214.617 391.976H214.629Z" fill="#FF9A6C"/>
<path d="M224.275 394.143C224.298 394.224 223.584 394.431 222.42 394.569C221.302 394.731 219.585 394.823 218.536 396.16C217.522 397.485 217.314 399.156 217.533 400.228C217.752 401.323 218.121 401.968 218.029 402.014C217.983 402.049 217.475 401.484 217.118 400.32C216.784 399.156 216.899 397.312 218.063 395.791C218.651 395.03 219.527 394.581 220.299 394.397C221.083 394.201 221.797 394.178 222.373 394.155C223.537 394.131 224.24 394.074 224.264 394.155L224.275 394.143Z" fill="#FF9A6C"/>
<path d="M242.196 389.256C242.138 389.406 239.372 388.484 236.007 387.194C234.325 386.548 232.815 385.949 231.731 385.488C230.648 385.027 229.98 384.716 230.003 384.681C230.06 384.439 232.861 385.35 236.226 386.629C239.591 387.908 242.265 389.095 242.196 389.256Z" fill="#FF9A6C"/>
<g opacity="0.3">
<path d="M294.011 286.64C294.011 286.64 289.873 322.839 281.76 337.591C273.658 352.343 266.985 364.974 266.985 364.974L266.409 367.763C266.409 367.763 282.866 341.798 285.851 335.344C288.825 328.878 294.253 315.901 297.238 303.293C300.211 290.754 300.684 288.576 300.591 288.576C300.591 288.576 295.878 285.13 294.011 286.64Z" fill="black"/>
</g>
</svg>
