<svg width="1410" height="851" viewBox="0 0 1410 851" fill="none" xmlns="http://www.w3.org/2000/svg">
<rect width="1404" height="835" fill="#f5fff7"/>
<g style="mix-blend-mode:multiply">
<path d="M1347.82 74.0553H1171.96V257.369H1347.82V74.0553Z" fill="#E0E0E0"/>
<path d="M1335.91 74.0554H1160.06V257.369H1335.91V74.0554Z" fill="#FAFAFA"/>
<path d="M1335.96 257.424H1160V74H1335.96V257.424ZM1160.11 257.313H1335.85V74.1105H1160.11V257.313Z" fill="#E0E0E0"/>
<path d="M1312.27 98.7015H1183.69V232.736H1312.27V98.7015Z" fill="white"/>
<path d="M1183.69 233.62C1183.79 233.745 1182.57 235.14 1180.52 237.309C1178.46 239.478 1175.57 242.407 1172.34 245.598C1169.1 248.789 1166.13 251.622 1163.94 253.639C1161.74 255.656 1160.33 256.844 1160.22 256.733C1160.11 256.623 1161.33 255.227 1163.37 253.058C1165.43 250.889 1168.32 247.947 1171.56 244.755C1174.81 241.564 1177.78 238.718 1179.98 236.701C1182.17 234.684 1183.57 233.496 1183.68 233.62H1183.69Z" fill="#E0E0E0"/>
<path d="M1312.27 233.289C1312.39 233.192 1313.79 234.408 1315.96 236.466C1318.13 238.525 1321.06 241.412 1324.25 244.645C1327.44 247.878 1330.27 250.848 1332.29 253.044C1334.31 255.241 1335.49 256.65 1335.38 256.761C1335.27 256.871 1333.88 255.656 1331.71 253.611C1329.54 251.552 1326.6 248.665 1323.41 245.419C1320.21 242.172 1317.37 239.202 1315.35 237.005C1313.33 234.808 1312.15 233.413 1312.27 233.303V233.289Z" fill="#E0E0E0"/>
<path d="M1311.91 99.0607C1311.81 98.9364 1313.03 97.541 1315.09 95.3721C1317.15 93.2031 1320.02 90.2743 1323.27 87.083C1326.5 83.8917 1329.47 81.0595 1331.67 79.0425C1333.86 77.0255 1335.27 75.8374 1335.38 75.9479C1335.49 76.0585 1334.28 77.4538 1332.23 79.6228C1330.18 81.7917 1327.29 84.7344 1324.04 87.9257C1320.79 91.117 1317.82 93.9629 1315.63 95.9799C1313.43 97.9969 1312.04 99.185 1311.93 99.0607H1311.91Z" fill="#E0E0E0"/>
<path d="M1183.33 99.3923C1183.21 99.489 1181.81 98.2733 1179.65 96.2148C1177.48 94.1563 1174.55 91.2828 1171.36 88.0362C1168.16 84.8035 1165.33 81.8332 1163.32 79.6366C1161.3 77.44 1160.11 76.0308 1160.22 75.9203C1160.33 75.8098 1161.73 77.0255 1163.9 79.0702C1166.06 81.1286 1169.01 84.016 1172.2 87.2626C1175.39 90.5091 1178.24 93.4794 1180.25 95.676C1182.27 97.8726 1183.46 99.2679 1183.33 99.3785V99.3923Z" fill="#E0E0E0"/>
<path d="M1311.91 232.736C1311.91 232.736 1311.9 232.501 1311.88 232.087C1311.88 231.631 1311.87 231.009 1311.86 230.222C1311.86 228.536 1311.83 226.119 1311.8 222.983C1311.77 216.628 1311.73 207.399 1311.68 195.67C1311.62 172.198 1311.52 138.752 1311.43 98.7153L1311.93 99.2127C1274.5 99.2403 1230.54 99.2541 1183.71 99.2817L1184.27 98.7153C1184.25 147.911 1184.22 193.929 1184.19 232.75L1183.71 232.266C1222.13 232.363 1254.12 232.46 1276.54 232.515C1287.75 232.57 1296.56 232.612 1302.63 232.64C1305.63 232.667 1307.92 232.681 1309.52 232.695C1310.28 232.695 1310.86 232.722 1311.3 232.722C1311.7 232.722 1311.91 232.736 1311.93 232.75C1311.93 232.75 1311.75 232.764 1311.36 232.778C1310.93 232.778 1310.36 232.791 1309.63 232.805C1308.04 232.805 1305.78 232.833 1302.82 232.861C1296.78 232.888 1288.01 232.93 1276.85 232.985C1254.34 233.04 1222.25 233.137 1183.69 233.234H1183.21V232.75C1183.18 193.943 1183.15 147.911 1183.13 98.7153V98.1489H1183.69C1230.51 98.1765 1274.47 98.2042 1311.91 98.218H1312.41V98.7153C1312.3 138.89 1312.22 172.433 1312.16 195.988C1312.1 207.676 1312.06 216.863 1312.04 223.19C1312.01 226.285 1311.99 228.675 1311.98 230.332C1311.98 231.106 1311.95 231.7 1311.95 232.156C1311.95 232.557 1311.94 232.764 1311.93 232.75L1311.91 232.736Z" fill="#E0E0E0"/>
<path d="M1274.6 139.594C1260.75 128.943 1242.23 126.608 1226.16 133.502C1226.16 133.502 1223.76 165.346 1223.92 179.216C1224.09 193.087 1237.96 195.242 1237.96 195.242L1237.9 210.259L1271.61 211.53L1276.64 141.183L1274.58 139.594H1274.6Z" fill="#F5F5F5"/>
<path d="M1237.95 195.048C1237.95 195.048 1246.7 195.767 1256.03 189.909C1256.03 189.909 1251.76 199.884 1237.92 198.64L1237.95 195.048Z" fill="#E0E0E0"/>
<path d="M1274.94 155.551C1275.18 155.454 1284.47 152.733 1284.17 162.21C1283.87 171.687 1274.42 169.435 1274.4 169.159C1274.4 168.883 1274.94 155.551 1274.94 155.551Z" fill="#F5F5F5"/>
<path d="M1277.42 165.65C1277.42 165.65 1277.58 165.774 1277.86 165.912C1278.12 166.05 1278.59 166.147 1279.09 165.981C1280.1 165.65 1280.99 164.089 1281.09 162.376C1281.15 161.519 1280.99 160.69 1280.7 159.999C1280.44 159.295 1280 158.797 1279.5 158.687C1279 158.549 1278.63 158.839 1278.51 159.115C1278.37 159.378 1278.42 159.571 1278.37 159.585C1278.34 159.613 1278.17 159.419 1278.26 159.032C1278.3 158.839 1278.42 158.632 1278.64 158.452C1278.88 158.272 1279.21 158.19 1279.57 158.245C1280.3 158.314 1280.94 159.019 1281.24 159.765C1281.59 160.524 1281.79 161.464 1281.73 162.431C1281.6 164.337 1280.56 166.092 1279.18 166.451C1278.51 166.603 1277.97 166.382 1277.68 166.147C1277.39 165.898 1277.35 165.691 1277.39 165.677L1277.42 165.65Z" fill="#E0E0E0"/>
<path d="M1230.71 154.846C1230.66 155.896 1231.52 156.78 1232.61 156.85C1233.7 156.905 1234.62 156.103 1234.66 155.067C1234.7 154.031 1233.84 153.119 1232.75 153.064C1231.66 153.009 1230.75 153.81 1230.71 154.846Z" fill="#E0E0E0"/>
<path d="M1228.79 153.023C1229.03 153.285 1230.53 152.166 1232.67 152.18C1234.8 152.152 1236.36 153.258 1236.59 152.995C1236.7 152.885 1236.45 152.415 1235.78 151.917C1235.1 151.42 1233.97 150.95 1232.64 150.95C1231.31 150.95 1230.19 151.448 1229.56 151.945C1228.91 152.442 1228.69 152.912 1228.8 153.037L1228.79 153.023Z" fill="#E0E0E0"/>
<path d="M1251.66 155.744C1251.62 156.794 1252.48 157.678 1253.57 157.747C1254.66 157.803 1255.57 157.001 1255.61 155.965C1255.66 154.915 1254.8 154.031 1253.71 153.962C1252.62 153.907 1251.71 154.708 1251.66 155.744Z" fill="#E0E0E0"/>
<path d="M1249.74 153.41C1249.99 153.672 1251.5 152.553 1253.63 152.567C1255.75 152.539 1257.31 153.644 1257.55 153.382C1257.66 153.271 1257.41 152.802 1256.73 152.304C1256.06 151.807 1254.92 151.337 1253.6 151.337C1252.27 151.337 1251.15 151.835 1250.52 152.332C1249.87 152.829 1249.65 153.299 1249.76 153.423L1249.74 153.41Z" fill="#E0E0E0"/>
<path d="M1242.01 169.214C1242.01 169.09 1240.69 168.869 1238.54 168.592C1238 168.537 1237.48 168.427 1237.39 168.054C1237.27 167.667 1237.49 167.073 1237.75 166.437C1238.26 165.125 1238.8 163.743 1239.35 162.293C1241.59 156.394 1243.21 151.544 1242.97 151.448C1242.74 151.365 1240.74 156.076 1238.5 161.975C1237.96 163.426 1237.45 164.821 1236.95 166.147C1236.74 166.769 1236.38 167.473 1236.67 168.288C1236.83 168.689 1237.23 168.993 1237.57 169.09C1237.92 169.2 1238.22 169.2 1238.5 169.214C1240.65 169.325 1241.99 169.338 1242.01 169.214Z" fill="#E0E0E0"/>
<path d="M1249.19 145.065C1249.4 145.645 1251.53 145.369 1254.03 145.673C1256.53 145.922 1258.54 146.654 1258.88 146.143C1259.03 145.894 1258.67 145.355 1257.85 144.789C1257.05 144.222 1255.75 143.697 1254.26 143.532C1252.76 143.366 1251.39 143.601 1250.48 143.974C1249.56 144.347 1249.09 144.803 1249.19 145.079V145.065Z" fill="#E0E0E0"/>
<path d="M1229.57 146.847C1229.95 147.331 1231.41 146.834 1233.18 146.806C1234.95 146.723 1236.44 147.137 1236.78 146.626C1236.94 146.378 1236.7 145.894 1236.05 145.438C1235.4 144.982 1234.33 144.609 1233.12 144.651C1231.91 144.692 1230.86 145.134 1230.25 145.618C1229.63 146.115 1229.42 146.612 1229.59 146.847H1229.57Z" fill="#E0E0E0"/>
<path d="M1219.41 124.757C1219.25 123.044 1219.9 121.193 1221.3 120.184C1222.69 119.176 1224.86 119.245 1226.01 120.529C1225.36 118.209 1227.25 115.542 1229.66 115.39C1231.92 115.252 1233.84 116.951 1236.04 117.559C1238.17 118.139 1240.46 117.642 1242.52 116.813C1244.58 115.984 1246.48 114.851 1248.57 114.092C1252.91 112.503 1257.85 112.71 1262.05 114.63C1266.25 116.551 1269.62 120.184 1271.25 124.508C1274.29 123.555 1277.73 125.102 1279.6 127.672C1281.46 130.242 1281.95 133.612 1281.57 136.776C1281.32 138.904 1280.7 140.976 1279.98 142.993C1279.98 143.173 1280 143.352 1280 143.532C1279.86 151.158 1278.99 160.11 1275.74 160.165C1270.08 160.248 1271.42 149.569 1271.42 149.569C1264.46 146.875 1267.05 136.458 1265.31 134.87C1263.57 133.295 1259.94 129.606 1245.36 137.052C1239.71 139.94 1232.18 139.857 1228.08 138.917C1227.96 138.89 1227.83 138.876 1227.72 138.848C1227.69 138.848 1227.67 138.848 1227.64 138.835C1227.6 138.835 1227.56 138.793 1227.51 138.779C1226.2 138.434 1224.95 137.937 1223.78 137.191C1222.47 136.362 1221.27 135.229 1220.7 133.764C1220.14 132.3 1220.36 130.49 1221.51 129.426C1220.43 128.073 1219.58 126.484 1219.43 124.757H1219.41Z" fill="#E0E0E0"/>
<path d="M1242.02 179.534C1242.05 179.396 1243.04 179.797 1244.47 179.23C1245.14 178.954 1245.9 178.415 1246.3 177.558C1246.72 176.716 1246.8 175.569 1246.36 174.561C1246.26 174.312 1246.11 174.077 1245.96 173.87C1245.78 173.676 1245.81 173.69 1245.61 173.718C1245.43 173.773 1245.13 173.911 1244.88 174.008C1244.63 174.118 1244.37 174.215 1244.13 174.312C1243.15 174.713 1242.27 175.058 1241.52 175.334C1240.03 175.887 1239.08 176.191 1239.04 176.08C1239 175.984 1239.87 175.5 1241.3 174.795C1242.02 174.45 1242.89 174.049 1243.84 173.607C1244.09 173.497 1244.33 173.386 1244.59 173.276C1244.85 173.165 1245.06 173.041 1245.42 172.93C1245.6 172.875 1245.85 172.847 1246.1 172.944C1246.33 173.041 1246.48 173.207 1246.61 173.345C1246.81 173.621 1246.99 173.897 1247.12 174.215C1247.66 175.472 1247.53 176.854 1246.98 177.876C1246.43 178.926 1245.47 179.506 1244.66 179.755C1243.83 180.004 1243.13 179.948 1242.68 179.838C1242.23 179.714 1242.02 179.562 1242.03 179.52L1242.02 179.534Z" fill="#E0E0E0"/>
</g>
<path d="M143.802 806.525C143.152 806.525 142.558 806.083 142.379 805.433L93.252 618.224C93.0447 617.437 93.5144 616.635 94.3019 616.428C95.0894 616.221 95.8907 616.691 96.0979 617.478L145.211 804.674C145.418 805.461 144.948 806.262 144.161 806.47C144.036 806.497 143.912 806.525 143.788 806.525H143.802Z" fill="#263238"/>
<path d="M130.829 811.153C130.18 811.153 129.586 810.711 129.406 810.061L80.2795 622.852C80.0723 622.065 80.542 621.263 81.3294 621.056C82.1169 620.849 82.9182 621.319 83.1254 622.106L132.238 809.302C132.446 810.089 131.976 810.89 131.188 811.098C131.064 811.125 130.94 811.153 130.815 811.153H130.829Z" fill="#263238"/>
<path d="M86.1786 614.729L83.8162 612.974L209.935 443.241L324.987 465.29L324.421 468.178L211.192 446.488L86.1786 614.729Z" fill="#263238"/>
<path d="M218.768 448.619L94.6979 616.167L97.0627 617.919L221.133 450.37L218.768 448.619Z" fill="#263238"/>
<path d="M206.799 451.033C208.277 455.399 213.016 457.733 217.381 456.241C221.747 454.763 224.082 450.025 222.589 445.659C221.111 441.293 216.373 438.959 212.007 440.451C207.641 441.929 205.307 446.667 206.799 451.033Z" fill="#00CB6A"/>
<path d="M319.544 455.799L317.486 443.808L326.355 443.145L327.004 454.722L319.544 455.799Z" fill="#E8505B"/>
<path d="M319.544 455.799L317.486 443.808L326.355 443.145L327.004 454.722L319.544 455.799Z" fill="#04994E"/>
<path d="M312.278 454.97L304.071 499.455L283.349 558.239L400.142 541.398L353.005 490.088L333.332 451.931L312.278 454.97Z" fill="#00CB6A"/>
<path d="M78 619.702C78 624.814 82.1445 628.972 87.27 628.972C92.3954 628.972 96.5399 624.828 96.5399 619.702C96.5399 614.577 92.3954 610.432 87.27 610.432C82.1445 610.432 78 614.577 78 619.702Z" fill="#00CB6A"/>
<path d="M106.818 843.978C106.791 843.356 106.722 842.748 106.722 842.126C106.722 821.652 123.314 805.06 143.788 805.06C164.262 805.06 180.854 821.652 180.854 842.126C180.854 842.748 180.785 843.356 180.757 843.978H106.818Z" fill="#00CB6A"/>
<path d="M290.134 796.619C276.623 788.786 269.398 770.564 268.859 755.657C268.32 740.751 274.523 725.181 286.763 716.63C299.639 707.622 317.986 707.788 331.234 716.257C344.469 724.739 352.22 740.737 351.625 756.445C351.031 772.153 342.466 787.156 329.797 796.467" fill="#00CB6A"/>
<path d="M311.7 798.056C311.617 798.056 311.534 796.84 311.451 794.644C311.382 792.198 311.299 789.076 311.188 785.346C310.981 777.499 310.677 766.654 310.152 754.677C309.627 742.699 308.978 731.868 308.495 724.034C308.273 720.304 308.08 717.182 307.942 714.751C307.831 712.554 307.804 711.338 307.887 711.325C307.97 711.325 308.163 712.526 308.425 714.709C308.688 716.892 309.019 720.056 309.379 723.965C310.097 731.799 310.885 742.63 311.41 754.621C311.934 766.613 312.1 777.472 312.073 785.332C312.073 789.27 312.017 792.447 311.934 794.644C311.865 796.84 311.783 798.056 311.686 798.056H311.7Z" fill="white"/>
<path d="M272.851 752.273C272.824 752.618 270.669 752.729 268.044 752.508C265.419 752.286 263.305 751.831 263.333 751.485C263.36 751.14 265.516 751.029 268.14 751.25C270.765 751.471 272.879 751.927 272.851 752.273Z" fill="#263238"/>
<path d="M273.597 738.886C273.459 739.204 271.594 738.692 269.453 737.739C267.298 736.786 265.668 735.75 265.82 735.432C265.958 735.114 267.823 735.625 269.964 736.579C272.119 737.532 273.749 738.568 273.597 738.886Z" fill="#263238"/>
<path d="M280.477 728.953C280.298 729.243 278.212 728.262 276.029 726.452C273.846 724.656 272.492 722.791 272.741 722.556C273.003 722.308 274.716 723.744 276.83 725.485C278.93 727.226 280.657 728.663 280.464 728.953H280.477Z" fill="#263238"/>
<path d="M287.399 719.586C287.081 719.724 286.072 718.163 285.161 716.091C284.249 714.018 283.765 712.222 284.083 712.084C284.401 711.946 285.409 713.507 286.321 715.58C287.233 717.652 287.716 719.448 287.399 719.586Z" fill="#263238"/>
<path d="M298.271 712.941C297.954 713.093 296.876 711.421 296.171 709.114C295.453 706.807 295.398 704.818 295.729 704.762C296.075 704.707 296.683 706.517 297.373 708.727C298.064 710.952 298.589 712.789 298.271 712.927V712.941Z" fill="#263238"/>
<path d="M316.397 705.439C316.728 705.55 316.521 706.973 315.941 708.617C315.361 710.261 314.628 711.49 314.297 711.366C313.965 711.255 314.173 709.833 314.753 708.189C315.333 706.545 316.065 705.315 316.397 705.439Z" fill="#263238"/>
<path d="M329.839 711.214C330.074 711.477 329.217 712.651 327.919 713.853C326.62 715.055 325.377 715.828 325.128 715.566C324.893 715.303 325.75 714.129 327.048 712.927C328.347 711.725 329.59 710.952 329.839 711.214Z" fill="#263238"/>
<path d="M341.679 718.854C341.872 719.144 340.822 720.194 339.33 721.216C337.838 722.225 336.47 722.819 336.277 722.529C336.083 722.239 337.133 721.189 338.625 720.166C340.117 719.158 341.485 718.564 341.679 718.854Z" fill="#263238"/>
<path d="M350.078 730.251C350.216 730.569 348.559 731.591 346.376 732.517C344.193 733.443 342.314 733.94 342.176 733.622C342.038 733.304 343.696 732.282 345.878 731.356C348.061 730.431 349.94 729.934 350.078 730.251Z" fill="#263238"/>
<path d="M353.394 742.685C353.435 743.03 351.75 743.528 349.622 743.79C347.495 744.053 345.74 743.984 345.699 743.638C345.657 743.293 347.343 742.795 349.47 742.533C351.598 742.271 353.352 742.34 353.394 742.685Z" fill="#263238"/>
<path d="M355.107 757.992C354.969 758.31 353.173 757.84 351.1 756.942C349.028 756.044 347.453 755.05 347.591 754.732C347.73 754.414 349.526 754.884 351.612 755.782C353.684 756.68 355.259 757.674 355.121 757.992H355.107Z" fill="#263238"/>
<path d="M353.601 771.117C353.49 771.434 351.225 770.895 348.849 769.334C346.472 767.787 345.063 765.922 345.312 765.687C345.574 765.439 347.301 766.806 349.539 768.271C351.777 769.749 353.725 770.771 353.601 771.117Z" fill="#263238"/>
<path d="M346.762 783.067C346.555 783.343 344.745 782.279 343.005 780.4C341.264 778.535 340.338 776.656 340.629 776.463C340.919 776.256 342.273 777.748 343.944 779.544C345.602 781.34 346.997 782.79 346.762 783.067Z" fill="#263238"/>
<path d="M281.845 784.476C282.011 784.78 280.104 786.092 277.604 787.391C275.103 788.689 272.934 789.505 272.782 789.187C272.617 788.883 274.523 787.57 277.024 786.272C279.524 784.973 281.693 784.158 281.845 784.476Z" fill="#263238"/>
<path d="M275.918 773.659C276.057 773.976 274.537 774.985 272.52 775.897C270.503 776.808 268.735 777.306 268.596 776.974C268.458 776.656 269.978 775.648 271.995 774.736C274.012 773.824 275.78 773.341 275.918 773.659Z" fill="#263238"/>
<path d="M271.553 764.085C271.608 764.43 269.729 764.983 267.367 765.314C265.004 765.646 263.056 765.646 263.001 765.3C262.946 764.955 264.825 764.402 267.187 764.071C269.55 763.739 271.498 763.739 271.553 764.085Z" fill="#263238"/>
<path d="M285.851 758.807C285.962 759.139 284.125 759.982 281.693 760.258C279.248 760.534 277.286 760.12 277.314 759.774C277.341 759.415 279.248 759.263 281.555 759.001C283.862 758.752 285.755 758.462 285.865 758.807H285.851Z" fill="#263238"/>
<path d="M297.733 746.995C297.829 747.327 296.379 748.059 294.417 748.252C292.455 748.446 290.88 748.004 290.922 747.672C290.949 747.313 292.469 747.175 294.293 746.995C296.116 746.816 297.636 746.664 297.733 746.995Z" fill="#263238"/>
<path d="M299.998 737.518C299.888 737.85 298.313 737.601 296.475 736.965C294.652 736.33 293.256 735.556 293.367 735.225C293.477 734.893 295.052 735.142 296.89 735.777C298.713 736.413 300.109 737.186 299.998 737.518Z" fill="#263238"/>
<path d="M304.35 727.944C304.101 728.193 303.024 727.474 302.25 726.134C301.476 724.794 301.394 723.496 301.725 723.413C302.07 723.316 302.651 724.311 303.341 725.499C304.018 726.687 304.599 727.696 304.336 727.944H304.35Z" fill="#263238"/>
<path d="M299.1 767.138C299.183 767.483 297.815 768.105 296.061 768.533C295.039 768.782 294.113 768.906 293.505 768.906L293.256 768.174C293.712 768.091 294.002 768.105 294.072 768.243C294.127 768.381 293.947 768.602 293.574 768.892L293.325 768.16C293.864 767.884 294.748 767.566 295.771 767.317C297.539 766.889 299.031 766.806 299.114 767.152L299.1 767.138Z" fill="#263238"/>
<path d="M301.559 783.923C301.684 784.255 299.943 785.236 297.677 786.134C295.398 787.032 293.464 787.488 293.325 787.156C293.201 786.824 294.942 785.844 297.208 784.946C299.487 784.048 301.421 783.592 301.559 783.923Z" fill="#263238"/>
<path d="M288.131 776.477C288.242 776.808 287.081 777.499 285.534 778.024C283.986 778.549 282.646 778.701 282.536 778.37C282.425 778.038 283.586 777.347 285.133 776.822C286.68 776.297 288.02 776.145 288.131 776.477Z" fill="#263238"/>
<path d="M289.167 742.312C289.084 742.644 287.067 742.45 284.732 741.621C282.398 740.792 280.698 739.687 280.85 739.369C281.002 739.052 282.881 739.632 285.161 740.433C287.426 741.234 289.25 741.98 289.167 742.326V742.312Z" fill="#263238"/>
<path d="M321.633 738.596C321.826 738.886 320.693 739.977 319.091 741.027C317.502 742.077 316.051 742.699 315.858 742.409C315.665 742.119 316.797 741.027 318.4 739.977C319.989 738.927 321.439 738.306 321.633 738.596Z" fill="#263238"/>
<path d="M323.401 755.45C323.47 755.796 322.282 756.334 320.735 756.652C319.187 756.97 317.875 756.956 317.806 756.611C317.737 756.265 318.925 755.726 320.472 755.409C322.02 755.091 323.332 755.105 323.401 755.45Z" fill="#263238"/>
<path d="M325.446 774.405C325.294 774.722 323.581 774.239 321.605 773.327C319.63 772.415 318.151 771.407 318.289 771.103C318.441 770.785 320.155 771.269 322.13 772.18C324.106 773.092 325.584 774.101 325.446 774.405Z" fill="#263238"/>
<path d="M321.108 792.848C320.831 793.069 319.726 792.157 318.607 790.803C317.502 789.449 316.825 788.178 317.088 787.957C317.364 787.736 318.469 788.648 319.588 790.002C320.693 791.356 321.37 792.627 321.108 792.848Z" fill="#263238"/>
<path d="M320.224 726.19C320.431 726.466 319.699 727.392 318.428 728.027C317.17 728.663 315.982 728.704 315.886 728.372C315.789 728.027 316.715 727.474 317.861 726.894C319.008 726.328 320.003 725.913 320.224 726.19Z" fill="#263238"/>
<path d="M336.125 743.182C336.235 743.5 334.771 744.315 332.754 744.591C330.737 744.882 329.107 744.495 329.134 744.149C329.148 743.79 330.709 743.597 332.588 743.334C334.467 743.086 336.014 742.837 336.139 743.182H336.125Z" fill="#263238"/>
<path d="M332.961 727.93C333.113 728.234 331.649 729.284 329.576 729.934C327.504 730.597 325.708 730.597 325.653 730.265C325.598 729.92 327.214 729.367 329.19 728.732C331.165 728.11 332.795 727.613 332.961 727.93Z" fill="#263238"/>
<path d="M339.606 766.82C339.606 767.165 337.106 767.386 334.094 766.82C331.082 766.281 328.817 765.19 328.927 764.872C329.038 764.527 331.4 765.052 334.315 765.577C337.216 766.115 339.62 766.461 339.606 766.806V766.82Z" fill="#263238"/>
<path d="M333.693 788.993C333.486 789.27 331.649 788.178 329.811 786.327C327.974 784.476 326.896 782.638 327.173 782.431C327.449 782.21 328.927 783.661 330.709 785.443C332.478 787.225 333.914 788.717 333.693 788.993Z" fill="#263238"/>
<path d="M307.693 709.888C307.887 710.164 302.651 712.278 296.6 718.66C290.549 724.891 284.318 735.916 282.771 749.22C282.038 755.837 282.66 762.233 283.6 767.939C284.58 773.659 285.893 778.729 287.109 782.97C288.324 787.197 289.443 790.582 290.189 792.945C290.935 795.293 291.336 796.606 291.253 796.633C291.17 796.661 290.618 795.417 289.72 793.11C288.822 790.803 287.578 787.46 286.252 783.232C284.926 779.019 283.517 773.921 282.453 768.146C281.444 762.385 280.754 755.878 281.514 749.081C283.088 735.473 289.609 724.256 295.95 718.053C299.1 714.903 302.07 712.803 304.226 711.587C305.276 710.924 306.187 710.565 306.754 710.275C307.348 709.998 307.666 709.874 307.679 709.915L307.693 709.888Z" fill="white"/>
<path d="M324.948 797.434C324.672 797.296 327.794 792.489 330.64 783.84C333.569 775.289 335.987 762.634 334.039 748.874C333.127 742.022 331.138 735.667 328.651 730.237C326.067 724.877 322.724 720.498 319.464 717.431C316.093 714.447 312.763 712.734 310.456 711.739C308.122 710.758 306.712 710.537 306.726 710.427C306.726 710.385 307.085 710.399 307.762 710.509C308.425 710.634 309.406 710.855 310.636 711.283C313.054 712.153 316.493 713.77 320.058 716.768C323.525 719.862 326.979 724.242 329.715 729.74C332.326 735.266 334.37 741.718 335.31 748.708C337.299 762.717 334.674 775.565 331.497 784.144C330.778 786.327 329.867 788.206 329.176 789.891C328.361 791.522 327.684 792.945 327.076 794.064C325.791 796.288 325.045 797.49 324.962 797.448L324.948 797.434Z" fill="white"/>
<path d="M275.918 794.437H345.699L346.127 808.404H275.918V794.437Z" fill="#263238"/>
<path d="M281.845 801.413L285.851 844.061H336.871L340.974 801.883L281.845 801.413Z" fill="#263238"/>
<path d="M346.127 808.569C346.127 808.915 330.405 809.205 311.037 809.205C291.668 809.205 275.932 808.915 275.932 808.569C275.932 808.224 291.64 807.934 311.037 807.934C330.433 807.934 346.127 808.224 346.127 808.569Z" fill="#455A64"/>
<path d="M339.04 821.556C339.04 821.556 338.639 822.578 337.548 824.222C336.456 825.852 334.716 828.146 332.132 830.618L331.815 830.922L331.497 830.591C328.14 827.068 323.525 822.744 317.82 818.613L318.593 818.585C316.645 820.299 314.615 822.081 312.529 823.904C310.056 826.059 307.652 828.159 305.358 830.149L304.958 830.494L304.557 830.163C300.205 826.515 296.254 823.186 292.911 820.368L293.588 820.299C291.184 823.241 289.153 825.7 287.565 827.648C286.114 829.375 285.271 830.301 285.202 830.232C285.133 830.163 285.824 829.14 287.15 827.317C288.656 825.3 290.576 822.744 292.842 819.705L293.132 819.318L293.519 819.635C296.917 822.398 300.938 825.645 305.345 829.223H304.557C306.837 827.234 309.227 825.134 311.7 822.965C313.786 821.141 315.83 819.373 317.778 817.66L318.151 817.328L318.552 817.618C324.299 821.846 328.886 826.308 332.16 829.983L331.524 829.955C336.705 825.258 338.846 821.418 339.04 821.57V821.556Z" fill="#455A64"/>
<path d="M1365.24 826.456C1361.69 826.953 1358.22 828.68 1356.07 831.554C1353.91 834.427 1353.24 838.475 1354.78 841.708C1356.33 844.941 1360.23 847.013 1363.7 846.06C1363.81 848.602 1366.11 850.854 1368.65 850.895C1371.2 850.936 1373.59 848.767 1373.78 846.225C1375.42 848.104 1378.31 848.767 1380.62 847.814C1382.93 846.847 1384.47 844.319 1384.29 841.832C1384.18 840.257 1383.45 838.779 1383.26 837.204C1383.05 835.491 1383.49 833.75 1383.45 832.023C1383.41 830.297 1382.66 828.362 1381.02 827.81" fill="#263238"/>
<path d="M1294.37 835.823C1299.72 832.396 1305.84 830.366 1311.98 828.777C1316.46 827.616 1321.24 826.691 1325.63 828.128C1329.77 829.481 1333.11 833.018 1334.26 837.218C1334.68 838.821 1334.79 840.603 1334.02 842.067C1332.98 844.015 1330.7 844.913 1328.56 845.438C1326.93 845.839 1324.83 845.963 1323.92 844.554C1322.84 845.922 1321.17 846.806 1319.45 846.944C1317.7 847.082 1315.92 846.46 1314.65 845.272C1313.48 847.98 1310.13 849.541 1307.3 848.698C1304.47 847.869 1302.51 844.761 1302.98 841.846C1301.67 843.739 1299.37 844.954 1297.08 844.761C1294.79 844.568 1292.66 842.827 1292.22 840.561C1291.77 838.296 1293.25 835.781 1295.48 835.242" fill="#263238"/>
<path d="M1242.69 834.938C1241.28 828.97 1243.6 822.74 1248.57 819.148C1254.11 815.155 1258.01 810.513 1265.23 806.217C1270.37 803.15 1278.99 799.931 1282.88 798.646C1297.04 793.949 1306.61 792.747 1312.43 789.708C1318.81 786.364 1327.31 781.128 1327.31 781.128L1399.6 786.724C1399.6 786.724 1408.29 840.119 1395.12 845.327C1395.12 845.327 1333.88 845.977 1329.06 843.835C1323.84 841.528 1244.14 841.57 1244.37 842.095L1242.69 834.938Z" fill="#263238"/>
<path d="M1281.8 824.743C1266.34 827.064 1258.6 827.768 1242.98 827.865C1238.41 827.893 1233.78 827.824 1229.3 828.749C1226.58 829.316 1223.84 830.283 1221.84 832.217C1219.84 834.151 1218.75 837.204 1219.73 839.801C1220.71 842.399 1224.15 843.974 1226.51 842.495C1226.91 844.664 1228.72 846.502 1230.89 846.916C1233.06 847.331 1235.42 846.308 1236.6 844.43C1237.59 845.714 1239.41 846.087 1241.02 845.825C1242.62 845.562 1244.08 844.775 1245.55 844.084C1251.86 841.142 1258.55 841.86 1265.51 841.915C1277.67 841.998 1291.43 841.874 1286.36 841.915" fill="#263238"/>
<path d="M1286.37 841.929C1286.37 841.929 1286.72 841.887 1287.39 841.86H1287.42H1287.44C1287.44 842.109 1287.44 841.929 1287.44 841.984H1287.37H1287.23C1287.13 841.984 1287.03 841.984 1286.92 841.984C1286.72 841.984 1286.48 841.984 1286.25 841.998C1285.75 841.998 1285.17 842.026 1284.53 842.039C1281.9 842.067 1278.15 842.109 1273.48 842.164C1271.12 842.164 1268.52 842.164 1265.72 842.178C1262.9 842.178 1259.89 842.039 1256.7 842.122C1253.52 842.219 1250.13 842.578 1246.89 843.877C1245.27 844.499 1243.72 845.493 1241.86 846.004C1240.93 846.253 1239.93 846.35 1238.94 846.156C1237.96 845.977 1236.98 845.493 1236.32 844.651L1236.89 844.623C1235.67 846.543 1233.27 847.676 1230.93 847.289C1228.6 846.889 1226.61 844.968 1226.15 842.564L1226.69 842.799C1224.95 843.891 1222.53 843.435 1220.97 842.095C1219.93 841.266 1219.26 840.009 1219.08 838.724C1218.87 837.439 1219.09 836.127 1219.56 834.952C1220.49 832.576 1222.53 830.849 1224.67 829.841C1226.86 828.818 1229.16 828.335 1231.4 828.017C1233.65 827.699 1235.88 827.603 1238.03 827.547C1246.65 827.506 1254.38 827.451 1260.87 826.981C1267.35 826.539 1272.57 825.848 1276.18 825.392C1277.94 825.171 1279.33 824.992 1280.33 824.853C1280.78 824.798 1281.14 824.757 1281.41 824.729C1281.66 824.701 1281.79 824.701 1281.79 824.715C1281.79 824.729 1281.66 824.757 1281.43 824.812C1281.15 824.867 1280.79 824.923 1280.35 825.005C1279.35 825.171 1277.96 825.392 1276.2 825.668C1272.61 826.207 1267.39 826.967 1260.88 827.478C1254.39 828.031 1246.61 828.128 1238.03 828.21C1235.89 828.266 1233.69 828.376 1231.48 828.694C1229.29 829.012 1227.04 829.495 1224.96 830.476C1222.9 831.443 1221.05 833.032 1220.21 835.215C1219.31 837.315 1219.53 840.05 1221.41 841.528C1222.79 842.703 1224.88 843.076 1226.29 842.178L1226.73 841.888L1226.83 842.412C1227.2 844.499 1229 846.225 1231.03 846.571C1233.06 846.916 1235.23 845.922 1236.28 844.236L1236.54 843.822L1236.84 844.208C1237.94 845.576 1240.01 845.797 1241.67 845.327C1243.39 844.872 1244.94 843.891 1246.63 843.255C1249.98 841.943 1253.45 841.597 1256.66 841.514C1259.87 841.445 1262.89 841.625 1265.69 841.639C1268.49 841.666 1271.09 841.694 1273.45 841.708C1278.12 841.736 1281.87 841.763 1284.51 841.791C1285.14 841.791 1285.71 841.805 1286.22 841.805C1286.47 841.805 1286.69 841.805 1286.9 841.805C1286.99 841.805 1287.1 841.805 1287.2 841.805H1287.34H1287.41C1287.41 841.805 1287.41 841.68 1287.41 841.929H1287.39H1287.37C1286.69 841.915 1286.34 841.901 1286.34 841.874L1286.37 841.929Z" fill="#455A64"/>
<path d="M1383.08 839.097C1383.08 839.097 1383.45 839.387 1383.89 840.161C1384.31 840.92 1384.76 842.219 1384.56 843.891C1384.46 844.719 1384.2 845.631 1383.64 846.488C1383.11 847.358 1382.26 848.146 1381.17 848.615C1379.04 849.569 1375.85 849.334 1373.82 847.04L1374.33 846.944C1373.67 848.933 1371.71 850.619 1369.32 850.784C1366.94 850.95 1364.44 849.375 1363.61 846.902L1364.03 847.137C1360.2 848.09 1355.92 845.507 1354.3 841.639C1353.04 838.71 1353.58 835.422 1354.89 832.866C1356.23 830.283 1358.33 828.238 1360.67 826.967C1363 825.668 1365.48 825.019 1367.8 824.715C1370.12 824.411 1372.32 824.453 1374.29 824.605C1378.24 824.95 1381.36 825.641 1383.53 826.041C1384.56 826.249 1385.38 826.401 1386.02 826.525C1386.59 826.635 1386.89 826.705 1386.88 826.732C1386.86 826.76 1386.57 826.732 1385.99 826.663C1385.41 826.594 1384.57 826.47 1383.48 826.304C1381.3 825.986 1378.16 825.378 1374.25 825.102C1370.4 824.867 1365.5 825.033 1361 827.533C1358.78 828.763 1356.79 830.711 1355.53 833.17C1354.29 835.588 1353.8 838.682 1354.96 841.349C1356.46 844.941 1360.45 847.303 1363.86 846.446L1364.18 846.363L1364.28 846.667C1364.98 848.823 1367.22 850.259 1369.29 850.121C1371.38 849.997 1373.19 848.491 1373.78 846.736L1373.95 846.253L1374.28 846.64C1376.06 848.712 1379.02 849.002 1380.99 848.159C1383.06 847.331 1384.03 845.355 1384.24 843.822C1384.49 842.247 1384.1 840.989 1383.75 840.23C1383.38 839.456 1383.06 839.124 1383.11 839.083L1383.08 839.097Z" fill="#455A64"/>
<path d="M1393.9 825.254C1393.81 825.337 1393.07 824.605 1391.62 823.817C1390.19 823.03 1387.98 822.256 1385.5 822.38C1383.01 822.505 1380.89 823.499 1379.55 824.425C1378.2 825.351 1377.52 826.166 1377.44 826.083C1377.37 826.041 1377.91 825.102 1379.25 824.011C1380.56 822.933 1382.79 821.786 1385.45 821.648C1388.12 821.51 1390.44 822.422 1391.86 823.361C1393.31 824.301 1393.94 825.185 1393.88 825.24L1393.9 825.254Z" fill="#455A64"/>
<path d="M1294.11 844.277C1294.11 844.277 1293.91 844.181 1293.57 843.918C1293.27 843.628 1292.8 843.2 1292.38 842.495C1291.54 841.141 1290.83 838.696 1291.61 835.85C1292.38 833.004 1294.83 830.241 1298.1 828.335C1301.37 826.359 1305.42 825.268 1309.33 823.541C1317.19 819.99 1322.68 814.036 1325.62 809.284C1327.13 806.907 1328.11 804.835 1328.7 803.371C1329.31 801.906 1329.6 801.091 1329.65 801.105C1329.68 801.105 1329.63 801.326 1329.52 801.727C1329.39 802.127 1329.25 802.735 1328.96 803.468C1328.44 804.973 1327.51 807.087 1326.05 809.546C1323.19 814.423 1317.65 820.571 1309.62 824.19C1305.63 825.959 1301.62 827.022 1298.43 828.901C1295.23 830.711 1292.88 833.322 1292.09 835.988C1291.29 838.655 1291.87 841.017 1292.62 842.357C1293.38 843.725 1294.15 844.222 1294.09 844.277H1294.11Z" fill="#455A64"/>
<path d="M1322.9 843.849C1322.9 843.849 1323.33 844.471 1324.46 845.079C1325.55 845.673 1327.55 846.087 1329.63 845.148C1331.7 844.264 1333.3 841.625 1333.21 838.627C1333.21 837.135 1332.75 835.588 1331.93 834.179C1331.11 832.783 1329.93 831.512 1328.49 830.531C1325.62 828.542 1322.22 827.727 1319.21 827.741C1316.16 827.741 1313.44 828.349 1311.2 828.97C1308.96 829.606 1307.18 830.241 1305.93 830.656C1304.69 831.084 1304 831.305 1303.99 831.25C1303.97 831.208 1304.62 830.891 1305.84 830.393C1307.05 829.896 1308.81 829.177 1311.06 828.487C1313.3 827.796 1316.06 827.105 1319.21 827.078C1322.35 827.036 1325.88 827.851 1328.91 829.951C1330.41 830.987 1331.67 832.341 1332.54 833.833C1333.4 835.339 1333.87 837.025 1333.87 838.627C1333.94 841.846 1332.14 844.706 1329.82 845.618C1327.53 846.557 1325.41 846.018 1324.31 845.314C1323.73 844.968 1323.37 844.568 1323.15 844.305C1322.94 844.015 1322.86 843.863 1322.87 843.849H1322.9Z" fill="#455A64"/>
<path d="M1314.84 844.844C1314.91 844.803 1315.51 845.756 1317.15 846.336C1317.94 846.626 1318.98 846.93 1320.03 846.82C1321.08 846.695 1322.19 846.018 1322.82 844.955C1323.44 843.891 1323.4 842.606 1323.09 841.542C1322.79 840.478 1322.24 839.608 1321.72 838.903C1320.66 837.536 1319.87 836.748 1319.97 836.665C1320.03 836.61 1320.92 837.246 1322.13 838.586C1322.71 839.263 1323.37 840.161 1323.73 841.349C1324.1 842.495 1324.18 844.001 1323.44 845.3C1322.69 846.585 1321.37 847.345 1320.11 847.455C1318.82 847.538 1317.79 847.137 1316.96 846.778C1316.13 846.391 1315.54 845.935 1315.2 845.535C1314.87 845.134 1314.8 844.844 1314.84 844.83V844.844Z" fill="#455A64"/>
<path d="M1303.24 842.26C1303.24 842.26 1303.2 842.661 1303.18 843.352C1303.18 844.043 1303.32 845.051 1303.94 846.115C1304.54 847.165 1305.67 848.215 1307.25 848.533C1308.78 848.878 1310.67 848.533 1312.11 847.4C1313.55 846.253 1314.31 844.512 1314.47 842.937C1314.65 841.335 1314.22 839.884 1313.67 838.793C1312.51 836.582 1311.06 835.754 1311.16 835.657C1311.18 835.615 1311.54 835.781 1312.12 836.237C1312.69 836.679 1313.46 837.425 1314.13 838.558C1314.78 839.677 1315.3 841.252 1315.13 843.02C1314.98 844.761 1314.17 846.681 1312.55 847.98C1310.92 849.265 1308.82 849.61 1307.09 849.196C1305.33 848.795 1304.08 847.552 1303.5 846.377C1302.89 845.189 1302.81 844.07 1302.91 843.352C1303.01 842.62 1303.21 842.26 1303.24 842.274V842.26Z" fill="#455A64"/>
<path d="M1331.95 793.548C1331.95 793.548 1347.23 810.389 1366.2 808.248C1385.16 806.12 1399.74 787.732 1399.74 787.732C1402.65 783.104 1401.45 778.31 1400.54 774.773C1399.63 771.237 1397.89 767.852 1397.87 764.191C1397.86 761.069 1399.1 758.099 1400 755.114C1402.02 748.428 1402.32 741.355 1402.63 734.378C1402.75 731.38 1402.6 727.816 1400.07 726.213C1398.5 725.218 1396.42 725.357 1394.72 726.116C1393.02 726.876 1391.63 728.161 1390.29 729.446C1384.58 734.93 1379.21 740.774 1374.24 746.936C1366.55 741.479 1355.02 742.418 1348.32 749.022C1340.2 745.61 1337.53 734.24 1329.21 731.339C1327.4 730.703 1325.25 730.593 1323.71 731.739C1321.7 733.259 1321.59 736.188 1321.66 738.716C1322 750.086 1322.42 761.787 1327.04 772.176C1325.03 779.167 1326.74 787.138 1331.48 792.678" fill="#263238"/>
<path d="M1359.69 795.952C1360.68 794.488 1362.22 793.396 1363.92 792.913C1365.62 792.429 1367.49 792.554 1369.11 793.272C1369.51 793.451 1369.91 793.673 1370.17 794.032C1370.44 794.391 1370.52 794.902 1370.27 795.275C1369.98 794.819 1369.25 794.874 1368.86 795.261C1368.49 795.648 1368.39 796.228 1368.38 796.767C1368.36 797.306 1368.39 797.859 1368.2 798.37C1367.96 798.978 1367.41 799.433 1366.78 799.558C1366.14 799.682 1365.45 799.447 1365.02 798.978C1364.63 798.563 1364.45 797.997 1364.21 797.486C1363.96 796.974 1363.56 796.477 1362.99 796.38C1362.55 796.297 1362.11 796.491 1361.68 796.657C1361.25 796.822 1360.78 796.961 1360.37 796.781C1359.95 796.601 1359.76 795.952 1360.13 795.69" fill="#455A64"/>
<path d="M1366.76 798.052C1366.87 798.052 1366.84 798.66 1367.07 799.558C1367.27 800.442 1367.83 801.644 1368.88 802.542C1369.93 803.426 1371.21 803.771 1372.11 803.827C1373.03 803.896 1373.61 803.758 1373.64 803.868C1373.67 803.951 1373.12 804.269 1372.09 804.324C1371.1 804.393 1369.62 804.103 1368.39 803.081C1367.18 802.045 1366.65 800.635 1366.55 799.641C1366.44 798.632 1366.67 798.024 1366.75 798.038L1366.76 798.052Z" fill="#455A64"/>
<path d="M1366.87 797.154C1366.94 797.126 1367.36 797.79 1367.4 799.019C1367.45 800.221 1367.01 802.017 1365.6 803.343C1364.18 804.656 1362.36 804.973 1361.17 804.835C1359.94 804.711 1359.3 804.255 1359.34 804.186C1359.38 804.075 1360.08 804.338 1361.19 804.324C1362.3 804.324 1363.89 803.951 1365.12 802.804C1366.33 801.658 1366.82 800.083 1366.9 798.991C1366.98 797.872 1366.78 797.168 1366.9 797.14L1366.87 797.154Z" fill="#455A64"/>
<path d="M1396.13 803.481C1396.04 803.702 1391.81 801.409 1386.03 800.732C1380.26 799.986 1375.6 801.188 1375.56 800.953C1375.53 800.87 1376.67 800.47 1378.57 800.152C1380.48 799.834 1383.17 799.668 1386.12 800.028C1389.06 800.387 1391.63 801.202 1393.4 801.975C1395.17 802.749 1396.17 803.412 1396.13 803.495V803.481Z" fill="#455A64"/>
<path d="M1404.93 799.737C1404.91 799.848 1403.21 799.42 1400.43 798.936C1397.65 798.439 1393.78 797.941 1389.49 797.859C1385.19 797.789 1381.31 798.162 1378.52 798.563C1375.73 798.964 1374.01 799.323 1373.99 799.212C1373.99 799.171 1374.39 799.019 1375.16 798.798C1375.92 798.577 1377.04 798.314 1378.44 798.052C1381.23 797.513 1385.15 797.071 1389.5 797.14C1393.85 797.223 1397.76 797.803 1400.53 798.425C1401.91 798.743 1403.03 799.033 1403.77 799.282C1404.53 799.53 1404.95 799.682 1404.93 799.724V799.737Z" fill="#455A64"/>
<path d="M1409.59 789.942C1409.59 790.053 1407.5 789.956 1404.15 789.956C1400.79 789.956 1396.13 790.108 1391.12 791.034C1386.09 791.946 1381.72 793.576 1378.74 795.082C1375.74 796.588 1374.07 797.845 1374 797.734C1373.97 797.693 1374.36 797.347 1375.12 796.781C1375.88 796.215 1377.03 795.455 1378.51 794.64C1381.46 792.982 1385.88 791.255 1390.98 790.329C1396.08 789.39 1400.78 789.335 1404.15 789.445C1405.83 789.5 1407.2 789.611 1408.14 789.708C1409.08 789.804 1409.59 789.887 1409.59 789.942Z" fill="#455A64"/>
<path d="M1330.37 811.895C1330.37 811.895 1330.64 811.577 1331.17 811.093C1331.71 810.61 1332.56 809.974 1333.63 809.228C1335.77 807.75 1338.97 805.996 1342.75 804.711C1346.54 803.44 1350.14 802.901 1352.74 802.763C1354.04 802.694 1355.1 802.694 1355.82 802.763C1356.55 802.804 1356.95 802.86 1356.94 802.901C1356.94 803.025 1355.34 803.012 1352.77 803.274C1350.21 803.537 1346.69 804.144 1342.97 805.388C1339.26 806.645 1336.09 808.303 1333.9 809.643C1331.7 810.983 1330.43 811.964 1330.36 811.867L1330.37 811.895Z" fill="#455A64"/>
<path d="M1329.21 804.227C1329.21 804.227 1329.57 803.993 1330.26 803.675C1330.95 803.357 1331.98 802.956 1333.26 802.528C1335.83 801.658 1339.48 800.732 1343.61 800.276C1347.74 799.834 1351.51 799.958 1354.2 800.276C1355.56 800.428 1356.64 800.594 1357.38 800.76C1358.13 800.912 1358.53 801.022 1358.51 801.078C1358.5 801.188 1356.84 800.967 1354.16 800.787C1351.48 800.622 1347.77 800.566 1343.69 801.008C1339.62 801.451 1336 802.279 1333.41 803.025C1330.83 803.758 1329.25 804.338 1329.21 804.227Z" fill="#455A64"/>
<path d="M1319.58 800.995C1319.58 800.995 1320.08 800.718 1321.02 800.345C1321.96 799.958 1323.35 799.489 1325.1 798.978C1328.58 797.955 1333.54 796.974 1339.08 796.781C1344.63 796.601 1349.64 797.223 1353.18 797.997C1354.95 798.384 1356.37 798.757 1357.34 799.074C1358.31 799.378 1358.83 799.572 1358.82 799.627C1358.78 799.751 1356.64 799.13 1353.09 798.494C1349.55 797.859 1344.59 797.306 1339.1 797.499C1333.62 797.693 1328.72 798.591 1325.22 799.475C1321.72 800.359 1319.62 801.119 1319.58 800.995Z" fill="#455A64"/>
<path d="M1356.41 782.054C1356.41 782.054 1355.78 782.883 1354.29 783.56C1352.82 784.251 1350.47 784.748 1348.01 784.112C1345.56 783.463 1343.75 781.888 1342.79 780.576C1341.83 779.25 1341.59 778.241 1341.67 778.227C1341.78 778.172 1342.18 779.084 1343.19 780.258C1344.19 781.432 1345.91 782.814 1348.19 783.408C1350.46 783.988 1352.66 783.615 1354.09 783.09C1355.56 782.565 1356.35 781.957 1356.41 782.054Z" fill="#455A64"/>
<path d="M1387.18 775.423C1387.25 775.409 1387.48 776.417 1386.95 777.923C1386.46 779.415 1384.97 781.28 1382.73 782.234C1380.52 783.214 1378.31 783.311 1376.79 783.325C1375.26 783.325 1374.32 783.215 1374.32 783.118C1374.32 783.007 1375.26 782.938 1376.78 782.814C1378.27 782.676 1380.38 782.482 1382.44 781.571C1384.53 780.686 1385.9 779.07 1386.48 777.73C1387.1 776.39 1387.06 775.423 1387.18 775.423Z" fill="#455A64"/>
<path d="M1333.66 755.059C1334.5 754.161 1335.35 753.249 1335.97 752.117C1336.59 750.984 1336.98 749.63 1336.81 748.29C1336.63 746.853 1335.86 745.637 1335.06 744.532C1332.86 741.534 1330.3 738.923 1327.47 736.837C1327.47 736.837 1325.28 735.179 1324.29 736.837C1323.64 737.942 1324.06 756.095 1326.57 757.242C1329.1 758.402 1333.63 755.045 1333.63 755.045L1333.66 755.059Z" fill="#455A64"/>
<path d="M1396.34 729.128C1392.31 732.292 1390.76 737.735 1387.73 741.88C1387.19 742.626 1386.64 743.385 1386.28 744.228C1385.92 745.071 1385.77 746.052 1386.05 746.936C1386.34 747.848 1387.06 748.552 1387.79 749.16C1389.39 750.514 1391.2 751.605 1393.14 752.407C1393.14 752.407 1397.32 753.705 1398.43 749.892C1399.53 746.079 1399.05 726.987 1396.34 729.114V729.128Z" fill="#455A64"/>
<path d="M1267.97 807.391C1263.11 808.137 1251.88 806.272 1248.6 802.887C1245.17 799.364 1246.24 794.197 1248.02 789.625C1249.8 785.038 1252.55 780.921 1254.89 776.597C1258.81 769.372 1261.66 761.414 1261.88 753.194C1262.1 744.974 1259.43 736.492 1253.62 730.689C1247.8 724.887 1238.63 722.262 1230.96 725.232C1224.66 727.678 1219.77 734.958 1222.21 741.258C1223.75 745.209 1227.57 747.723 1230.27 750.997C1234.07 755.612 1235.57 762.008 1234.25 767.838C1232.8 774.166 1228.32 779.443 1226.62 785.715C1224.04 795.275 1228.72 805.885 1236.61 811.867C1244.5 817.849 1255 819.645 1264.83 818.498" fill="#263238"/>
<path d="M1370.16 804.075C1370.16 804.075 1370.75 807.778 1369.48 809.284C1368.92 809.961 1368.13 810.499 1367.25 810.596C1365.95 810.734 1364.69 809.85 1364.04 808.717C1363.39 807.584 1363.23 806.231 1363.16 804.932C1363.16 804.932 1366.44 803.744 1366.91 801.823C1366.91 801.823 1368.23 803.882 1370.15 804.089L1370.16 804.075Z" fill="#00CB6A"/>
<path d="M1386.9 805.581C1386.9 805.581 1386.57 806.065 1385.84 806.797C1385.11 807.529 1383.96 808.538 1382.41 809.601C1379.36 811.729 1374.5 813.995 1368.75 814.451C1363 814.906 1357.84 813.456 1354.48 811.84C1352.79 811.038 1351.5 810.237 1350.65 809.629C1349.81 809.021 1349.38 808.634 1349.4 808.593C1349.48 808.469 1351.3 809.905 1354.69 811.37C1358.03 812.848 1363.09 814.174 1368.68 813.732C1374.28 813.276 1379.06 811.163 1382.12 809.173C1385.23 807.184 1386.81 805.485 1386.89 805.581H1386.9Z" fill="#455A64"/>
<path d="M1367.18 830.462C1367.23 830.573 1366.22 831.084 1364.97 832.341C1363.72 833.571 1362.29 835.684 1361.87 838.337C1361.46 840.989 1362.18 843.435 1362.99 844.996C1363.81 846.571 1364.62 847.372 1364.52 847.455C1364.48 847.51 1363.52 846.833 1362.55 845.244C1361.58 843.683 1360.72 841.086 1361.17 838.226C1361.62 835.367 1363.23 833.156 1364.62 831.968C1366.03 830.752 1367.15 830.393 1367.18 830.462Z" fill="#455A64"/>
<path d="M1380.63 832.065C1380.63 832.203 1379.5 832.093 1377.94 832.811C1376.4 833.502 1374.5 835.187 1373.66 837.66C1372.83 840.147 1373.14 842.62 1373.56 844.291C1373.97 845.991 1374.43 846.985 1374.33 847.04C1374.26 847.082 1373.63 846.156 1373.08 844.429C1372.52 842.744 1372.09 840.133 1372.98 837.439C1373.89 834.731 1376.03 832.977 1377.75 832.355C1379.49 831.706 1380.66 832.023 1380.63 832.079V832.065Z" fill="#455A64"/>
<path d="M1343.18 823.126C1343.26 823.182 1342.85 823.955 1342.03 825.116C1341.22 826.262 1339.99 827.81 1338.34 829.233C1336.69 830.656 1334.93 831.595 1333.63 832.134C1332.32 832.673 1331.46 832.866 1331.44 832.783C1331.34 832.548 1334.68 831.429 1337.89 828.68C1341.05 825.917 1342.99 822.974 1343.19 823.126H1343.18Z" fill="#455A64"/>
<path d="M1326.48 781.626C1326.48 781.626 1326.21 781.847 1325.69 782.234C1325.16 782.62 1324.36 783.145 1323.33 783.809C1321.24 785.121 1318.11 786.875 1314.1 788.727C1310.08 790.564 1305.19 792.498 1299.63 794.322C1294.08 796.145 1287.92 797.845 1281.54 799.958C1275.17 802.058 1269.2 804.421 1264.1 807.198C1259 809.961 1254.76 813.083 1251.59 816.108C1248.41 819.134 1246.22 821.966 1244.9 824.024C1243.56 826.083 1242.96 827.312 1242.9 827.285C1242.87 827.285 1243.01 826.967 1243.3 826.373C1243.56 825.779 1244.03 824.936 1244.66 823.872C1245.93 821.759 1248.06 818.83 1251.24 815.735C1254.4 812.641 1258.66 809.436 1263.78 806.617C1268.91 803.785 1274.91 801.395 1281.3 799.282C1287.7 797.168 1293.89 795.469 1299.41 793.7C1304.95 791.918 1309.84 790.053 1313.86 788.271C1317.88 786.489 1321.03 784.817 1323.16 783.587C1324.23 782.966 1325.04 782.482 1325.59 782.137C1326.15 781.805 1326.45 781.626 1326.46 781.653L1326.48 781.626Z" fill="#455A64"/>
<path d="M1333.77 793.907C1333.77 793.907 1332.79 793.106 1331.62 791.462C1330.44 789.818 1329.07 787.345 1328.15 784.375C1327.24 781.405 1326.99 778.586 1327.04 776.569C1327.1 774.539 1327.37 773.323 1327.46 773.337C1327.71 773.337 1327.02 778.365 1328.85 784.168C1330.61 789.998 1333.99 793.783 1333.79 793.907H1333.77Z" fill="#455A64"/>
</svg>
