<svg width="1404" height="826" viewBox="0 0 1404 826" fill="none" xmlns="http://www.w3.org/2000/svg">
<rect width="1404" height="826" fill="#FBFBFB"/>
<path d="M989 332.5C1227.4 262.1 1365 86.5 1404 7.5H0.5V400C230.667 406.833 750.6 402.9 989 332.5Z" fill="#7CFF99" fill-opacity="0.3"/>
<path d="M1287.97 152.847L892 155.13L895.044 684.009L1291.01 681.726L1287.97 152.847Z" fill="#6188A3"/>
<path opacity="0.26" d="M924.442 661.113L930.367 661.079L1280.11 669.929L1268.1 169.814L1251.87 174.586L924.442 661.113Z" fill="black"/>
<path d="M1268.1 169.801L912.068 171.853L914.884 661.165L1270.91 659.112L1268.1 169.801Z" fill="#FFFFF1"/>
<path opacity="0.05" d="M910.118 169.999L1166.2 168.523L910.931 385.767L910.118 169.999Z" fill="black"/>
<path opacity="0.12" d="M1167.38 167.801L1012.76 168.692L1012.84 183.221L1167.46 182.329L1167.38 167.801Z" fill="black"/>
<path d="M1135.43 124.044L1133.03 124.057V122.436C1132.94 107.186 1118.67 94.9013 1101.18 95.0005L1078.12 95.1329C1060.62 95.2322 1046.5 107.682 1046.59 122.932V124.554L1044.2 124.567C1026.69 124.666 1012.57 137.116 1012.66 152.366L1012.84 183.223L1167.47 182.337L1167.29 151.479C1167.2 136.229 1152.94 123.945 1135.44 124.044H1135.43ZM1110.18 124.825L1069.45 125.057C1065.28 125.083 1061.85 121.688 1061.84 117.525C1061.81 113.355 1065.2 109.926 1069.36 109.906L1110.1 109.675C1114.26 109.648 1117.69 113.044 1117.71 117.207C1117.73 121.37 1114.34 124.805 1110.18 124.825Z" fill="#C4D3D3"/>
<g opacity="0.47">
<path d="M1012.32 308.055C994.897 308.155 977.472 308.254 960.053 308.353C958.578 308.36 957.335 309.617 957.348 311.093C957.448 328.534 957.547 345.975 957.646 363.409C957.653 364.885 958.909 366.129 960.384 366.116C977.809 366.017 995.235 365.917 1012.65 365.818C1013.45 365.818 1014.06 365.52 1014.49 365.077C1014.53 365.05 1014.55 365.017 1014.58 364.991C1014.6 364.971 1014.62 364.958 1014.64 364.938C1015.08 364.501 1015.37 363.885 1015.36 363.078C1015.27 345.637 1015.17 328.197 1015.07 310.762C1015.06 309.286 1013.8 308.042 1012.33 308.055H1012.32ZM1009.9 360.391C994.296 360.483 978.682 360.569 963.075 360.662C962.983 345.042 962.897 329.414 962.804 313.794C978.411 313.701 994.025 313.615 1009.63 313.523C1009.72 329.143 1009.81 344.77 1009.9 360.391Z" fill="#8C9498"/>
<path d="M1012.88 404.79C995.453 404.889 978.028 404.989 960.609 405.088C959.134 405.095 957.891 406.352 957.904 407.828C958.003 425.269 958.102 442.71 958.202 460.144C958.208 461.62 959.465 462.864 960.939 462.851C978.365 462.752 995.79 462.652 1013.21 462.553C1014.01 462.553 1014.61 462.255 1015.05 461.812C1015.08 461.785 1015.11 461.752 1015.14 461.726C1015.15 461.706 1015.17 461.693 1015.19 461.673C1015.64 461.236 1015.93 460.62 1015.92 459.813C1015.82 442.372 1015.72 424.931 1015.62 407.497C1015.62 406.021 1014.36 404.777 1012.89 404.79H1012.88ZM1010.46 457.126C994.851 457.218 979.238 457.304 963.631 457.397C963.538 441.776 963.452 426.149 963.36 410.529C978.967 410.436 994.58 410.35 1010.19 410.257C1010.28 425.878 1010.37 441.505 1010.46 457.126Z" fill="#8C9498"/>
<path d="M1013.43 501.525C996.008 501.624 978.583 501.723 961.164 501.823C959.689 501.829 958.446 503.087 958.459 504.563C958.559 522.004 958.658 539.444 958.757 556.878C958.764 558.355 960.02 559.599 961.495 559.586C978.92 559.486 996.346 559.387 1013.76 559.288C1014.56 559.288 1015.17 558.99 1015.6 558.546C1015.64 558.52 1015.66 558.487 1015.7 558.46C1015.71 558.441 1015.73 558.427 1015.75 558.407C1016.19 557.971 1016.48 557.355 1016.48 556.548C1016.38 539.107 1016.28 521.666 1016.18 504.232C1016.17 502.756 1014.92 501.512 1013.44 501.525H1013.43ZM1011.01 553.86C995.407 553.953 979.793 554.039 964.186 554.132C964.094 538.511 964.008 522.884 963.915 507.263C979.522 507.171 995.136 507.085 1010.74 506.992C1010.83 522.613 1010.92 538.24 1011.01 553.86Z" fill="#8C9498"/>
</g>
<path d="M977.77 328.051L989.759 323.974L996.504 335.96L1053.67 294.215L1060.35 295.513L993.919 350.674L977.77 328.051Z" fill="#00CB6A"/>
<path d="M973.98 427.261L985.976 423.184L992.715 435.171L1049.88 393.426L1056.56 394.723L990.129 449.884L973.98 427.261Z" fill="#00CB6A"/>
<path d="M973.418 518.827L985.408 514.749L992.153 526.736L1049.32 484.984L1056 486.282L989.567 541.443L973.418 518.827Z" fill="#00CB6A"/>
<path opacity="0.32" d="M1231.54 521.521L1047.14 522.584L1047.29 548.742L1231.7 547.679L1231.54 521.521Z" fill="#8C9498"/>
<path opacity="0.32" d="M1230.96 419.066L1046.55 420.13L1046.7 446.287L1231.11 445.224L1230.96 419.066Z" fill="#8C9498"/>
<path opacity="0.32" d="M1230.37 316.605L1045.96 317.668L1046.11 343.825L1230.52 342.762L1230.37 316.605Z" fill="#8C9498"/>
</svg>
