<svg width="1404" height="835" viewBox="0 0 1404 835" fill="none" xmlns="http://www.w3.org/2000/svg">
<rect width="1404" height="835" fill="#F4FFF7"/>
<g style="mix-blend-mode:multiply">
<path d="M654.223 125.323L678.952 203.572H661.048L653.159 176.591L654.223 125.323Z" fill="#EBEBEB"/>
<path d="M704.193 203.49H334.803V225.566H704.193V203.49Z" fill="#E0E0E0"/>
<path d="M404.155 220.745H386.278V254.633H404.155V220.745Z" fill="#E0E0E0"/>
<path d="M634.771 220.745H616.908V254.633H634.771V220.745Z" fill="#E0E0E0"/>
<path d="M347.347 101.147C347.347 101.147 330.769 113.774 346.656 130.463C346.932 130.753 347.319 130.905 347.706 130.905L492.544 130.062C492.544 130.062 504.909 116.192 494.644 100.207L347.347 101.147Z" fill="#EBEBEB"/>
<path d="M460.535 114.326C460.535 114.492 442.506 114.617 420.25 114.617C397.993 114.617 379.965 114.492 379.965 114.326C379.965 114.161 397.993 114.036 420.25 114.036C442.506 114.036 460.535 114.161 460.535 114.326Z" fill="#E0E0E0"/>
<path d="M438.002 119.562C438.002 119.728 429.52 119.853 419.061 119.853C408.603 119.853 400.121 119.728 400.121 119.562C400.121 119.397 408.603 119.272 419.061 119.272C429.52 119.272 438.002 119.397 438.002 119.562Z" fill="#E0E0E0"/>
<path d="M475.344 129.592C475.248 129.565 475.662 127.934 476.118 125.24C476.574 122.56 476.988 118.816 476.961 114.672C476.919 110.527 476.422 106.797 475.925 104.117C475.427 101.437 474.985 99.8068 475.082 99.793C475.123 99.793 475.262 100.18 475.496 100.912C475.731 101.644 476.021 102.708 476.325 104.048C476.933 106.714 477.5 110.486 477.541 114.672C477.582 118.858 477.085 122.643 476.533 125.323C476.256 126.663 475.98 127.741 475.759 128.473C475.538 129.205 475.4 129.606 475.358 129.592H475.344Z" fill="#E0E0E0"/>
<path d="M486.148 100.014C486.148 100.014 486.41 100.373 486.797 101.064C486.991 101.409 487.225 101.838 487.447 102.363C487.668 102.874 487.958 103.454 488.193 104.131C488.704 105.457 489.187 107.087 489.574 108.939C489.933 110.79 490.182 112.848 490.21 115.031C490.21 117.214 490.002 119.286 489.671 121.137C489.312 122.989 488.869 124.633 488.372 125.959C488.151 126.636 487.875 127.216 487.668 127.741C487.46 128.266 487.239 128.694 487.046 129.054C486.673 129.758 486.452 130.131 486.424 130.117C486.327 130.062 487.129 128.515 487.999 125.835C488.441 124.495 488.842 122.878 489.16 121.041C489.45 119.203 489.643 117.172 489.643 115.031C489.615 112.89 489.394 110.859 489.063 109.035C488.718 107.212 488.289 105.595 487.82 104.269C486.908 101.603 486.079 100.055 486.176 100.014H486.148Z" fill="#E0E0E0"/>
<path d="M370.197 129.786C370.197 129.786 369.921 129.468 369.52 128.819C369.313 128.501 369.078 128.1 368.843 127.617C368.608 127.133 368.305 126.594 368.07 125.945C367.531 124.688 367.047 123.141 366.661 121.372C366.315 119.604 366.08 117.628 366.094 115.542C366.136 113.456 366.412 111.481 366.813 109.726C367.241 107.972 367.78 106.438 368.346 105.195C368.595 104.559 368.912 104.034 369.161 103.551C369.41 103.067 369.658 102.68 369.866 102.363C370.28 101.727 370.529 101.396 370.57 101.409C370.667 101.465 369.741 102.874 368.719 105.36C368.208 106.604 367.724 108.124 367.324 109.85C366.964 111.577 366.702 113.511 366.661 115.556C366.647 117.601 366.854 119.535 367.172 121.276C367.517 123.002 367.959 124.55 368.443 125.793C369.396 128.307 370.28 129.73 370.183 129.786H370.197Z" fill="#E0E0E0"/>
<path d="M354.558 133.322C354.558 133.322 354.255 132.949 353.812 132.231C353.578 131.872 353.315 131.416 353.053 130.877C352.79 130.338 352.445 129.73 352.182 129.012C351.561 127.617 350.994 125.876 350.524 123.9C350.082 121.925 349.778 119.701 349.709 117.366C349.668 115.017 349.889 112.793 350.234 110.804C350.621 108.814 351.105 107.046 351.671 105.623C351.906 104.891 352.224 104.269 352.459 103.717C352.693 103.164 352.942 102.694 353.149 102.321C353.564 101.575 353.812 101.175 353.84 101.188C353.951 101.244 353.025 102.888 352.044 105.747C351.547 107.17 351.105 108.925 350.759 110.887C350.442 112.862 350.248 115.045 350.29 117.352C350.359 119.659 350.649 121.828 351.049 123.79C351.491 125.738 352.003 127.465 352.569 128.86C353.66 131.678 354.669 133.281 354.558 133.336V133.322Z" fill="#E0E0E0"/>
<path d="M487.225 174.174V201.887H433.595V174.174H487.225Z" fill="#EBEBEB"/>
<path d="M314.011 188.279C314.011 188.528 314.025 188.763 314.039 189.011C314.481 197.397 321.595 203.89 329.995 203.89H489.726V201.887H451.803C444.15 201.887 437.947 195.684 437.947 188.03C437.947 180.377 444.15 174.174 451.803 174.174H489.726V171.231L329.954 171.77C320.932 171.798 313.679 179.272 314.011 188.293V188.279Z" fill="#E0E0E0"/>
<path d="M487.225 188.39C487.225 188.555 476.201 188.68 462.593 188.68C448.985 188.68 437.961 188.555 437.961 188.39C437.961 188.224 448.985 188.099 462.593 188.099C476.201 188.099 487.225 188.224 487.225 188.39Z" fill="#E0E0E0"/>
<path d="M486.452 194.634C486.452 194.8 476.021 194.924 463.146 194.924C450.27 194.924 439.839 194.8 439.839 194.634C439.839 194.468 450.27 194.344 463.146 194.344C476.021 194.344 486.452 194.468 486.452 194.634Z" fill="#E0E0E0"/>
<path d="M487.225 200.354C487.225 200.519 477.845 200.644 466.268 200.644C454.691 200.644 445.31 200.519 445.31 200.354C445.31 200.188 454.691 200.063 466.268 200.063C477.845 200.063 487.225 200.188 487.225 200.354Z" fill="#E0E0E0"/>
<path d="M487.225 182.781C487.225 182.946 476.422 183.071 463.104 183.071C449.786 183.071 438.983 182.946 438.983 182.781C438.983 182.615 449.786 182.491 463.104 182.491C476.422 182.491 487.225 182.615 487.225 182.781Z" fill="#E0E0E0"/>
<path d="M486.452 177.172C486.452 177.337 476.836 177.462 464.983 177.462C453.13 177.462 443.514 177.337 443.514 177.172C443.514 177.006 453.13 176.882 464.983 176.882C476.836 176.882 486.452 177.006 486.452 177.172Z" fill="#E0E0E0"/>
<path d="M333.366 172.226C333.449 172.323 331.805 173.566 329.967 176.26C328.144 178.912 326.265 183.209 326.32 188.182C326.389 193.156 328.351 197.411 330.244 200.008C332.136 202.661 333.822 203.876 333.725 203.959C333.711 203.987 333.283 203.711 332.579 203.103C331.874 202.509 330.921 201.555 329.912 200.243C327.895 197.646 325.809 193.294 325.74 188.169C325.685 183.043 327.674 178.65 329.636 176.011C330.617 174.671 331.542 173.704 332.233 173.096C332.924 172.488 333.338 172.198 333.366 172.212V172.226Z" fill="#F5F5F5"/>
<path d="M327.964 171.632C328.047 171.729 326.403 172.972 324.566 175.666C322.742 178.318 320.863 182.615 320.919 187.588C320.988 192.562 322.949 196.817 324.842 199.414C326.735 202.067 328.42 203.282 328.323 203.365C328.31 203.393 327.881 203.117 327.177 202.509C326.472 201.915 325.519 200.961 324.51 199.649C322.493 197.052 320.407 192.7 320.338 187.575C320.283 182.449 322.272 178.056 324.234 175.417C325.215 174.077 326.141 173.11 326.831 172.502C327.522 171.894 327.937 171.604 327.964 171.618V171.632Z" fill="#F5F5F5"/>
<path d="M436.496 172.226C436.579 172.323 434.935 173.566 433.098 176.26C431.274 178.912 429.395 183.209 429.45 188.182C429.52 193.156 431.481 197.411 433.374 200.008C435.267 202.661 436.952 203.876 436.855 203.959C436.842 203.987 436.413 203.711 435.709 203.103C435.004 202.509 434.051 201.555 433.042 200.243C431.025 197.646 428.939 193.294 428.87 188.169C428.815 183.043 430.804 178.65 432.766 176.011C433.747 174.671 434.673 173.704 435.363 173.096C436.054 172.488 436.469 172.198 436.496 172.212V172.226Z" fill="#F5F5F5"/>
<path d="M431.094 171.632C431.177 171.729 429.533 172.972 427.696 175.666C425.872 178.318 423.993 182.615 424.049 187.588C424.118 192.562 426.08 196.817 427.972 199.414C429.865 202.067 431.55 203.282 431.454 203.365C431.44 203.393 431.012 203.117 430.307 202.509C429.602 201.915 428.649 200.961 427.641 199.649C425.624 197.052 423.538 192.7 423.468 187.575C423.413 182.449 425.403 178.056 427.364 175.417C428.345 174.077 429.271 173.11 429.962 172.502C430.652 171.894 431.067 171.604 431.094 171.618V171.632Z" fill="#F5F5F5"/>
<path d="M351.547 192.175L351.395 180.902C351.395 179.921 351.367 178.912 350.994 178.001C350.635 177.089 349.834 176.274 348.853 176.191C347.444 175.569 345.247 176.743 344.252 178.374C343.271 180.004 343.161 181.993 343.147 183.9C343.119 186.87 343.271 189.84 343.575 192.797C343.727 194.206 343.921 195.643 344.625 196.872C345.33 198.102 346.656 199.069 348.065 198.944C349.461 198.82 350.58 197.646 351.077 196.333C351.574 195.021 351.561 193.584 351.533 192.175H351.547Z" fill="#F5F5F5"/>
<path d="M413.577 188.942C413.577 189.108 402.027 189.232 387.784 189.232C373.54 189.232 361.991 189.108 361.991 188.942C361.991 188.776 373.54 188.652 387.784 188.652C402.027 188.652 413.577 188.776 413.577 188.942Z" fill="#F5F5F5"/>
<path d="M340.854 171.121L340.55 144.844H354.849L355.346 171.121H340.854Z" fill="#F5F5F5"/>
<path d="M354.006 149.514C354.006 149.679 351.036 149.804 347.361 149.804C343.686 149.804 340.716 149.679 340.716 149.514C340.716 149.348 343.686 149.224 347.361 149.224C351.036 149.224 354.006 149.348 354.006 149.514Z" fill="#E0E0E0"/>
<path d="M354.006 153.575C354.006 153.741 351.036 153.865 347.361 153.865C343.686 153.865 340.716 153.741 340.716 153.575C340.716 153.409 343.686 153.285 347.361 153.285C351.036 153.285 354.006 153.409 354.006 153.575Z" fill="#E0E0E0"/>
<path d="M354.006 157.637C354.006 157.803 351.036 157.927 347.361 157.927C343.686 157.927 340.716 157.803 340.716 157.637C340.716 157.471 343.686 157.347 347.361 157.347C351.036 157.347 354.006 157.471 354.006 157.637Z" fill="#E0E0E0"/>
<path d="M354.006 161.685C354.006 161.851 351.036 161.975 347.361 161.975C343.686 161.975 340.716 161.851 340.716 161.685C340.716 161.519 343.686 161.395 347.361 161.395C351.036 161.395 354.006 161.519 354.006 161.685Z" fill="#E0E0E0"/>
<path d="M354.006 165.746C354.006 165.912 351.036 166.037 347.361 166.037C343.686 166.037 340.716 165.912 340.716 165.746C340.716 165.581 343.686 165.456 347.361 165.456C351.036 165.456 354.006 165.581 354.006 165.746Z" fill="#E0E0E0"/>
<path d="M339.79 144.153H498.291C500.253 152.857 499.977 162.431 498.291 172.543H340.467V170.609H350.11C352.624 170.609 354.669 168.565 354.669 166.05V150.343C354.669 147.828 352.624 145.784 350.11 145.784H339.79V144.14V144.153Z" fill="#EBEBEB"/>
<path d="M377.257 158.369H379.895C379.992 158.369 380.089 158.397 380.186 158.438C380.379 158.549 380.476 158.715 380.476 158.936C380.476 159.005 380.476 159.06 380.448 159.101C380.393 159.322 380.338 159.544 380.268 159.778C379.895 160.994 379.343 161.989 378.611 162.776C377.878 163.55 377.132 163.937 376.359 163.937C376.248 163.937 376.152 163.937 376.041 163.909C375.323 163.799 374.715 163.37 374.245 162.611C373.72 161.768 373.458 160.704 373.458 159.419C373.458 158.673 373.568 157.913 373.775 157.154C374.107 155.924 374.632 154.902 375.35 154.087C376.096 153.244 376.884 152.816 377.726 152.816C378.086 152.816 378.417 152.885 378.721 153.05C379.398 153.382 379.923 154.031 380.268 154.985C380.31 155.067 380.338 155.164 380.338 155.247C380.338 155.344 380.31 155.44 380.255 155.537C380.144 155.731 379.978 155.813 379.771 155.813C379.716 155.813 379.661 155.813 379.592 155.786C379.412 155.717 379.288 155.606 379.232 155.427L379.205 155.371C379.122 155.136 379.011 154.929 378.887 154.75C378.542 154.252 378.113 153.99 377.616 153.99C377.326 153.99 377.036 154.1 376.746 154.308C376.193 154.708 375.709 155.399 375.295 156.38C374.881 157.388 374.673 158.383 374.673 159.364C374.673 160.345 374.825 161.077 375.129 161.713C375.461 162.403 375.93 162.749 376.511 162.749C376.898 162.749 377.326 162.486 377.796 161.975C378.362 161.34 378.818 160.524 379.149 159.516C377.934 159.516 377.298 159.516 377.257 159.488C376.842 159.419 376.635 159.212 376.621 158.853C376.621 158.784 376.649 158.715 376.677 158.659C376.787 158.452 376.98 158.342 377.271 158.342L377.257 158.369Z" fill="#FAFAFA"/>
<path d="M386.264 153.202C386.264 153.202 386.306 153.313 386.333 153.396C386.444 153.783 387.066 157.057 388.198 163.218C388.212 163.26 388.226 163.315 388.226 163.356C388.226 163.453 388.198 163.55 388.143 163.647C388.033 163.84 387.867 163.937 387.673 163.937C387.646 163.937 387.618 163.937 387.577 163.937C387.356 163.895 387.204 163.771 387.135 163.55L386.499 160.29H383.239L381.678 163.564C381.678 163.564 381.65 163.633 381.622 163.674C381.47 163.854 381.305 163.951 381.139 163.951C381.028 163.951 380.932 163.923 380.835 163.854C380.655 163.729 380.572 163.578 380.572 163.37C380.572 163.315 380.572 163.26 380.614 163.205C380.711 162.97 380.876 162.624 381.097 162.127C383.377 157.153 384.745 154.211 385.187 153.327C385.311 153.064 385.504 152.94 385.739 152.926C385.974 152.926 386.14 153.023 386.264 153.216V153.202ZM385.56 155.399L383.791 159.101H386.278L385.56 155.399Z" fill="#FAFAFA"/>
<path d="M395.106 163.937H390.326C390.215 163.937 390.119 163.909 390.022 163.84C389.884 163.743 389.801 163.536 389.746 163.246C389.746 163.039 390.188 159.778 391.058 153.465C391.058 153.396 391.072 153.327 391.086 153.258C391.182 153.023 391.362 152.912 391.597 152.912C391.694 152.912 391.776 152.94 391.859 152.981C392.053 153.092 392.163 153.258 392.163 153.492C392.122 153.921 392.011 154.819 391.832 156.173C391.279 160.345 391.003 162.555 390.975 162.79H395.037C395.147 162.79 395.244 162.804 395.341 162.845C395.589 162.942 395.7 163.122 395.7 163.384C395.7 163.453 395.7 163.508 395.672 163.564C395.589 163.785 395.396 163.909 395.078 163.964L395.106 163.937Z" fill="#FAFAFA"/>
<path d="M401.641 153.202C401.641 153.202 401.682 153.313 401.71 153.396C401.82 153.783 402.442 157.057 403.575 163.218C403.588 163.26 403.602 163.315 403.602 163.356C403.602 163.453 403.575 163.55 403.519 163.647C403.409 163.84 403.243 163.937 403.05 163.937C403.022 163.937 402.994 163.937 402.953 163.937C402.732 163.895 402.58 163.771 402.511 163.55L401.875 160.29H398.615L397.054 163.564C397.054 163.564 397.026 163.633 396.999 163.674C396.847 163.854 396.681 163.951 396.515 163.951C396.405 163.951 396.308 163.923 396.211 163.854C396.032 163.729 395.949 163.578 395.949 163.37C395.949 163.315 395.949 163.26 395.99 163.205C396.087 162.97 396.253 162.624 396.474 162.127C398.753 157.153 400.121 154.211 400.563 153.327C400.687 153.064 400.881 152.94 401.116 152.926C401.35 152.926 401.516 153.023 401.641 153.216V153.202ZM400.936 155.399L399.168 159.101H401.654L400.936 155.399Z" fill="#FAFAFA"/>
<path d="M409.253 158.839C409.626 159.875 409.916 160.676 410.109 161.229C410.607 162.597 410.855 163.315 410.855 163.384C410.855 163.481 410.828 163.578 410.759 163.674C410.648 163.854 410.482 163.937 410.275 163.937C410.068 163.937 409.902 163.799 409.805 163.55C409.764 163.453 409.736 163.37 409.709 163.315C409.446 162.721 409.018 161.602 408.424 159.944L405.716 163.633C405.564 163.826 405.398 163.923 405.205 163.937C405.108 163.937 404.998 163.909 404.915 163.854C404.735 163.743 404.638 163.591 404.638 163.37C404.638 163.329 404.638 163.287 404.638 163.246C404.652 163.163 404.749 163.011 404.929 162.79C405.84 161.616 406.835 160.22 407.926 158.604C407.816 158.286 407.705 157.982 407.595 157.706C406.573 154.985 406.075 153.575 406.075 153.479C406.075 153.368 406.103 153.271 406.144 153.189C406.255 152.995 406.407 152.898 406.6 152.898C406.849 152.898 407.028 153.009 407.139 153.216L408.728 157.513L411.919 153.175C412.057 152.995 412.223 152.912 412.43 152.898C412.527 152.898 412.61 152.926 412.693 152.968C412.872 153.064 412.969 153.244 412.969 153.479C412.969 153.562 412.955 153.644 412.914 153.741L409.225 158.825L409.253 158.839Z" fill="#FAFAFA"/>
<path d="M421.065 152.954C421.161 152.954 421.244 152.968 421.327 153.023C421.521 153.133 421.617 153.285 421.631 153.506C420.844 159.682 420.415 163.025 420.332 163.522C420.153 164.572 419.807 165.443 419.31 166.133C418.55 167.17 417.486 167.695 416.133 167.695C415.691 167.695 415.193 167.556 414.599 167.294C413.784 166.921 413.218 166.424 412.914 165.816C412.872 165.733 412.845 165.636 412.845 165.539C412.845 165.443 412.872 165.346 412.927 165.249C413.038 165.056 413.204 164.959 413.411 164.959C413.577 164.959 413.729 165.042 413.839 165.194C414.544 166.12 415.359 166.589 416.285 166.589C417.017 166.589 417.652 166.258 418.177 165.622C418.785 164.89 419.131 163.895 419.227 162.624C419.048 162.914 418.813 163.163 418.523 163.37C418.011 163.743 417.431 163.937 416.81 163.937C416.699 163.937 416.602 163.937 416.492 163.909C415.76 163.799 415.152 163.37 414.682 162.611C414.157 161.768 413.881 160.704 413.881 159.433C413.881 158.853 413.908 158.259 413.964 157.637C414.06 156.67 414.268 155.302 414.613 153.52C414.613 153.465 414.641 153.41 414.668 153.354C414.765 153.092 414.945 152.968 415.179 152.968C415.276 152.968 415.373 152.995 415.456 153.05C415.649 153.161 415.746 153.313 415.746 153.506C415.746 153.796 415.663 154.529 415.483 155.689C415.235 157.388 415.11 158.507 415.11 159.019C415.11 160.082 415.248 160.939 415.539 161.616C415.87 162.389 416.34 162.776 416.948 162.776C417.003 162.776 417.072 162.776 417.141 162.749C417.611 162.652 418.081 162.279 418.564 161.602C419.117 160.828 419.517 159.958 419.738 158.963L420.457 153.52C420.457 153.437 420.484 153.354 420.526 153.285C420.636 153.078 420.802 152.968 421.023 152.968L421.065 152.954Z" fill="#FAFAFA"/>
<path d="M492.337 172.917C492.171 172.917 492.047 166.396 492.047 158.355C492.047 150.315 492.171 143.78 492.337 143.78C492.503 143.78 492.627 150.301 492.627 158.355C492.627 166.41 492.503 172.917 492.337 172.917Z" fill="#F5F5F5"/>
<path d="M362.64 172.917C362.475 172.917 362.35 166.396 362.35 158.355C362.35 150.315 362.475 143.78 362.64 143.78C362.806 143.78 362.93 150.301 362.93 158.355C362.93 166.41 362.806 172.917 362.64 172.917Z" fill="#E0E0E0"/>
<path d="M495.114 172.917C494.948 172.917 494.824 166.396 494.824 158.355C494.824 150.315 494.948 143.78 495.114 143.78C495.28 143.78 495.404 150.301 495.404 158.355C495.404 166.41 495.28 172.917 495.114 172.917Z" fill="#F5F5F5"/>
<path d="M360.043 172.917C359.877 172.917 359.753 166.396 359.753 158.355C359.753 150.315 359.877 143.78 360.043 143.78C360.209 143.78 360.333 150.301 360.333 158.355C360.333 166.41 360.209 172.917 360.043 172.917Z" fill="#E0E0E0"/>
<path d="M453.903 148.574L453.876 148.519C458.2 152.014 464.085 156.753 470.633 162.03L470.785 162.155L470.606 162.21C469.901 162.389 469.141 162.597 468.382 162.79C463.298 164.13 458.476 165.387 454.235 166.506H454.207H454.18C448.93 164.282 444.495 162.403 441.359 161.063C439.812 160.4 438.582 159.875 437.726 159.502C437.311 159.323 436.994 159.184 436.772 159.088C436.676 159.046 436.593 159.005 436.524 158.977C436.469 158.949 436.441 158.936 436.441 158.936C436.441 158.936 436.469 158.936 436.524 158.963C436.593 158.991 436.676 159.019 436.772 159.06C436.994 159.157 437.325 159.281 437.74 159.447C438.596 159.806 439.826 160.317 441.387 160.953C444.523 162.265 448.971 164.116 454.235 166.327H454.18C458.421 165.208 463.229 163.937 468.312 162.597C469.072 162.389 469.832 162.196 470.537 162.016L470.495 162.182C463.961 156.891 458.103 152.125 453.779 148.63H453.751V148.574" fill="#E0E0E0"/>
<path d="M469.114 159.944L470.039 160.801L471.255 160.538L470.73 161.671L471.352 162.749L470.108 162.597L469.28 163.536L469.045 162.293L467.898 161.795L468.989 161.187L469.114 159.944Z" fill="#E0E0E0"/>
<path d="M453.047 165.263L453.668 165.788L454.456 165.567L454.152 166.327L454.608 167.004L453.793 166.948L453.295 167.584L453.088 166.796L452.328 166.506L453.019 166.078L453.047 165.263Z" fill="#E0E0E0"/>
<path d="M435.308 157.982L436.303 158.052L436.911 157.264L437.159 158.231L438.099 158.576L437.256 159.101L437.215 160.096L436.455 159.461L435.488 159.737L435.861 158.811L435.308 157.982Z" fill="#E0E0E0"/>
<path d="M476.629 148.795L477.624 148.851L478.246 148.077L478.494 149.03L479.42 149.376L478.577 149.914L478.55 150.909L477.776 150.274L476.823 150.55L477.182 149.624L476.629 148.795Z" fill="#E0E0E0"/>
<path d="M453.102 148.146L453.724 148.174L454.124 147.676L454.276 148.298L454.884 148.519L454.345 148.851L454.318 149.486L453.834 149.085L453.213 149.265L453.447 148.671L453.102 148.146Z" fill="#E0E0E0"/>
<path d="M478.025 149.486C478.025 149.486 472.609 149.376 465.922 149.085C459.236 148.795 453.82 148.519 453.834 148.45C453.834 148.381 459.25 148.56 465.936 148.851C472.623 149.141 478.025 149.417 478.025 149.486Z" fill="#E0E0E0"/>
<path d="M484.117 143.905H323.364C321.264 139.125 320.739 134.593 323.364 130.518H484.117C486.231 135.381 486.051 139.816 484.117 143.905Z" fill="#E0E0E0"/>
<path d="M443.735 134.345H356.645V139.208H443.735V134.345Z" fill="#EBEBEB"/>
<path d="M329.525 143.974C329.525 143.974 328.904 143.463 328.254 142.358C327.605 141.252 326.956 139.567 326.79 137.605C326.624 135.643 326.956 133.861 327.412 132.673C327.854 131.471 328.323 130.822 328.379 130.863C328.462 130.905 328.13 131.609 327.812 132.797C327.481 133.986 327.218 135.685 327.384 137.55C327.55 139.415 328.102 141.045 328.641 142.164C329.166 143.283 329.622 143.919 329.539 143.974H329.525Z" fill="#E0E0E0"/>
<path d="M333.007 143.974C333.007 143.974 332.385 143.463 331.736 142.358C331.086 141.252 330.451 139.567 330.271 137.605C330.106 135.643 330.437 133.861 330.893 132.673C331.335 131.471 331.805 130.822 331.86 130.863C331.943 130.905 331.611 131.609 331.294 132.797C330.962 133.986 330.7 135.685 330.865 137.55C331.031 139.415 331.584 141.045 332.123 142.164C332.648 143.283 333.103 143.919 333.021 143.974H333.007Z" fill="#E0E0E0"/>
<path d="M477.61 143.67C477.43 143.601 478.743 140.824 478.743 137.122C478.784 133.433 477.513 130.628 477.693 130.573C477.804 130.477 479.378 133.281 479.337 137.135C479.337 140.99 477.721 143.767 477.624 143.67H477.61Z" fill="#F5F5F5"/>
<path d="M474.612 143.629C474.433 143.587 475.11 140.769 475.096 137.218C475.096 133.682 474.419 130.849 474.598 130.808C474.737 130.753 475.69 133.585 475.676 137.218C475.69 140.852 474.737 143.684 474.612 143.629Z" fill="#F5F5F5"/>
<path d="M543.909 61H654.223V204.954H544.655L543.909 61Z" fill="#E0E0E0"/>
<path d="M535.896 204.194H645.575V61.7045H535.896V204.194Z" fill="white"/>
<path d="M646.114 61.1658V204.747H535.344V61.1658H646.114ZM645.022 203.655V62.2434H536.435V203.642H645.022V203.655Z" fill="#E0E0E0"/>
<path d="M631.304 77.1637H547.335V188.79H631.304V77.1637Z" fill="white"/>
<path d="M547.169 77.1361C547.169 77.1361 547.169 77.3295 547.183 77.6749C547.183 78.0479 547.183 78.5591 547.197 79.2498C547.197 80.6452 547.211 82.676 547.225 85.3285C547.239 90.6473 547.266 98.3976 547.294 108.22C547.321 127.852 547.363 155.717 547.418 188.763L547.169 188.514C572.354 188.514 600.938 188.5 631.124 188.486L630.848 188.763C630.862 147.193 630.889 108.662 630.903 77.1361L631.138 77.371C605.76 77.3157 584.802 77.2743 570.172 77.2466C562.85 77.219 557.116 77.2052 553.193 77.1914C551.245 77.1914 549.753 77.1775 548.717 77.1637C547.708 77.1637 547.169 77.1361 547.169 77.1361C547.169 77.1361 547.667 77.1223 548.661 77.1085C549.67 77.1085 551.162 77.0947 553.082 77.0808C556.992 77.0808 562.711 77.0532 570.006 77.0256C584.678 76.998 605.69 76.9565 631.124 76.9012H631.359V77.1361C631.373 108.662 631.387 147.193 631.414 188.763V189.053H631.124C600.938 189.053 572.354 189.039 547.169 189.025H546.907V188.763C546.962 155.661 547.004 127.727 547.031 108.054C547.059 98.2595 547.087 90.523 547.1 85.218C547.1 82.5931 547.128 80.5761 547.128 79.1946C547.128 78.5176 547.128 78.0065 547.142 77.6473C547.142 77.3019 547.156 77.1361 547.156 77.1361H547.169Z" fill="#E0E0E0"/>
<path d="M535.634 204.194C535.634 204.194 536.145 203.227 537.112 201.79C538.093 200.34 539.461 198.364 541.049 196.223C542.638 194.081 544.13 192.189 545.249 190.849C546.368 189.509 547.1 188.721 547.169 188.763C547.239 188.818 546.603 189.688 545.567 191.097C544.406 192.659 543.039 194.51 541.505 196.554C539.986 198.599 538.604 200.45 537.444 202.011C536.38 203.393 535.703 204.236 535.634 204.194Z" fill="#E0E0E0"/>
<path d="M535.896 61.7045C536.021 61.6078 538.645 64.9925 541.754 69.2476C544.862 73.5165 547.294 77.0394 547.156 77.1361C547.031 77.2328 544.406 73.8481 541.284 69.593C538.176 65.3379 535.744 61.8012 535.882 61.7045H535.896Z" fill="#E0E0E0"/>
<path d="M631.138 77.7025C631.027 77.592 634.164 73.931 638.142 69.5101C642.135 65.0893 645.451 61.5941 645.575 61.7046C645.685 61.8151 642.549 65.4761 638.571 69.897C634.578 74.3178 631.262 77.8131 631.138 77.7025Z" fill="#E0E0E0"/>
<path d="M645.575 204.194C645.464 204.305 642.273 200.961 638.474 196.748C634.661 192.534 631.677 189.025 631.787 188.915C631.898 188.804 635.089 192.147 638.888 196.361C642.701 200.575 645.685 204.084 645.575 204.194Z" fill="#E0E0E0"/>
<path d="M551.176 188.763C551.176 188.763 560.211 160.773 565.571 157.803C571.346 154.598 579.994 151.503 589.154 151.42C601.587 151.31 607.514 152.235 614.808 157.25C623.222 163.039 628.928 188.486 628.928 188.486" fill="#E0E0E0"/>
<path d="M576.237 105.416C568.514 105.761 566.621 116.123 567.146 122.049C567.395 124.854 568.251 127.893 566.828 130.338C565.82 132.065 563.844 133.101 563.015 134.911C562.007 137.108 562.974 139.65 563.706 141.971C564.438 144.278 564.756 147.193 562.905 148.768C567.284 149.901 571.705 151.047 576.237 151.282C580.754 151.517 585.451 150.771 589.292 148.367" fill="#E0E0E0"/>
<path d="M570.724 126.111C565.64 114.437 572.548 107.308 577.052 104.739C579.732 103.205 582.923 102.888 586.018 102.805C589.071 102.722 592.152 102.846 595.094 103.606C598.051 104.366 600.883 105.789 602.969 108.013C606.671 111.964 607.542 117.808 607.21 123.223C606.823 129.592 605.014 135.864 601.877 141.418C601.477 142.136 601.021 142.869 600.303 143.255C599.584 143.656 598.534 143.573 598.12 142.869" fill="#E0E0E0"/>
<path d="M587.924 166.161C593.174 166.52 597.747 162.016 598.299 153.935L601.09 112.876L600.897 115.708C600.924 113.995 599.639 112.544 597.94 112.365L581.666 110.693C576.057 110.113 571.111 114.326 570.766 119.949C570.393 126.194 570.172 133.847 570.932 138.503C572.451 147.87 579.635 149.044 579.635 149.044L579.069 155.855C578.627 161.146 582.619 165.774 587.91 166.133L587.924 166.161Z" fill="#F5F5F5"/>
<path d="M573.888 125.268C573.86 125.904 574.385 126.442 575.048 126.484C575.712 126.512 576.264 126.028 576.278 125.393C576.292 124.757 575.781 124.218 575.117 124.177C574.454 124.149 573.902 124.633 573.874 125.268H573.888Z" fill="#E0E0E0"/>
<path d="M572.437 123.942C572.589 124.094 573.501 123.417 574.786 123.417C576.085 123.403 577.024 124.066 577.176 123.9C577.245 123.831 577.093 123.541 576.679 123.251C576.264 122.947 575.573 122.657 574.772 122.671C573.971 122.671 573.294 122.975 572.893 123.279C572.493 123.583 572.368 123.873 572.437 123.942Z" fill="#E0E0E0"/>
<path d="M586.322 125.268C586.308 125.904 586.819 126.442 587.482 126.484C588.145 126.511 588.698 126.028 588.725 125.392C588.739 124.757 588.228 124.218 587.565 124.177C586.902 124.149 586.349 124.633 586.322 125.268Z" fill="#E0E0E0"/>
<path d="M585.161 124.149C585.313 124.301 586.225 123.624 587.51 123.624C588.808 123.61 589.748 124.273 589.9 124.108C589.969 124.039 589.817 123.748 589.402 123.458C588.988 123.154 588.297 122.864 587.496 122.878C586.695 122.878 586.018 123.182 585.617 123.486C585.216 123.79 585.092 124.08 585.161 124.149Z" fill="#E0E0E0"/>
<path d="M580.492 133.764C580.492 133.695 579.69 133.557 578.392 133.391C578.06 133.364 577.742 133.295 577.687 133.074C577.604 132.839 577.742 132.48 577.908 132.093C578.212 131.291 578.544 130.449 578.875 129.578C580.215 125.986 581.196 123.044 581.044 122.989C580.906 122.933 579.69 125.793 578.35 129.385C578.032 130.269 577.715 131.112 577.425 131.913C577.3 132.286 577.093 132.714 577.259 133.212C577.342 133.46 577.59 133.64 577.798 133.695C578.005 133.764 578.198 133.764 578.364 133.778C579.676 133.847 580.492 133.847 580.492 133.778V133.764Z" fill="#E0E0E0"/>
<path d="M579.635 149.072C579.635 149.072 585.949 149.458 592.179 145.687C592.179 145.687 588.836 152.18 579.442 151.337L579.621 149.072H579.635Z" fill="#EBEBEB"/>
<path d="M581.044 136.873C581.514 136.251 582.315 135.92 583.13 136.002C583.697 136.058 584.263 136.334 584.609 136.79C584.954 137.246 585.023 137.895 584.719 138.337C584.374 138.835 583.641 138.945 583.02 138.765C582.398 138.586 581.873 138.185 581.362 137.785C581.224 137.674 581.086 137.55 580.989 137.398C580.906 137.246 580.878 137.039 580.989 136.914" fill="#E0E0E0"/>
<path d="M584.305 134.649C584.097 134.649 584.097 136.044 582.895 137.039C581.694 138.047 580.201 137.895 580.188 138.089C580.174 138.171 580.519 138.365 581.155 138.379C581.776 138.392 582.674 138.199 583.407 137.591C584.139 136.983 584.457 136.154 584.498 135.588C584.553 134.994 584.387 134.649 584.291 134.662L584.305 134.649Z" fill="#E0E0E0"/>
<path d="M584.567 121.883C584.691 122.229 585.99 122.063 587.51 122.243C589.029 122.395 590.259 122.837 590.452 122.519C590.535 122.367 590.328 122.035 589.831 121.704C589.333 121.358 588.56 121.041 587.648 120.944C586.736 120.847 585.907 120.999 585.355 121.22C584.802 121.441 584.512 121.718 584.567 121.897V121.883Z" fill="#E0E0E0"/>
<path d="M572.907 120.198C573.142 120.488 574.026 120.184 575.104 120.17C576.181 120.115 577.079 120.364 577.286 120.06C577.383 119.908 577.231 119.618 576.831 119.341C576.444 119.065 575.781 118.844 575.048 118.872C574.316 118.899 573.681 119.162 573.308 119.466C572.935 119.77 572.81 120.074 572.907 120.212V120.198Z" fill="#E0E0E0"/>
<path d="M578.088 104.172C587.164 99.0607 596.932 102.639 604.268 110.016C605.884 111.646 607.348 113.567 609.462 114.465C611.742 115.446 614.781 115.28 616.135 117.366C617.723 119.797 615.582 123.223 616.743 125.876C617.806 128.321 621.163 129.04 622.421 131.388C623.402 133.239 622.794 135.491 622.324 137.536C621.854 139.581 621.688 142.04 623.222 143.463L603.673 150.881C602.803 151.213 601.85 151.365 600.924 151.185C598.147 150.633 597.954 148.063 598.203 145.936C598.396 144.347 598.741 142.661 598.078 141.211C597.291 139.498 595.26 138.572 594.555 136.818C593.298 133.723 596.793 130.504 596.379 127.188C596.117 125.102 594.321 123.514 592.4 122.671C590.48 121.828 588.352 121.566 586.363 120.916C581.749 119.438 577.963 115.224 575.988 110.527C574.993 108.165 575.877 105.443 578.088 104.159V104.172Z" fill="#E0E0E0"/>
<path d="M1146.46 110.707H970.604V294.02H1146.46V110.707Z" fill="#E0E0E0"/>
<path d="M1134.55 110.707H958.696V294.021H1134.55V110.707Z" fill="#FAFAFA"/>
<path d="M1134.6 294.076H958.64V110.652H1134.6V294.076ZM958.751 293.965H1134.49V110.762H958.751V293.965Z" fill="#E0E0E0"/>
<path d="M1110.91 135.353H982.333V269.388H1110.91V135.353Z" fill="white"/>
<path d="M982.333 270.272C982.43 270.396 981.214 271.792 979.156 273.961C977.097 276.13 974.21 279.059 970.977 282.25C967.744 285.441 964.774 288.273 962.577 290.29C960.381 292.307 958.972 293.495 958.861 293.385C958.751 293.274 959.966 291.879 962.011 289.71C964.069 287.541 966.957 284.598 970.203 281.407C973.45 278.216 976.42 275.37 978.617 273.353C980.813 271.336 982.209 270.148 982.319 270.272H982.333Z" fill="#E0E0E0"/>
<path d="M1110.91 269.941C1111.04 269.844 1112.43 271.06 1114.6 273.118C1116.77 275.176 1119.7 278.064 1122.89 281.297C1126.08 284.529 1128.91 287.5 1130.93 289.696C1132.95 291.893 1134.13 293.302 1134.02 293.412C1133.91 293.523 1132.52 292.307 1130.35 290.263C1128.18 288.204 1125.24 285.317 1122.05 282.07C1118.85 278.824 1116.01 275.853 1113.99 273.657C1111.97 271.46 1110.79 270.065 1110.91 269.954V269.941Z" fill="#E0E0E0"/>
<path d="M1110.55 135.712C1110.45 135.588 1111.67 134.193 1113.73 132.024C1115.79 129.855 1118.66 126.926 1121.91 123.735C1125.14 120.543 1128.11 117.711 1130.31 115.694C1132.5 113.677 1133.91 112.489 1134.02 112.6C1134.13 112.71 1132.92 114.105 1130.87 116.274C1128.82 118.443 1125.93 121.386 1122.68 124.577C1119.43 127.769 1116.46 130.615 1114.27 132.632C1112.07 134.649 1110.68 135.837 1110.57 135.712H1110.55Z" fill="#E0E0E0"/>
<path d="M981.974 136.044C981.85 136.141 980.454 134.925 978.285 132.866C976.116 130.808 973.188 127.934 969.996 124.688C966.805 121.455 963.973 118.485 961.956 116.288C959.939 114.092 958.751 112.683 958.861 112.572C958.972 112.461 960.367 113.677 962.536 115.722C964.705 117.78 967.648 120.668 970.839 123.914C974.03 127.161 976.876 130.131 978.893 132.328C980.91 134.524 982.098 135.92 981.974 136.03V136.044Z" fill="#E0E0E0"/>
<path d="M1110.55 269.388C1110.55 269.388 1110.54 269.153 1110.52 268.739C1110.52 268.283 1110.51 267.661 1110.5 266.874C1110.5 265.188 1110.47 262.771 1110.44 259.634C1110.41 253.279 1110.37 244.051 1110.32 232.322C1110.26 208.85 1110.16 175.403 1110.07 135.367L1110.57 135.864C1073.14 135.892 1029.18 135.906 982.347 135.934L982.913 135.367C982.886 184.563 982.858 230.581 982.831 269.402L982.347 268.918C1020.77 269.015 1052.76 269.112 1075.18 269.167C1086.39 269.222 1095.2 269.264 1101.27 269.291C1104.27 269.319 1106.56 269.333 1108.16 269.347C1108.92 269.347 1109.5 269.374 1109.94 269.374C1110.34 269.374 1110.55 269.388 1110.57 269.402C1110.57 269.402 1110.39 269.416 1110 269.429C1109.57 269.429 1109 269.443 1108.27 269.457C1106.68 269.457 1104.42 269.485 1101.46 269.512C1095.42 269.54 1086.65 269.581 1075.49 269.637C1052.98 269.692 1020.89 269.789 982.333 269.885H981.85V269.402C981.822 230.595 981.794 184.563 981.767 135.367V134.801H982.333C1029.15 134.828 1073.11 134.856 1110.55 134.87H1111.05V135.367C1110.94 175.542 1110.86 209.085 1110.8 232.64C1110.75 244.327 1110.7 253.514 1110.68 259.842C1110.65 262.936 1110.63 265.326 1110.62 266.984C1110.62 267.758 1110.59 268.352 1110.59 268.808C1110.59 269.208 1110.58 269.416 1110.57 269.402L1110.55 269.388Z" fill="#E0E0E0"/>
<path d="M1073.24 176.246C1059.39 165.595 1040.87 163.26 1024.8 170.154C1024.8 170.154 1022.4 201.998 1022.56 215.868C1022.73 229.738 1036.6 231.894 1036.6 231.894L1036.54 246.911L1070.25 248.182L1075.28 177.835L1073.22 176.246H1073.24Z" fill="#F5F5F5"/>
<path d="M1036.59 231.7C1036.59 231.7 1045.34 232.419 1054.67 226.561C1054.67 226.561 1050.4 236.536 1036.56 235.292L1036.59 231.7Z" fill="#E0E0E0"/>
<path d="M1073.58 192.203C1073.82 192.106 1083.11 189.384 1082.81 198.862C1082.51 208.339 1073.06 206.087 1073.04 205.811C1073.04 205.534 1073.58 192.203 1073.58 192.203Z" fill="#F5F5F5"/>
<path d="M1076.06 202.302C1076.06 202.302 1076.22 202.426 1076.5 202.564C1076.76 202.702 1077.23 202.799 1077.73 202.633C1078.74 202.302 1079.63 200.741 1079.73 199.027C1079.79 198.171 1079.63 197.342 1079.34 196.651C1079.08 195.947 1078.64 195.449 1078.14 195.339C1077.64 195.201 1077.27 195.491 1077.15 195.767C1077.01 196.03 1077.06 196.223 1077.01 196.237C1076.98 196.264 1076.82 196.071 1076.9 195.684C1076.94 195.491 1077.06 195.284 1077.28 195.104C1077.52 194.924 1077.85 194.841 1078.21 194.897C1078.94 194.966 1079.58 195.67 1079.88 196.416C1080.23 197.176 1080.43 198.116 1080.37 199.083C1080.24 200.989 1079.21 202.744 1077.82 203.103C1077.15 203.255 1076.61 203.034 1076.32 202.799C1076.03 202.55 1075.99 202.343 1076.03 202.329L1076.06 202.302Z" fill="#E0E0E0"/>
<path d="M1029.35 191.498C1029.3 192.548 1030.16 193.432 1031.25 193.501C1032.34 193.557 1033.26 192.755 1033.3 191.719C1033.34 190.683 1032.48 189.771 1031.39 189.716C1030.3 189.661 1029.39 190.462 1029.35 191.498Z" fill="#E0E0E0"/>
<path d="M1027.43 189.674C1027.67 189.937 1029.17 188.818 1031.31 188.832C1033.44 188.804 1035 189.909 1035.23 189.647C1035.34 189.536 1035.09 189.067 1034.42 188.569C1033.74 188.072 1032.61 187.602 1031.28 187.602C1029.95 187.602 1028.84 188.1 1028.2 188.597C1027.55 189.094 1027.33 189.564 1027.44 189.688L1027.43 189.674Z" fill="#E0E0E0"/>
<path d="M1050.3 192.396C1050.26 193.446 1051.12 194.33 1052.21 194.399C1053.3 194.455 1054.21 193.653 1054.26 192.617C1054.3 191.567 1053.44 190.683 1052.35 190.614C1051.26 190.559 1050.35 191.36 1050.3 192.396Z" fill="#E0E0E0"/>
<path d="M1048.38 190.061C1048.63 190.324 1050.14 189.205 1052.27 189.219C1054.39 189.191 1055.95 190.296 1056.19 190.034C1056.3 189.923 1056.05 189.453 1055.37 188.956C1054.7 188.459 1053.56 187.989 1052.24 187.989C1050.91 187.989 1049.79 188.486 1049.16 188.984C1048.51 189.481 1048.29 189.951 1048.4 190.075L1048.38 190.061Z" fill="#E0E0E0"/>
<path d="M1040.65 205.866C1040.65 205.741 1039.33 205.52 1037.18 205.244C1036.64 205.189 1036.12 205.078 1036.03 204.705C1035.91 204.318 1036.13 203.724 1036.39 203.089C1036.9 201.776 1037.44 200.395 1037.99 198.944C1040.23 193.045 1041.85 188.196 1041.61 188.099C1041.38 188.017 1039.38 192.728 1037.14 198.627C1036.6 200.077 1036.09 201.473 1035.59 202.799C1035.38 203.42 1035.02 204.125 1035.31 204.94C1035.47 205.341 1035.87 205.645 1036.21 205.741C1036.56 205.852 1036.86 205.852 1037.14 205.866C1039.29 205.976 1040.63 205.99 1040.65 205.866Z" fill="#E0E0E0"/>
<path d="M1047.83 181.717C1048.04 182.297 1050.17 182.021 1052.67 182.325C1055.17 182.573 1057.18 183.306 1057.52 182.795C1057.67 182.546 1057.31 182.007 1056.49 181.441C1055.69 180.874 1054.39 180.349 1052.9 180.183C1051.4 180.018 1050.03 180.253 1049.12 180.626C1048.2 180.999 1047.73 181.454 1047.83 181.731V181.717Z" fill="#E0E0E0"/>
<path d="M1028.21 183.499C1028.59 183.983 1030.05 183.485 1031.82 183.458C1033.59 183.375 1035.08 183.789 1035.42 183.278C1035.58 183.029 1035.34 182.546 1034.69 182.09C1034.04 181.634 1032.97 181.261 1031.76 181.302C1030.55 181.344 1029.5 181.786 1028.89 182.27C1028.27 182.767 1028.06 183.264 1028.23 183.499H1028.21Z" fill="#E0E0E0"/>
<path d="M1018.05 161.409C1017.89 159.696 1018.54 157.844 1019.94 156.836C1021.33 155.827 1023.5 155.896 1024.65 157.181C1024 154.86 1025.89 152.194 1028.3 152.042C1030.56 151.904 1032.48 153.603 1034.68 154.211C1036.81 154.791 1039.1 154.294 1041.16 153.465C1043.22 152.636 1045.12 151.503 1047.21 150.743C1051.55 149.155 1056.49 149.362 1060.69 151.282C1064.89 153.202 1068.26 156.836 1069.89 161.16C1072.93 160.207 1076.37 161.754 1078.24 164.324C1080.1 166.893 1080.59 170.264 1080.21 173.428C1079.96 175.555 1079.34 177.628 1078.62 179.645C1078.62 179.824 1078.64 180.004 1078.64 180.183C1078.5 187.809 1077.63 196.762 1074.38 196.817C1068.72 196.9 1070.06 186.221 1070.06 186.221C1063.1 183.527 1065.69 173.11 1063.95 171.521C1062.21 169.946 1058.58 166.258 1044 173.704C1038.35 176.592 1030.82 176.509 1026.72 175.569C1026.6 175.542 1026.47 175.528 1026.36 175.5C1026.33 175.5 1026.31 175.5 1026.28 175.486C1026.24 175.486 1026.2 175.445 1026.15 175.431C1024.84 175.086 1023.59 174.588 1022.42 173.842C1021.11 173.013 1019.91 171.881 1019.34 170.416C1018.78 168.952 1019 167.142 1020.15 166.078C1019.07 164.724 1018.22 163.136 1018.07 161.409H1018.05Z" fill="#E0E0E0"/>
<path d="M1040.66 216.186C1040.69 216.048 1041.68 216.448 1043.11 215.882C1043.78 215.606 1044.54 215.067 1044.94 214.21C1045.36 213.368 1045.44 212.221 1045 211.212C1044.9 210.964 1044.75 210.729 1044.6 210.522C1044.42 210.328 1044.45 210.342 1044.25 210.37C1044.07 210.425 1043.77 210.563 1043.52 210.66C1043.27 210.77 1043.01 210.867 1042.77 210.964C1041.79 211.364 1040.91 211.71 1040.16 211.986C1038.67 212.539 1037.72 212.843 1037.68 212.732C1037.64 212.635 1038.51 212.152 1039.94 211.447C1040.66 211.102 1041.53 210.701 1042.48 210.259C1042.73 210.149 1042.97 210.038 1043.23 209.928C1043.49 209.817 1043.7 209.693 1044.06 209.582C1044.24 209.527 1044.49 209.499 1044.74 209.596C1044.97 209.693 1045.12 209.858 1045.25 209.997C1045.45 210.273 1045.63 210.549 1045.76 210.867C1046.3 212.124 1046.17 213.506 1045.62 214.528C1045.07 215.578 1044.11 216.158 1043.3 216.407C1042.47 216.656 1041.77 216.6 1041.32 216.49C1040.87 216.365 1040.66 216.213 1040.67 216.172L1040.66 216.186Z" fill="#E0E0E0"/>
</g>
</svg>
