<svg width="400" height="590" viewBox="0 0 400 590" fill="none" xmlns="http://www.w3.org/2000/svg">
<path d="M395.971 57.8472L0.000152588 60.1299L3.04364 589.009L399.015 586.726L395.971 57.8472Z" fill="#6188A3"/>
<path opacity="0.26" d="M32.4418 566.113L38.3671 566.079L388.113 574.929L376.097 74.8137L359.868 79.5859L32.4418 566.113Z" fill="black"/>
<path d="M376.097 74.8006L20.0682 76.853L22.884 566.165L378.913 564.112L376.097 74.8006Z" fill="#FFFFF1"/>
<path opacity="0.05" d="M18.1178 74.999L274.196 73.5229L18.9312 290.767L18.1178 74.999Z" fill="black"/>
<path opacity="0.12" d="M275.38 72.8011L120.756 73.6924L120.839 88.2206L275.464 87.3293L275.38 72.8011Z" fill="black"/>
<path d="M243.432 29.0441L241.031 29.0574V27.4358C240.939 12.1859 226.674 -0.0987465 209.176 0.000536545L186.123 0.132914C168.618 0.232197 154.499 12.6823 154.585 27.9322V29.5538L152.198 29.567C134.693 29.6663 120.574 42.1164 120.66 57.3663L120.839 88.2234L275.466 87.3365L275.287 56.4794C275.201 41.2295 260.937 28.9449 243.439 29.0441H243.432ZM218.183 29.8252L177.447 30.0568C173.28 30.0833 169.855 26.6878 169.835 22.5246C169.809 18.3547 173.201 14.9261 177.361 14.9062L218.097 14.6746C222.264 14.6481 225.689 18.0436 225.709 22.2068C225.729 26.3701 222.343 29.8053 218.183 29.8252Z" fill="#C4D3D3"/>
<g opacity="0.47">
<path d="M120.323 213.055C102.897 213.155 85.472 213.254 68.0532 213.353C66.5785 213.36 65.3352 214.617 65.3484 216.093C65.4476 233.534 65.5468 250.975 65.646 268.409C65.6526 269.885 66.9091 271.129 68.3838 271.116C85.8093 271.017 103.235 270.917 120.654 270.818C121.454 270.818 122.056 270.52 122.492 270.077C122.525 270.05 122.552 270.017 122.585 269.991C122.598 269.971 122.618 269.958 122.638 269.938C123.081 269.501 123.372 268.885 123.365 268.078C123.266 250.637 123.167 233.197 123.067 215.762C123.061 214.286 121.804 213.042 120.33 213.055H120.323ZM117.903 265.391C102.296 265.483 86.6822 265.569 71.0754 265.662C70.9828 250.042 70.8968 234.414 70.8042 218.794C86.4111 218.701 102.025 218.615 117.631 218.523C117.724 234.143 117.81 249.77 117.903 265.391Z" fill="#8C9498"/>
<path d="M120.878 309.79C103.453 309.889 86.0275 309.989 68.6087 310.088C67.134 310.095 65.8907 311.352 65.9039 312.828C66.0031 330.269 66.1023 347.71 66.2015 365.144C66.2081 366.62 67.4646 367.864 68.9393 367.851C86.3648 367.752 103.79 367.652 121.209 367.553C122.009 367.553 122.611 367.255 123.048 366.812C123.081 366.785 123.107 366.752 123.14 366.726C123.153 366.706 123.173 366.693 123.193 366.673C123.636 366.236 123.927 365.62 123.92 364.813C123.821 347.372 123.722 329.931 123.623 312.497C123.616 311.021 122.36 309.777 120.885 309.79H120.878ZM118.458 362.126C102.851 362.218 87.2377 362.304 71.6309 362.397C71.5383 346.776 71.4523 331.149 71.3597 315.529C86.9666 315.436 102.58 315.35 118.187 315.257C118.28 330.878 118.365 346.505 118.458 362.126Z" fill="#8C9498"/>
<path d="M121.434 406.525C104.008 406.624 86.583 406.723 69.1642 406.823C67.6895 406.829 66.4462 408.087 66.4594 409.563C66.5586 427.004 66.6578 444.444 66.757 461.878C66.7636 463.355 68.0201 464.599 69.4948 464.586C86.9203 464.486 104.346 464.387 121.765 464.288C122.565 464.288 123.167 463.99 123.603 463.546C123.636 463.52 123.663 463.487 123.696 463.46C123.709 463.441 123.729 463.427 123.749 463.407C124.192 462.971 124.483 462.355 124.476 461.548C124.377 444.107 124.278 426.666 124.178 409.232C124.172 407.756 122.915 406.512 121.441 406.525H121.434ZM119.014 458.86C103.407 458.953 87.7932 459.039 72.1864 459.132C72.0938 443.511 72.0078 427.884 71.9152 412.263C87.5221 412.171 103.136 412.085 118.742 411.992C118.835 427.613 118.921 443.24 119.014 458.86Z" fill="#8C9498"/>
</g>
<path d="M85.7696 233.051L97.7591 228.974L104.504 240.96L161.668 199.215L168.354 200.513L101.919 255.674L85.7696 233.051Z" fill="#00CB6A"/>
<path d="M81.9803 332.261L93.9765 328.184L100.715 340.171L157.879 298.426L164.564 299.723L98.1295 354.884L81.9803 332.261Z" fill="#00CB6A"/>
<path d="M81.4182 423.827L93.4077 419.749L100.153 431.736L157.316 389.984L164.002 391.282L97.5673 446.443L81.4182 423.827Z" fill="#00CB6A"/>
<path opacity="0.32" d="M339.545 426.521L155.142 427.584L155.293 453.742L339.695 452.679L339.545 426.521Z" fill="#8C9498"/>
<path opacity="0.32" d="M338.955 324.066L154.553 325.13L154.703 351.287L339.106 350.224L338.955 324.066Z" fill="#8C9498"/>
<path opacity="0.32" d="M338.366 221.605L153.963 222.668L154.114 248.825L338.516 247.762L338.366 221.605Z" fill="#8C9498"/>
</svg>
